<svg width="32" height="32" fill="none" xmlns="http://www.w3.org/2000/svg"><rect width="32" height="32" rx="8" fill="#ECFFF6"/><path d="M16.464 23.84a.857.857 0 01-.995 0c-4.292-3.06-8.848-9.354-4.243-13.901A6.748 6.748 0 0115.966 8c1.779 0 3.484.697 4.741 1.939 4.606 4.547.05 10.84-4.243 13.902z" stroke="#4FD1B2" stroke-width="1.5" stroke-linecap="round" stroke-linejoin="round"/><path d="M15.89 15.333c.88 0 1.592-.671 1.592-1.5 0-.828-.712-1.5-1.591-1.5s-1.591.672-1.591 1.5c0 .829.712 1.5 1.59 1.5z" stroke="#4FD1B2" stroke-width="1.5" stroke-linecap="round" stroke-linejoin="round"/></svg>