<svg width="66" height="66" fill="none" xmlns="http://www.w3.org/2000/svg"><circle cx="32.653" cy="32.653" r="31.576" transform="rotate(-.14 32.653 32.653)" fill="#1A317F"/><path fill-rule="evenodd" clip-rule="evenodd" d="M33 66c18.226 0 33-14.777 33-33C66 14.774 51.222 0 33 0 14.774 0 0 14.778 0 33c-.004 18.223 14.774 33 33 33zm.077-27.056c-9.454-4.797-15.498-12-17.973-20.404 2.124-2.82 4.805-5.175 7.912-6.861-.709 10.113 4.422 19.558 12.556 25.804l-.133.073c-.705.374-1.699.901-2.362 1.388zm11.465-10.178c1.095-5.251-1.232-11.626-2.608-13.763 6.781 3.501 16.259 13.413 11.836 22.327-2.93 5.908-8.383 8.154-11.57 9.466-.652.27-1.212.499-1.63.712-2.483 1.26-7.34 4.821-5.538 10.315-5.191-1.787-6.942-6.11-5.24-10.013 1.647-3.791 4.206-5.687 6.766-7.582 3.3-2.447 6.612-4.902 7.984-11.462zM29.861 41.612c-7.49-.805-14.085-3.88-18.89-8.576.535 2.153 1.428 4.258 2.446 6.234 4.918 2.43 10.098 3.413 15.824 3.01.093-.08.181-.189.274-.297.108-.13.221-.262.346-.37zm-1.465 1.703c-4.733.97-9.24.426-13.538-1.461.318.414.596.793.865 1.155.5.68.958 1.308 1.582 2.028 3.674.503 7.167.455 10.483-.893a5.65 5.65 0 00.399-.54c.08-.116.157-.225.21-.29zm-9.127 3.891c.35.366.712.745 1.227 1.07 2.073-.076 4.572-.59 6.11-2.016l.41-.88c-2.46 1.122-5.514 1.673-8.246 1.323.173.157.338.33.499.503zm12.765-7.481c-.31.225-.82.628-1.054.87-8.657-1.462-15.8-5.703-20.468-11.724a25.194 25.194 0 012.483-7.05c2.97 7.803 9.674 14.226 19.04 17.904z" fill="#fff"/></svg>