<svg width="46" height="46" fill="none" xmlns="http://www.w3.org/2000/svg"><path fill-rule="evenodd" clip-rule="evenodd" d="M22.297 27.677c-.216.159-.573.44-.732.608-6.032-1.02-11.012-3.976-14.267-8.175.337-1.75.928-3.395 1.735-4.91 2.064 5.443 6.744 9.914 13.264 12.477zM8.123 11.963v.01-.01zm4.934 20.568c.122.112.235.234.347.355.244.262.497.524.854.749 1.444-.056 3.189-.412 4.258-1.403l.291-.617c-1.716.785-3.846 1.169-5.75.926m6.707-2.358c-3.302.674-6.435.3-9.436-1.02.225.29.412.553.6.805.347.477.666.908 1.107 1.413 2.56.355 4.99.318 7.307-.627.075-.075.178-.234.281-.374.056-.084.113-.16.15-.206m1.023-1.188c-5.216-.561-9.812-2.703-13.16-5.977.375 1.497.994 2.965 1.707 4.35 3.423 1.693 7.035 2.375 11.021 2.095.066-.056.131-.131.197-.206.075-.084.15-.178.244-.253m10.234-8.95c.76-3.658-.854-8.1-1.82-9.597 4.728 2.441 11.331 9.344 8.245 15.564-2.045 4.115-5.844 5.677-8.067 6.594-.45.187-.844.346-1.135.496-1.735.879-5.112 3.358-3.855 7.192-3.62-1.244-4.84-4.255-3.649-6.977 1.145-2.638 2.927-3.966 4.709-5.285 2.308-1.702 4.615-3.414 5.572-7.988zm-7.992 7.09c-6.585-3.34-10.797-8.363-12.523-14.218 1.483-1.964 3.35-3.61 5.516-4.78-.497 7.053 3.077 13.628 8.752 17.987l-.094.047c-.488.262-1.182.627-1.642.973M23 46c12.7 0 23-10.298 23-23S35.7 0 23 0 0 10.298 0 23s10.3 23 23 23z" fill="#1A317F"/></svg>