<svg width="396" height="136" fill="none" xmlns="http://www.w3.org/2000/svg"><path fill-rule="evenodd" clip-rule="evenodd" d="M68.268 136.545c37.706 0 68.268-30.571 68.268-68.268 0-37.706-30.571-68.269-68.268-68.269C30.562.008 0 30.58 0 68.277c-.008 37.697 30.563 68.268 68.268 68.268zm.158-55.972c-19.556-9.924-32.06-24.826-37.18-42.21 4.395-5.836 9.94-10.706 16.367-14.194-1.465 20.921 9.15 40.461 25.975 53.382l-.275.15c-1.457.774-3.513 1.865-4.887 2.872zm23.72-21.055c2.264-10.864-2.548-24.052-5.395-28.473 14.028 7.244 33.634 27.749 24.484 46.19-6.06 12.221-17.341 16.867-23.935 19.581-1.349.558-2.506 1.032-3.372 1.474-5.137 2.605-15.185 9.973-11.456 21.338-10.74-3.697-14.36-12.638-10.84-20.714 3.406-7.843 8.7-11.764 13.996-15.685 6.827-5.062 13.678-10.14 16.517-23.71zM61.773 86.093c-15.493-1.665-29.139-8.026-39.079-17.742 1.107 4.455 2.956 8.809 5.062 12.897 10.174 5.028 20.888 7.06 32.735 6.227.192-.167.375-.391.566-.616.225-.267.458-.541.716-.766zm-3.03 3.522c-9.79 2.006-19.115.882-28.007-3.023.658.858 1.233 1.64 1.79 2.39 1.033 1.407 1.982 2.706 3.272 4.196 7.601 1.04 14.828.94 21.688-1.848.208-.225.54-.7.824-1.116.166-.242.325-.466.433-.6zm-18.882 8.05c.724.758 1.474 1.54 2.54 2.215 4.287-.158 9.457-1.224 12.637-4.171l.85-1.824c-5.088 2.323-11.407 3.464-17.06 2.74.359.324.7.682 1.033 1.04zM24.185 35.55s-.025 0-.025.026l.025-.026zM66.27 82.19c-.641.466-1.698 1.298-2.181 1.798C46.18 80.965 31.403 72.19 21.746 59.735a52.109 52.109 0 015.137-14.586c6.144 16.143 20.014 29.43 39.387 37.04z" fill="#fff"/><path d="M364.41 78.791c-1.032 0-1.798-.258-2.447-.649-.516-.391-.774-1.032-.774-1.94h1.54c0 .392.133.775.383 1.033.258.258.641.39 1.157.39s.899-.124 1.157-.39c.258-.258.383-.517.516-1.033h1.541c0 .775-.259 1.424-.9 1.94-.374.391-1.14.65-2.173.65zm-5.536.775h2.315v8.775l6.693-8.775h2.19v12.396h-2.315v-8.775l-6.693 8.775h-2.19V79.566zm-14.536 0h2.314v8.775l6.694-8.775h2.19v12.396h-2.315v-8.775l-6.693 8.775h-2.19V79.566zm-7.726 7.234h-2.314v5.162h-2.315V79.566h2.315v5.162h2.314l3.605-5.162h2.448l-4.246 5.936 4.379 6.327h-2.573l-3.613-5.028zm-11.581 5.42c-1.29 0-2.314-.258-3.346-.774a5.044 5.044 0 01-2.315-2.323c-.516-.907-.899-2.064-.899-3.23 0-1.165.258-2.323.899-3.23.516-.908 1.415-1.682 2.315-2.323a7.503 7.503 0 013.346-.774c1.033 0 1.932.125 2.831.516.774.383 1.549.899 2.056 1.548l-1.54 1.416c-.899-.9-1.931-1.416-3.347-1.416-.899 0-1.54.125-2.314.517a4.35 4.35 0 00-1.54 1.548c-.383.65-.516 1.424-.516 2.198s.133 1.549.516 2.198a4.495 4.495 0 001.54 1.548c.641.383 1.415.517 2.314.517 1.291 0 2.448-.517 3.347-1.424l1.54 1.424c-.516.649-1.29 1.165-2.189 1.548-.766.258-1.665.516-2.698.516zm-10.681-6.71c.774.258 1.29.65 1.798 1.166.383.516.641 1.165.641 1.806 0 .775-.258 1.424-.774 1.94s-1.157 1.032-1.931 1.29c-.775.259-1.674.392-2.573.392a8.09 8.09 0 01-2.448-.391c-.774-.259-1.548-.517-2.314-1.033l.774-1.682c.516.392 1.157.65 1.798.908s1.291.258 1.932.258c.899 0 1.673-.133 2.314-.516.641-.391.899-.908.899-1.549 0-.516-.258-.907-.641-1.29-.383-.258-1.032-.383-1.798-.383h-2.83v-1.807h2.705c.641 0 1.157-.125 1.54-.391.383-.258.642-.65.642-1.166 0-.516-.259-1.032-.775-1.29s-1.157-.516-2.056-.516c-.516 0-1.157.125-1.674.258-.641.133-1.157.391-1.673.65l-.774-1.807a5.686 5.686 0 012.056-.775c.774-.133 1.416-.258 2.19-.258.899 0 1.798.125 2.572.392.775.258 1.416.64 1.799 1.157.516.516.641 1.165.641 1.806 0 .65-.134 1.166-.517 1.549-.491.766-1.007 1.024-1.523 1.282zm-12.738 1.807l-2.314-5.42-2.315 5.42h4.629zm.774 1.806h-6.177l-1.157 2.84h-2.315l5.537-12.397h2.314l5.536 12.396h-2.447l-1.291-2.839zM286.56 86.8h-2.315v5.162h-2.314V79.566h2.314v5.162h2.315l3.605-5.162h2.447l-4.246 5.936 4.371 6.327h-2.572l-3.605-5.028zm-11.839 3.489c1.673 0 2.448-.65 2.448-1.807 0-1.165-.775-1.806-2.448-1.806h-3.472v3.613h3.472zm-3.605-5.428h3.089c.774 0 1.29-.133 1.673-.392.383-.258.641-.774.641-1.29s-.258-1.032-.641-1.29a2.848 2.848 0 00-1.673-.517h-3.089v3.489zm5.92.649c.774.258 1.415.516 1.798 1.032a3.2 3.2 0 01.641 1.932c0 1.032-.383 1.94-1.157 2.58-.775.65-1.932.908-3.472.908h-5.919V79.566h5.536c1.415 0 2.448.258 3.214.774.774.516 1.157 1.29 1.157 2.323 0 .65-.125 1.165-.516 1.681-.258.65-.766.908-1.282 1.166zm-14.412 1.807l-2.314-5.42-2.315 5.42h4.629zm.766 1.806h-6.177l-1.157 2.84h-2.315l5.537-12.397h2.314l5.536 12.396h-2.447l-1.291-2.839zM247.564 86.8h-2.315v5.162h-2.314V79.566h2.314v5.162h2.315l3.605-5.162h2.447l-4.246 5.936 4.379 6.327h-2.572l-3.613-5.028zm-12.097-.649h4.887v1.807h-4.887V86.15zm-8.492 4.005c.774 0 1.54-.134 2.19-.517a4.495 4.495 0 001.54-1.548c.383-.65.516-1.424.516-2.198s-.125-1.549-.516-2.198a4.356 4.356 0 00-1.54-1.548c-.641-.392-1.416-.517-2.19-.517s-1.54.125-2.19.517a4.438 4.438 0 00-1.548 1.548c-.383.65-.516 1.424-.516 2.198s.133 1.549.516 2.198a4.45 4.45 0 001.548 1.548c.65.383 1.424.517 2.19.517zm0 2.064c-1.29 0-2.448-.258-3.347-.774a5.046 5.046 0 01-2.314-2.323c-.516-1.032-.899-2.064-.899-3.23 0-1.165.258-2.323.899-3.23.516-1.033 1.415-1.682 2.314-2.323a7.51 7.51 0 013.347-.774c1.29 0 2.448.258 3.347.774a5.046 5.046 0 012.314 2.323c.516.899.899 2.065.899 3.23 0 1.166-.258 2.323-.899 3.23-.516.9-1.415 1.682-2.314 2.323-.899.516-2.057.774-3.347.774zm-13.379-5.678c1.032 0 1.798-.258 2.315-.649.516-.391.774-1.032.774-1.807 0-.774-.258-1.423-.774-1.806-.517-.392-1.291-.65-2.315-.65h-2.706v4.904h2.706v.008zm.125-6.976c1.032 0 2.056.125 2.831.516.774.383 1.415.899 1.798 1.548.383.65.641 1.416.641 2.323a4.47 4.47 0 01-.641 2.323c-.383.65-1.032 1.166-1.798 1.549-.775.39-1.674.516-2.831.516h-2.831v3.613h-2.314V79.557h5.145v.009zm-7.718 10.456v1.94h-9.266V79.566h9.008v1.94h-6.693v3.23h5.919v1.94h-5.919v3.355h6.951v-.009zm-16.6.267c1.673 0 2.447-.65 2.447-1.807 0-1.165-.774-1.806-2.447-1.806h-3.472v3.613h3.472zm-3.48-5.428h3.088c.775 0 1.291-.133 1.674-.392.383-.258.641-.774.641-1.29s-.258-1.032-.641-1.29a2.849 2.849 0 00-1.674-.517h-3.088v3.489zm5.794.649c.774.258 1.415.516 1.798 1.032a3.2 3.2 0 01.641 1.932c0 1.032-.383 1.94-1.157 2.58-.774.65-1.931.908-3.472.908h-5.919V79.566h5.536c1.416 0 2.448.258 3.214.774.774.516 1.157 1.29 1.157 2.323 0 .65-.125 1.165-.516 1.681-.125.65-.641.908-1.282 1.166zm-10.681 4.512v1.94h-9.267V79.566h9.008v1.94h-6.693v3.23h6.052v1.94h-5.919v3.355h6.819v-.009zm-16.21 2.198c-1.29 0-2.314-.258-3.347-.774a5.046 5.046 0 01-2.314-2.323c-.516-1.032-.899-2.064-.899-3.23 0-1.165.258-2.323.899-3.23.516-.908 1.415-1.682 2.314-2.323a7.51 7.51 0 013.347-.774c1.032 0 1.932.125 2.831.516.774.383 1.548.899 2.056 1.548l-1.54 1.416c-.899-.9-1.932-1.416-3.347-1.416-.899 0-1.548.125-2.314.517a4.36 4.36 0 00-1.541 1.548c-.383.65-.516 1.424-.516 2.198s.133 1.549.516 2.198c.383.641.9 1.157 1.541 1.548.641.383 1.415.517 2.314.517 1.29 0 2.448-.517 3.347-1.424l1.54 1.424c-.516.649-1.29 1.165-2.19 1.548-.774.258-1.673.516-2.697.516zm138.975 8.392c-1.032 0-1.798-.258-2.447-.65-.516-.39-.774-1.032-.774-1.939h1.54c0 .391.125.774.383 1.032s.641.392 1.157.392.899-.133 1.157-.392c.258-.258.383-.516.383-1.032h1.549c0 .774-.258 1.424-.9 1.94-.116.391-.89.649-2.048.649zm-5.403.775h2.315v8.774l6.693-8.774h2.19v12.396h-2.315V105l-6.693 8.783h-2.19v-12.396zm-5.794 0h2.314v12.396h-2.314v-12.396zm-6.819 10.581c.899 0 1.541-.258 2.057-.649.516-.392.774-1.033.774-1.807 0-1.548-.899-2.198-2.831-2.198h-2.964v4.646h2.964v.008zm.516-6.327c1.549 0 2.573.383 3.472 1.032.774.641 1.157 1.682 1.157 2.972 0 1.424-.383 2.456-1.29 3.097-.899.775-2.056 1.033-3.73 1.033h-5.403v-12.397h2.314v4.13h3.472v.133h.008zm-9.266-4.254v12.396h-2.314v-5.295h-6.436v5.295h-2.314v-12.396h2.314v5.161h6.436v-5.161h2.314zm-18.274 10.581c.899 0 1.54-.258 2.056-.649.517-.392.775-1.033.775-1.807 0-1.548-.899-2.198-2.831-2.198h-2.964v4.646h2.964v.008zm.383-6.327c1.54 0 2.573.383 3.472 1.032.774.641 1.157 1.682 1.157 2.972 0 1.424-.383 2.456-1.29 3.097-.9.775-2.057 1.033-3.73 1.033h-5.279v-12.397h2.315v4.13h3.347v.133h.008zm-9.133-4.254v12.396h-2.314v-10.465h-4.887l-.134 3.097c0 1.682-.258 3.097-.382 4.263-.259 1.032-.642 1.939-1.033 2.456-.516.516-1.157.907-2.056.907-.258 0-.774 0-1.291-.125l.125-1.94c.133 0 .383.134.516.134.775 0 1.291-.392 1.541-1.291.258-.907.516-2.198.516-4.004l.125-5.162h9.266v-.266h.008zm-16.859 7.742l-2.314-5.42-2.315 5.42h4.629zm.641 1.807h-6.177l-1.157 2.839h-2.315l5.537-12.397h2.314l5.536 12.397h-2.447l-1.291-2.839zm-15.052-2.706c1.032 0 1.798-.258 2.314-.649.517-.383.775-1.033.775-1.807s-.258-1.424-.775-1.807c-.516-.391-1.29-.649-2.314-.649h-2.706v4.904h2.706v.008zm.125-6.843c1.032 0 2.056.124 2.831.516.774.391 1.415.907 1.798 1.548s.641 1.424.641 2.323c0 .907-.258 1.682-.641 2.323s-1.033 1.165-1.798 1.548c-.775.392-1.674.516-2.831.516h-2.831v3.614h-2.314v-12.397h5.145v.009zm-7.593 10.456v1.94h-9.266v-12.396h9.008v1.939h-6.694v3.231h5.92v1.939h-5.92v3.356h6.952v-.009zm-20.455-6.327c0 1.548-.125 2.972-.383 4.004-.258 1.033-.516 1.807-.899 2.323h6.302v-8.525h-4.887l-.133 2.198zm9.008 6.327v4.521h-2.057v-2.581h-9.524v2.581h-2.189v-4.521h.516c.774 0 1.29-.649 1.673-1.682.258-1.165.516-2.714.516-4.778l.125-3.872h9.008v10.457h1.932v-.125zm-14.803 0v1.94h-9.266v-12.396h9.008v1.939h-6.694v3.231h5.92v1.939h-5.92v3.356h6.952v-.009zm-24.576-4.262c0 1.032.383 1.939 1.157 2.456.774.516 1.798.907 3.213 1.032v-7.226c-2.955.382-4.37 1.54-4.37 3.738zm6.435 3.613c1.415-.133 2.448-.516 3.222-1.033.774-.649 1.032-1.423 1.032-2.58 0-1.033-.383-1.94-1.157-2.581s-1.798-.908-3.213-1.033v7.227h.116zm6.436-3.613c0 1.681-.516 2.972-1.674 3.871-1.157.907-2.705 1.424-4.762 1.548v1.291h-2.189V113c-2.057-.124-3.73-.641-4.763-1.548-1.157-.908-1.673-2.198-1.673-3.871 0-1.682.516-2.973 1.673-3.872 1.158-.907 2.706-1.423 4.763-1.548v-1.291h2.056v1.291c2.056.133 3.73.649 4.762 1.548 1.291.899 1.807 2.19 1.807 3.872zm124.048 17.566h-3.988v10.457h-2.314v-10.457h-4.121v-1.94h10.423v1.94zm-11.456 8.517v1.94h-9.266v-12.397h9.008v1.94h-6.693v3.23h5.919v1.94h-5.919v3.355h6.951v-.008zm-11.189-8.517H270.6v10.457h-2.315v-10.457h-4.121v-1.94h10.424v1.94h.133zm-23.428-1.94h2.315v8.775l6.693-8.775h2.19v12.397h-2.314v-8.775l-6.694 8.775h-2.19v-12.397zm-7.076 12.522c-1.291 0-2.315-.258-3.347-.775a5.004 5.004 0 01-2.314-2.322c-.517-.908-.9-2.065-.9-3.231 0-1.165.258-2.322.9-3.23.516-.907 1.415-1.682 2.314-2.323a7.485 7.485 0 013.347-.774c1.032 0 1.931.133 2.83.516.775.392 1.541.908 2.057 1.549l-1.54 1.423c-.9-.907-1.932-1.423-3.347-1.423-.899 0-1.549.125-2.315.516a4.494 4.494 0 00-1.54 1.549c-.383.649-.516 1.423-.516 2.197 0 .775.125 1.549.516 2.198.383.65.899 1.166 1.54 1.549.65.383 1.416.516 2.315.516 1.282 0 2.447-.516 3.347-1.424l1.54 1.424c-.516.649-1.282 1.166-2.19 1.549-.766.391-1.665.516-2.697.516zm-13.379-5.678c1.032 0 1.798-.258 2.314-.65.517-.391.775-1.032.775-1.806s-.258-1.424-.775-1.807c-.516-.391-1.29-.649-2.314-.649h-2.706v4.904h2.706v.008zm.125-6.844c1.032 0 2.056.125 2.83.517.775.391 1.416.907 1.807 1.548.383.649.641 1.424.641 2.323 0 .907-.258 1.682-.641 2.323-.391.649-1.032 1.165-1.807 1.548-.774.391-1.673.516-2.83.516h-2.831v3.614h-2.314v-12.397h5.145v.008zm-7.718 10.457v1.94h-9.266v-12.397h9.008v1.94h-6.694v3.23h5.92v1.94h-5.92v3.355h6.952v-.008zm-16.601.125c1.674 0 2.448-.649 2.448-1.807 0-1.165-.774-1.806-2.448-1.806h-3.471v3.613h3.471zm-3.471-5.287h3.088c.775 0 1.282-.133 1.674-.391.383-.258.641-.774.641-1.29 0-.517-.133-1.033-.641-1.291-.392-.258-.899-.391-1.674-.391h-3.088v3.363zm5.786.641c.774.258 1.415.517 1.806 1.033.383.516.641 1.165.641 1.94 0 1.032-.382 1.939-1.157 2.58-.774.65-1.931.908-3.471.908h-5.795v-12.397h5.536c1.416 0 2.448.258 3.214.775.774.516 1.157 1.29 1.157 2.322 0 .65-.125 1.166-.516 1.682-.383.516-.766.899-1.415 1.157zm-22.52-5.936h2.314v8.775l6.694-8.775h2.189v12.397h-2.314v-8.775l-6.694 8.775h-2.189v-12.397zm-3.472 0v12.397h-2.315v-5.295h-6.435v5.295h-2.314v-12.397h2.314v5.162h6.435v-5.162h2.315zm-12.613 0l-5.403 9.941c-.516.907-1.033 1.548-1.674 1.94-.641.391-1.415.649-2.189.649-.641 0-1.157-.133-1.807-.383l.516-1.806c.517.133.9.258 1.158.258.774 0 1.29-.392 1.806-1.166l.258-.258-4.887-9.291h2.448l3.605 7.226 3.73-7.226h2.447v.116h-.008z" fill="#fff"/><path fill-rule="evenodd" clip-rule="evenodd" d="M184.224 63.148c8.675 0 17.35-4.263 22.495-9.69l-5.736-10.133c-2.797 4.113-8.234 8.517-15.876 8.958-12.197.733-21.904-8.958-21.904-20.705 0-20.264 25.725-28.048 37.339-12.338l5.586-9.982c-4.995-5.137-12.937-9.25-21.463-9.25-17.932 0-32.344 13.654-32.344 31.57 0 17.908 14.112 31.57 31.903 31.57z" fill="#fff"/><path d="M253.042 61.383h12.638l-18.524-32.31L263.915 0h-12.638l-14.994 26.142-10.882-.15L225.252 0h-11.906v61.383h12.055V36.715l13.521-.15 14.12 24.818z" fill="#fff"/><path d="M274.496 30.987c0-12.48 7.493-19.24 22.196-20.414v40.828c-14.112-1.324-22.196-7.934-22.196-20.414zm33.227 20.414V10.573c14.403 1.174 22.345 7.934 22.345 20.264 0 12.48-7.792 19.39-22.345 20.564zm33.659-20.414c0-18.507-12.196-29.513-33.809-30.696H296.55c-21.613 1.174-33.809 12.189-33.809 30.696 0 18.5 12.196 29.372 33.809 30.546h11.023c21.754-.883 33.809-12.047 33.809-30.546zM386.031.291c-6.027 11.306-11.172 21.438-17.933 32.894L350.315.291H338.11L361.921 44.2c-2.648 3.963-5.586 7.926-10.881 7.926-1.174 0-2.356-.15-3.53-.441l5.436 9.84c7.06 0 13.229-2.647 18.666-12.48L398.369.292h-12.338z" fill="#fff"/></svg>