<svg width="426" height="284" fill="none" xmlns="http://www.w3.org/2000/svg"><path fill-rule="evenodd" clip-rule="evenodd" d="M82.83 209.669c37.464 0 67.831-30.374 67.831-67.83 0-37.464-30.375-67.83-67.83-67.83-37.464 0-67.831 30.374-67.831 67.83-.008 37.456 30.367 67.83 67.83 67.83zm.158-55.612c-19.431-9.861-31.856-24.668-36.943-41.94 4.367-5.798 9.877-10.637 16.263-14.103-1.456 20.787 9.09 40.202 25.808 53.04l-.273.149c-1.447.769-3.49 1.853-4.855 2.854zm23.567-20.92c2.25-10.795-2.532-23.898-5.361-28.291 13.939 7.197 33.419 27.571 24.328 45.894-6.022 12.143-17.23 16.759-23.782 19.455-1.34.555-2.49 1.026-3.35 1.464-5.104 2.59-15.088 9.91-11.382 21.202-10.671-3.673-14.27-12.557-10.77-20.581 3.383-7.792 8.644-11.688 13.905-15.585 6.783-5.029 13.591-10.075 16.412-23.558zm-30.177 26.404c-15.394-1.654-28.952-7.974-38.828-17.628 1.1 4.426 2.936 8.752 5.029 12.814 10.108 4.996 20.754 7.014 32.526 6.187.19-.165.372-.389.562-.612.223-.265.455-.538.711-.761zm-3.01 3.499c-9.728 1.994-18.993.877-27.828-3.003.654.852 1.224 1.63 1.779 2.374 1.025 1.398 1.968 2.689 3.25 4.169 7.553 1.034 14.733.935 21.55-1.836.206-.223.537-.695.818-1.108.166-.24.323-.464.43-.596zm-18.762 7.999c.72.753 1.465 1.53 2.523 2.2 4.26-.157 9.397-1.216 12.557-4.144l.844-1.811c-5.054 2.307-11.333 3.441-16.95 2.721.356.323.696.678 1.026 1.034zM39.03 109.322s-.025 0-.025.024l.025-.024zm41.815 46.339c-.637.464-1.687 1.291-2.167 1.787-17.793-3.003-32.476-11.721-42.072-24.096a51.773 51.773 0 015.104-14.493c6.105 16.04 19.886 29.242 39.135 36.802z" fill="#1A317F"/><path d="M377.074 152.286c-1.025 0-1.786-.256-2.432-.645-.512-.389-.769-1.026-.769-1.927h1.53c0 .389.133.769.381 1.025.256.257.637.389 1.15.389.513 0 .893-.124 1.15-.389.256-.256.38-.512.512-1.025h1.531c0 .769-.257 1.414-.894 1.927-.372.389-1.133.645-2.159.645zm-5.501.77h2.3v8.718l6.651-8.718h2.175v12.317H380.4v-8.719l-6.651 8.719h-2.176v-12.317zm-14.442 0h2.299v8.718l6.651-8.718h2.175v12.317h-2.299v-8.719l-6.651 8.719h-2.175v-12.317zm-7.677 7.188h-2.3v5.129h-2.299v-12.317h2.299v5.128h2.3l3.582-5.128h2.432l-4.219 5.898 4.351 6.286h-2.556l-3.59-4.996zm-11.506 5.385c-1.282 0-2.3-.256-3.326-.769a5.017 5.017 0 01-2.299-2.308c-.513-.902-.894-2.052-.894-3.21s.257-2.308.894-3.209c.513-.902 1.406-1.671 2.299-2.308a7.46 7.46 0 013.326-.769c1.025 0 1.919.124 2.812.513.77.38 1.539.893 2.043 1.538l-1.53 1.406c-.893-.893-1.919-1.406-3.325-1.406-.894 0-1.531.124-2.3.513-.637.38-1.15.893-1.53 1.539-.381.645-.513 1.414-.513 2.183 0 .77.132 1.539.513 2.184.38.637.893 1.15 1.53 1.539.637.38 1.406.513 2.3.513 1.282 0 2.432-.513 3.325-1.415l1.53 1.415c-.512.645-1.282 1.158-2.175 1.538-.761.257-1.655.513-2.68.513zm-10.613-6.667c.769.256 1.282.645 1.786 1.158.381.513.637 1.158.637 1.795 0 .769-.256 1.414-.769 1.927-.513.513-1.15 1.026-1.919 1.283-.769.256-1.663.388-2.556.388a8.043 8.043 0 01-2.432-.388c-.769-.257-1.539-.513-2.3-1.026l.77-1.671c.513.389 1.149.645 1.786.901.637.257 1.283.257 1.92.257.893 0 1.662-.132 2.299-.513.637-.389.894-.902.894-1.539 0-.512-.257-.901-.637-1.282-.381-.256-1.026-.38-1.787-.38h-2.813v-1.795h2.689c.637 0 1.15-.124 1.53-.389.381-.256.637-.645.637-1.158 0-.513-.256-1.026-.769-1.282-.513-.257-1.15-.513-2.043-.513-.513 0-1.15.124-1.663.256-.637.133-1.15.389-1.663.646l-.769-1.796a5.678 5.678 0 012.043-.769c.769-.132 1.406-.256 2.176-.256.893 0 1.786.124 2.556.389.769.256 1.406.636 1.786 1.149.513.513.637 1.158.637 1.795 0 .646-.132 1.158-.512 1.539-.489.761-1.001 1.017-1.514 1.274zm-12.656 1.795l-2.3-5.385-2.3 5.385h4.6zm.769 1.795h-6.138l-1.15 2.821h-2.299l5.5-12.317h2.3l5.501 12.317h-2.432l-1.282-2.821zm-15.725-2.308h-2.3v5.129h-2.3v-12.317h2.3v5.128h2.3l3.582-5.128h2.431l-4.218 5.898 4.343 6.286h-2.556l-3.582-4.996zm-11.763 3.466c1.663 0 2.432-.645 2.432-1.795 0-1.158-.769-1.795-2.432-1.795h-3.449v3.59h3.449zm-3.582-5.393h3.069c.769 0 1.282-.133 1.663-.389.38-.257.637-.769.637-1.282s-.257-1.026-.637-1.282a2.83 2.83 0 00-1.663-.513h-3.069v3.466zm5.882.645c.769.256 1.406.513 1.786 1.026.381.512.637 1.158.637 1.919 0 1.025-.38 1.927-1.15 2.564-.769.645-1.919.902-3.449.902h-5.881v-12.317h5.5c1.407 0 2.432.256 3.194.769.769.513 1.149 1.282 1.149 2.308 0 .645-.124 1.158-.513 1.671-.256.645-.761.901-1.273 1.158zm-14.319 1.795l-2.3-5.385-2.3 5.385h4.6zm.761 1.795h-6.138l-1.15 2.821h-2.3l5.501-12.317h2.3l5.501 12.317h-2.432l-1.282-2.821zm-15.725-2.308h-2.3v5.129h-2.3v-12.317h2.3v5.128h2.3l3.581-5.128h2.432l-4.218 5.898 4.351 6.286h-2.556l-3.59-4.996zm-12.02-.645h4.856v1.795h-4.856v-1.795zm-8.437 3.979c.769 0 1.53-.133 2.175-.513a4.474 4.474 0 001.531-1.539c.38-.645.513-1.414.513-2.184 0-.769-.124-1.538-.513-2.183a4.325 4.325 0 00-1.531-1.539c-.636-.389-1.406-.513-2.175-.513-.769 0-1.53.124-2.176.513a4.41 4.41 0 00-1.538 1.539c-.381.645-.513 1.414-.513 2.183 0 .77.132 1.539.513 2.184.38.637.893 1.15 1.538 1.539.646.38 1.415.513 2.176.513zm0 2.051c-1.282 0-2.432-.256-3.325-.769a5.014 5.014 0 01-2.3-2.308c-.513-1.026-.893-2.052-.893-3.21s.256-2.308.893-3.209c.513-1.026 1.406-1.671 2.3-2.308a7.452 7.452 0 013.325-.769c1.282 0 2.432.256 3.325.769a5.014 5.014 0 012.3 2.308c.513.893.893 2.051.893 3.209s-.256 2.308-.893 3.21c-.513.893-1.406 1.671-2.3 2.308-.893.513-2.043.769-3.325.769zm-13.293-5.641c1.026 0 1.787-.257 2.299-.646.513-.388.77-1.025.77-1.795 0-.769-.257-1.414-.77-1.795-.512-.388-1.282-.645-2.299-.645h-2.689v4.872h2.689v.009zm.124-6.932c1.026 0 2.043.124 2.812.513.77.38 1.407.893 1.787 1.538a4.46 4.46 0 01.637 2.308c0 .902-.256 1.671-.637 2.308-.38.645-1.026 1.158-1.787 1.538-.769.389-1.662.513-2.812.513h-2.813v3.59h-2.299v-12.317h5.112v.009zm-7.668 10.389v1.928h-9.207v-12.317h8.95v1.927h-6.65v3.21h5.881v1.927h-5.881v3.334h6.907v-.009zm-16.495.265c1.663 0 2.432-.645 2.432-1.795 0-1.158-.769-1.795-2.432-1.795h-3.449v3.59h3.449zm-3.457-5.393h3.069c.769 0 1.282-.133 1.662-.389.381-.257.637-.769.637-1.282s-.256-1.026-.637-1.282a2.823 2.823 0 00-1.662-.513h-3.069v3.466zm5.757.645c.769.256 1.406.513 1.787 1.026a3.18 3.18 0 01.637 1.919c0 1.025-.381 1.927-1.15 2.564-.769.645-1.919.902-3.45.902h-5.881v-12.317h5.501c1.406 0 2.432.256 3.193.769.769.513 1.15 1.282 1.15 2.308 0 .645-.124 1.158-.513 1.671-.124.645-.637.901-1.274 1.158zm-10.613 4.483v1.928h-9.207v-12.317h8.951v1.927h-6.651v3.21h6.014v1.927H188.1v3.334h6.775v-.009zm-16.106 2.184c-1.282 0-2.299-.256-3.325-.769a5.014 5.014 0 01-2.3-2.308c-.513-1.026-.893-2.052-.893-3.21s.256-2.308.893-3.209c.513-.902 1.407-1.671 2.3-2.308a7.458 7.458 0 013.325-.769c1.026 0 1.919.124 2.813.513.769.38 1.538.893 2.043 1.538l-1.53 1.406c-.894-.893-1.919-1.406-3.326-1.406-.893 0-1.538.124-2.299.513-.637.38-1.15.893-1.531 1.539-.38.645-.512 1.414-.512 2.183 0 .77.132 1.539.512 2.184.381.637.894 1.15 1.531 1.539.637.38 1.406.513 2.299.513 1.282 0 2.432-.513 3.326-1.415l1.53 1.415c-.513.645-1.282 1.158-2.176 1.538-.769.257-1.662.513-2.68.513zm131.691 32.716h-3.962v10.39h-2.3v-10.39h-4.095v-1.927h10.357v1.927zm-11.382 8.462v1.928h-9.207v-12.317h8.95v1.927h-6.651v3.209h5.882v1.928h-5.882v3.333h6.908v-.008zm-11.118-8.462h-4.095v10.39h-2.299v-10.39h-4.095v-1.927h10.357v1.927h.132zm-23.277-1.927h2.299v8.718l6.651-8.718h2.175v12.317h-2.299v-8.719l-6.651 8.719h-2.175v-12.317zm-7.032 12.441c-1.282 0-2.299-.257-3.325-.77a4.977 4.977 0 01-2.3-2.308c-.513-.901-.893-2.051-.893-3.209s.256-2.308.893-3.21c.513-.901 1.407-1.671 2.3-2.308a7.44 7.44 0 013.325-.769c1.026 0 1.919.133 2.813.513.769.389 1.53.902 2.043 1.539l-1.53 1.414c-.894-.902-1.919-1.414-3.326-1.414-.893 0-1.538.124-2.299.512a4.474 4.474 0 00-1.531 1.539c-.38.645-.513 1.415-.513 2.184 0 .769.125 1.539.513 2.184a4.33 4.33 0 001.531 1.538c.645.381 1.406.513 2.299.513 1.274 0 2.432-.513 3.326-1.414l1.53 1.414c-.513.645-1.274 1.158-2.176 1.539-.761.389-1.654.513-2.68.513zm-13.293-5.642c1.026 0 1.787-.256 2.3-.645.513-.389.769-1.026.769-1.795 0-.769-.256-1.415-.769-1.795-.513-.389-1.282-.645-2.3-.645h-2.688v4.872h2.688v.008zm.124-6.799c1.026 0 2.043.124 2.813.512.769.389 1.406.902 1.795 1.539a4.49 4.49 0 01.637 2.308c0 .902-.257 1.671-.637 2.308-.389.645-1.026 1.158-1.795 1.538-.77.389-1.663.513-2.813.513h-2.812v3.59h-2.3v-12.317h5.112v.009zm-7.668 10.389v1.928h-9.207v-12.317h8.951v1.927h-6.651v3.209h5.881v1.928h-5.881v3.333h6.907v-.008zm-16.494.124c1.662 0 2.432-.645 2.432-1.795 0-1.158-.77-1.795-2.432-1.795h-3.45v3.59h3.45zm-3.45-5.252h3.069c.769 0 1.274-.133 1.663-.389.38-.257.637-.77.637-1.282 0-.513-.133-1.026-.637-1.283-.389-.256-.894-.388-1.663-.388h-3.069v3.342zm5.749.636c.77.257 1.407.513 1.795 1.026.381.513.637 1.158.637 1.928 0 1.025-.38 1.927-1.15 2.564-.769.645-1.919.902-3.449.902h-5.757v-12.317h5.501c1.406 0 2.432.256 3.193.769.769.513 1.149 1.282 1.149 2.308 0 .645-.124 1.158-.512 1.671-.381.513-.761.893-1.407 1.149zm-22.375-5.897h2.299v8.718l6.651-8.718h2.175v12.317h-2.299v-8.719l-6.651 8.719h-2.175v-12.317zm-3.45 0v12.317h-2.3v-5.261H188.1v5.261h-2.299v-12.317h2.299v5.128h6.394v-5.128h2.3zm-12.532 0l-5.369 9.876c-.512.902-1.025 1.539-1.662 1.928-.637.388-1.406.645-2.176.645-.637 0-1.15-.132-1.795-.381l.513-1.795c.513.133.893.257 1.15.257.769 0 1.282-.389 1.795-1.158l.256-.257-4.855-9.231h2.432l3.581 7.18 3.706-7.18h2.432v.116h-.008zm132.592-22.451c-1.026 0-1.787-.256-2.432-.645-.513-.389-.769-1.026-.769-1.927h1.53c0 .388.124.769.381 1.025.256.257.637.389 1.149.389.513 0 .894-.132 1.15-.389.257-.256.381-.512.381-1.025h1.538c0 .769-.256 1.414-.893 1.927-.116.389-.885.645-2.035.645zm-5.368.77h2.299v8.718l6.651-8.718h2.175v12.317h-2.299v-8.727l-6.651 8.727h-2.175v-12.317zm-5.758 0h2.3v12.317h-2.3v-12.317zm-6.775 10.513c.894 0 1.531-.256 2.044-.645.512-.389.769-1.026.769-1.795 0-1.539-.893-2.184-2.813-2.184h-2.944v4.616h2.944v.008zm.513-6.286c1.539 0 2.556.38 3.45 1.025.769.637 1.15 1.671 1.15 2.953 0 1.415-.381 2.441-1.283 3.078-.893.769-2.043 1.025-3.706 1.025h-5.368v-12.317h2.3v4.103h3.449v.133h.008zm-9.206-4.227v12.317h-2.3v-5.261h-6.394v5.261h-2.3v-12.317h2.3v5.128h6.394v-5.128h2.3zm-18.158 10.513c.894 0 1.531-.256 2.044-.645.513-.389.769-1.026.769-1.795 0-1.539-.893-2.184-2.813-2.184h-2.944v4.616h2.944v.008zm.381-6.286c1.53 0 2.556.38 3.449 1.025.77.637 1.15 1.671 1.15 2.953 0 1.415-.38 2.441-1.282 3.078-.893.769-2.043 1.025-3.706 1.025h-5.244v-12.317h2.299v4.103h3.326v.133h.008zm-9.074-4.227v12.317h-2.3v-10.398h-4.856l-.132 3.077c0 1.671-.257 3.077-.381 4.235-.256 1.026-.637 1.927-1.025 2.44-.513.513-1.15.902-2.044.902-.256 0-.769 0-1.282-.124l.124-1.927c.133 0 .381.132.513.132.77 0 1.282-.389 1.531-1.282.256-.902.512-2.184.512-3.979l.125-5.129h9.206v-.264h.009zm-16.751 7.693l-2.3-5.386-2.3 5.386h4.6zm.637 1.795h-6.138l-1.15 2.82h-2.3l5.501-12.317h2.3l5.501 12.317h-2.432l-1.282-2.82zm-14.956-2.689c1.026 0 1.787-.256 2.299-.645.513-.381.77-1.026.77-1.795 0-.769-.257-1.415-.77-1.795-.512-.389-1.282-.645-2.299-.645h-2.689v4.872h2.689v.008zm.124-6.799c1.026 0 2.043.124 2.812.512.77.389 1.407.902 1.787 1.539.381.637.637 1.415.637 2.308 0 .902-.256 1.671-.637 2.308-.38.637-1.026 1.158-1.787 1.538-.769.389-1.662.513-2.812.513h-2.813v3.59h-2.299v-12.317h5.112v.009zm-7.544 10.389v1.928h-9.207v-12.317h8.95v1.927h-6.65v3.209h5.881v1.928h-5.881v3.333h6.907v-.008zm-20.324-6.287c0 1.539-.125 2.954-.381 3.979-.256 1.026-.513 1.795-.893 2.308h6.262v-8.47h-4.856l-.132 2.183zm8.95 6.287v4.492h-2.043v-2.564h-9.464v2.564h-2.175v-4.492h.513c.769 0 1.282-.645 1.662-1.671.257-1.158.513-2.696.513-4.748l.124-3.846h8.951v10.389h1.919v-.124zm-14.708 0v1.928h-9.207v-12.317h8.951v1.927h-6.651v3.209h5.881v1.928h-5.881v3.333h6.907v-.008zm-24.419-4.235c0 1.026.381 1.927 1.15 2.44.769.513 1.787.902 3.193 1.026v-7.18c-2.937.38-4.343 1.53-4.343 3.714zm6.394 3.59c1.407-.132 2.432-.513 3.202-1.026.769-.645 1.025-1.414 1.025-2.564 0-1.026-.38-1.927-1.149-2.564-.77-.637-1.787-.902-3.193-1.026v7.18h.115zm6.395-3.59c0 1.671-.513 2.953-1.663 3.846-1.15.902-2.688 1.415-4.732 1.539v1.282h-2.175v-1.282c-2.043-.124-3.706-.637-4.732-1.539-1.149-.901-1.662-2.183-1.662-3.846 0-1.671.513-2.953 1.662-3.847 1.15-.901 2.689-1.414 4.732-1.538v-1.282h2.043v1.282c2.043.132 3.706.645 4.732 1.538 1.282.894 1.795 2.176 1.795 3.847z" fill="#1A317F"/><path fill-rule="evenodd" clip-rule="evenodd" d="M198.043 136.743c8.62 0 17.239-4.235 22.351-9.628l-5.699-10.067c-2.78 4.086-8.181 8.462-15.775 8.9-12.119.728-21.764-8.9-21.764-20.572 0-20.134 25.561-27.869 37.1-12.26l5.551-9.918c-4.963-5.103-12.855-9.19-21.325-9.19-17.818 0-32.137 13.566-32.137 31.368 0 17.793 14.021 31.367 31.698 31.367z" fill="#1A317F"/><path d="M266.419 134.99h12.557l-18.405-32.104L277.223 74h-12.557l-14.898 25.974-10.812-.149L238.807 74h-11.829v60.99h11.978v-24.51l13.434-.149 14.029 24.659z" fill="#1A317F"/><path d="M287.736 104.788c0-12.4 7.445-19.116 22.054-20.282v40.565c-14.021-1.315-22.054-7.883-22.054-20.283zm33.014 20.283V84.505c14.311 1.167 22.202 7.884 22.202 20.135 0 12.399-7.742 19.265-22.202 20.431zm33.444-20.283c0-18.388-12.119-29.324-33.593-30.498h-10.952c-21.474 1.166-33.593 12.11-33.593 30.498 0 18.381 12.119 29.184 33.593 30.35h10.952c21.615-.876 33.593-11.969 33.593-30.35zm44.363-30.498c-5.989 11.233-11.101 21.3-17.818 32.682L363.07 74.29h-12.127l23.658 43.626c-2.631 3.938-5.551 7.875-10.812 7.875-1.166 0-2.341-.149-3.507-.438l5.402 9.777c7.014 0 13.144-2.63 18.545-12.4l26.587-48.44h-12.259z" fill="#1A317F"/><path opacity=".26" fill="#D9D9D9" d="M0 0h426v284H0z"/></svg>