<svg aria-hidden="true" style="position:absolute;width:0;height:0" xmlns="http://www.w3.org/2000/svg" overflow="hidden">
  <defs>
    <symbol id="i-geo-f" viewBox="0 0 32 32" fill="none" xmlns="http://www.w3.org/2000/svg">
      <rect width="32" height="32" rx="16" fill="#2D3140"/>
      <g clip-path="url(#clip0_15_187)">
      <path d="M22 14.6667C22 19.3333 16 23.3333 16 23.3333C16 23.3333 10 19.3333 10 14.6667C10 13.0754 10.6321 11.5492 11.7574 10.424C12.8826 9.29881 14.4087 8.66667 16 8.66667C17.5913 8.66667 19.1174 9.29881 20.2426 10.424C21.3679 11.5492 22 13.0754 22 14.6667Z" stroke="white" stroke-width="1.5" stroke-linecap="round" stroke-linejoin="round"/>
      <path d="M16 16.6667C17.1046 16.6667 18 15.7712 18 14.6667C18 13.5621 17.1046 12.6667 16 12.6667C14.8954 12.6667 14 13.5621 14 14.6667C14 15.7712 14.8954 16.6667 16 16.6667Z" stroke="white" stroke-width="1.5" stroke-linecap="round" stroke-linejoin="round"/>
      </g>
      <defs>
      <clipPath id="clip0_15_187">
      <rect width="16" height="16" fill="white" transform="translate(8 8)"/>
      </clipPath>
      </defs>
    </symbol>

    <symbol id="i-phone-f" viewBox="0 0 32 32" fill="none" xmlns="http://www.w3.org/2000/svg">
      <rect width="32" height="32" rx="16" fill="#2D3140"/>
      <g clip-path="url(#clip0_15_195)">
      <path d="M18.0333 11.3333C18.6845 11.4604 19.2829 11.7788 19.752 12.248C20.2211 12.7171 20.5396 13.3155 20.6666 13.9667M18.0333 8.66667C19.3862 8.81696 20.6477 9.42278 21.6108 10.3847C22.5739 11.3466 23.1813 12.6073 23.3333 13.96M22.6666 19.28V21.28C22.6674 21.4657 22.6294 21.6494 22.555 21.8196C22.4806 21.9897 22.3715 22.1424 22.2347 22.2679C22.0979 22.3934 21.9364 22.489 21.7605 22.5485C21.5846 22.608 21.3982 22.63 21.2133 22.6133C19.1619 22.3904 17.1913 21.6894 15.46 20.5667C13.8492 19.5431 12.4835 18.1774 11.46 16.5667C10.3333 14.8275 9.63214 12.8473 9.41331 10.7867C9.39665 10.6023 9.41856 10.4165 9.47764 10.2411C9.53673 10.0657 9.63169 9.90446 9.75649 9.76775C9.88128 9.63104 10.0332 9.52181 10.2025 9.44701C10.3718 9.37222 10.5549 9.33351 10.74 9.33333H12.74C13.0635 9.33015 13.3772 9.44472 13.6225 9.65569C13.8678 9.86666 14.028 10.1596 14.0733 10.48C14.1577 11.12 14.3143 11.7485 14.54 12.3533C14.6297 12.5919 14.6491 12.8513 14.5959 13.1006C14.5427 13.3499 14.4192 13.5787 14.24 13.76L13.3933 14.6067C14.3423 16.2757 15.7243 17.6576 17.3933 18.6067L18.24 17.76C18.4212 17.5808 18.6501 17.4572 18.8994 17.4041C19.1487 17.3509 19.408 17.3703 19.6466 17.46C20.2515 17.6857 20.8799 17.8423 21.52 17.9267C21.8438 17.9724 22.1396 18.1355 22.351 18.385C22.5624 18.6345 22.6748 18.953 22.6666 19.28Z" stroke="white" stroke-width="1.5" stroke-linecap="round" stroke-linejoin="round"/>
      </g>
      <defs>
      <clipPath id="clip0_15_195">
      <rect width="16" height="16" fill="white" transform="translate(8 8)"/>
      </clipPath>
      </defs>
    </symbol>

    <symbol id="i-link-f" viewBox="0 0 32 32" fill="none" xmlns="http://www.w3.org/2000/svg">
      <rect width="32" height="32" rx="16" fill="#2D3140"/>
      <g clip-path="url(#clip0_15_240)">
      <path d="M15.3333 14.6667C14.9506 14.953 14.6339 15.3182 14.4047 15.7377C14.1755 16.1572 14.0393 16.621 14.0051 17.0978C13.971 17.5745 14.0398 18.0531 14.2068 18.5009C14.3739 18.9487 14.6353 19.3554 14.9733 19.6933L16.9733 21.6933C17.602 22.3005 18.444 22.6365 19.318 22.6289C20.192 22.6213 21.028 22.2708 21.6461 21.6527C22.2641 21.0347 22.6147 20.1987 22.6222 19.3247C22.6298 18.4507 22.2939 17.6087 21.6867 16.98L20.5467 15.8333" stroke="white" stroke-width="1.5" stroke-linecap="round" stroke-linejoin="round"/>
      <path d="M16.6667 17.3333C17.0494 17.047 17.3661 16.6818 17.5953 16.2623C17.8245 15.8428 17.9607 15.379 17.9949 14.9022C18.029 14.4255 17.9602 13.9469 17.7932 13.4991C17.6261 13.0513 17.3647 12.6446 17.0267 12.3067L15.0267 10.3067C14.398 9.69947 13.556 9.36349 12.682 9.37109C11.808 9.37868 10.972 9.72924 10.3539 10.3473C9.73591 10.9653 9.38534 11.8013 9.37775 12.6753C9.37016 13.5493 9.70614 14.3913 10.3133 15.02L11.4533 16.16" stroke="white" stroke-width="1.5" stroke-linecap="round" stroke-linejoin="round"/>
      </g>
      <defs>
      <clipPath id="clip0_15_240">
      <rect width="16" height="16" fill="white" transform="translate(24 8) rotate(90)"/>
      </clipPath>
      </defs>
    </symbol>

    <symbol id="i-prioritet" viewBox="0 0 32 32" fill="none" xmlns="http://www.w3.org/2000/svg">
      <rect width="32" height="32" rx="8" fill="#FFEFEF"/><path fill-rule="evenodd" clip-rule="evenodd" d="M10.398 20l4.218-7.968.017-.032h2.734l.017.032L21.602 20H19.34L16 13.693 12.66 20h-2.262z" fill="#EA0029"/>
    </symbol>

    <symbol id="i-invite" viewBox="0 0 32 32" fill="none" xmlns="http://www.w3.org/2000/svg">
      <rect width="32" height="32" rx="8" fill="#ECF0FF"/><path d="M16 13.28v8.053m4.444-8.052v8.052m-8.888-8.052v8.052m4.842-13.239l6.9 3.474c.84.422.541 1.695-.397 1.695H9.1c-.938 0-1.237-1.273-.398-1.695l6.901-3.474a.884.884 0 01.796 0zM22.666 24H9.333a1.333 1.333 0 010-2.667h13.334a1.333 1.333 0 010 2.667z" stroke="#276DF4" stroke-width="1.25" stroke-linecap="round" stroke-linejoin="round"/>
    </symbol>

    <symbol id="i-tel" viewBox="0 0 32 32" fill="none" xmlns="http://www.w3.org/2000/svg">
      <rect width="32" height="32" rx="8" fill="#F0FFEC"/><g clip-path="url(#clip0_1_11)"><path d="M23.5 19.69v2.25a1.5 1.5 0 01-1.635 1.5 14.843 14.843 0 01-6.472-2.303 14.626 14.626 0 01-4.5-4.5 14.843 14.843 0 01-2.303-6.502A1.5 1.5 0 0110.082 8.5h2.25a1.5 1.5 0 011.5 1.29c.095.72.272 1.427.525 2.108a1.5 1.5 0 01-.337 1.582l-.952.952a12 12 0 004.5 4.5l.952-.952a1.5 1.5 0 011.582-.338c.681.254 1.388.43 2.108.526a1.5 1.5 0 011.29 1.522z" stroke="#6ED14F" stroke-width="1.25" stroke-linecap="round" stroke-linejoin="round"/></g><defs><clipPath id="clip0_1_11"><path fill="#fff" transform="translate(7 7)" d="M0 0h18v18H0z"/></clipPath></defs>
    </symbol>
    <symbol id="i-info" viewBox="0 0 24 24" fill="none" xmlns="http://www.w3.org/2000/svg">
      <path d="M12 22c5.523 0 10-4.477 10-10S17.523 2 12 2 2 6.477 2 12s4.477 10 10 10zm0-6v-4m0-4h.01" stroke="#A4A6AC" stroke-opacity=".7" stroke-width="2" stroke-linecap="round" stroke-linejoin="round"/>
    </symbol>
    <symbol id="i-arrow-r" viewBox="0 0 20 20" fill="none" xmlns="http://www.w3.org/2000/svg">
      <g clip-path="url(#clip0_148_649)" stroke="#fff" stroke-width="1.5" stroke-linecap="round" stroke-linejoin="round"><path d="M10 18.333a8.333 8.333 0 100-16.666 8.333 8.333 0 000 16.666z"/><path d="M10 13.333L13.333 10 10 6.667M6.667 10h6.666"/></g><defs><clipPath id="clip0_148_649"><path fill="#fff" d="M0 0h20v20H0z"/></clipPath></defs>
    </symbol>
    <symbol id="i-innov" viewBox="0 0 24 24" fill="none" xmlns="http://www.w3.org/2000/svg"><g clip-path="url(#clip0_1_56)" fill="#0128D2"><path d="M22.563 1.437C20.189-.937 16.643-.358 12 3.137 7.357-.358 3.813-.938 1.437 1.437-.94 3.812-.358 7.357 3.137 12c-3.495 4.643-4.075 8.188-1.7 10.563A4.702 4.702 0 004.879 24c1.97 0 4.35-1.052 7.12-3.136C14.77 22.948 17.15 24 19.122 24a4.701 4.701 0 003.442-1.437c2.375-2.375 1.8-5.919-1.7-10.563 3.495-4.644 4.075-8.188 1.7-10.563zm-3.478.591a2.806 2.806 0 012.067.82c1.746 1.746.456 4.712-1.588 7.538a51.613 51.613 0 00-2.858-3.092 51.378 51.378 0 00-3.094-2.86c1.898-1.373 3.86-2.406 5.473-2.406zM18.31 12a50.122 50.122 0 01-3.016 3.3c-.934.94-2.075 2-3.295 3.011a50.083 50.083 0 01-3.295-3.01A47.695 47.695 0 015.689 12a48.486 48.486 0 013.016-3.296A49.256 49.256 0 0112 5.688 49.844 49.844 0 0118.31 12zM2.848 2.848a2.8 2.8 0 012.067-.82c1.613 0 3.575 1.033 5.473 2.406a52.002 52.002 0 00-3.094 2.86 50.138 50.138 0 00-2.86 3.092C2.393 7.56 1.1 4.594 2.849 2.848zm0 18.3c-1.746-1.746-.456-4.713 1.587-7.538a51.979 51.979 0 002.859 3.092 50.791 50.791 0 003.089 2.861c-2.825 2.046-5.791 3.337-7.535 1.59v-.005zm18.3 0c-1.745 1.744-4.71.457-7.535-1.585a52.383 52.383 0 003.089-2.86 49.865 49.865 0 002.858-3.093c2.048 2.83 3.34 5.796 1.592 7.542l-.004-.004z"/><path d="M12 14a2 2 0 100-4 2 2 0 000 4z"/></g><defs><clipPath id="clip0_1_56"><path fill="#fff" d="M0 0h24v24H0z"/></clipPath></defs></symbol><symbol id="i-international" viewBox="0 0 24 24" fill="none" xmlns="http://www.w3.org/2000/svg"><g clip-path="url(#clip0_1_37)"><path d="M21.736 16.4A5.009 5.009 0 0017 13h-4v-1.084a6 6 0 10-2 0V13H7a5.01 5.01 0 00-4.736 3.4 4 4 0 102.447-.334A3.001 3.001 0 017 15h4v1.127a4 4 0 102 0V15h4a3 3 0 012.289 1.063 4 4 0 102.447.334v.003zM8 6a4 4 0 118 0 4 4 0 01-8 0zM6 20a2 2 0 11-4 0 2 2 0 014 0zm8 0a2 2 0 11-4 0 2 2 0 014 0zm6 2a2 2 0 110-4 2 2 0 010 4z" fill="#0128D2"/></g><defs><clipPath id="clip0_1_37"><path fill="#fff" d="M0 0h24v24H0z"/></clipPath></defs></symbol><symbol id="i-work" viewBox="0 0 24 24" fill="none" xmlns="http://www.w3.org/2000/svg"><g clip-path="url(#clip0_1_41)"><path d="M19 4h-1.1A5.01 5.01 0 0013 0h-2a5.009 5.009 0 00-4.9 4H5a5.006 5.006 0 00-5 5v10a5.006 5.006 0 005 5h14a5.006 5.006 0 005-5V9a5.006 5.006 0 00-5-5zm-8-2h2a3 3 0 012.816 2H8.184A3 3 0 0111 2zM5 6h14a3 3 0 013 3v3H2V9a3 3 0 013-3zm14 16H5a3 3 0 01-3-3v-5h9v1a1 1 0 002 0v-1h9v5a3 3 0 01-3 3z" fill="#0128D2"/></g><defs><clipPath id="clip0_1_41"><path fill="#fff" d="M0 0h24v24H0z"/></clipPath></defs></symbol><symbol id="i-school" viewBox="0 0 24 24" fill="none" xmlns="http://www.w3.org/2000/svg"><g clip-path="url(#clip0_1_27)" fill="#0128D2"><path d="M12 12a6 6 0 10-6-6 6.006 6.006 0 006 6zm0-10a4 4 0 110 8 4 4 0 010-8zm0 12a9.01 9.01 0 00-9 9 1 1 0 102 0 7 7 0 1114 0 1 1 0 102 0 9.01 9.01 0 00-9-9z"/></g><defs><clipPath id="clip0_1_27"><path fill="#fff" d="M0 0h24v24H0z"/></clipPath></defs></symbol><symbol id="i-education" viewBox="0 0 24 24" fill="none" xmlns="http://www.w3.org/2000/svg"><g clip-path="url(#clip0_1_15)"><path d="M11 12a1 1 0 110 2H8a1 1 0 010-2h3zm6-3a1 1 0 00-1-1H8a1 1 0 000 2h8a1 1 0 001-1zM8 6h8a1 1 0 100-2H8a1 1 0 000 2zm12 13.444v3.833a.72.72 0 01-1.231.51L18 23.019l-.769.768a.721.721 0 01-1.231-.51v-3.833A3.987 3.987 0 0118 12c.338.004.674.052 1 .142V5a3 3 0 00-3-3H8a3 3 0 00-3 3v12a3 3 0 003 3h5a1 1 0 110 2H8a5.006 5.006 0 01-5-5V5a5.006 5.006 0 015-5h8a5.006 5.006 0 015 5v8.382a3.95 3.95 0 01-1 6.062zM20 16a2 2 0 10-4 0 2 2 0 004 0z" fill="#0128D2"/></g><defs><clipPath id="clip0_1_15"><path fill="#fff" d="M0 0h24v24H0z"/></clipPath></defs></symbol><symbol id="i-science" viewBox="0 0 24 24" fill="none" xmlns="http://www.w3.org/2000/svg"><g clip-path="url(#clip0_1_11)"><path d="M20 12a3.995 3.995 0 00-3.172 1.566l-.07-.03A5.001 5.001 0 0010.75 7.16l-.09-.172a3.995 3.995 0 10-1.78.913l.073.137a4.992 4.992 0 00-1.134 6.7L5.933 16.5a4 4 0 101.455 1.377l1.838-1.718a4.993 4.993 0 006.54-.87l.278.118A4 4 0 1020 12zM6 4a2 2 0 114 0 2 2 0 01-4 0zM4 22a2 2 0 110-4 2 2 0 010 4zm8-7a3 3 0 01-1.6-5.534l.407-.217A3 3 0 1112 15zm8 3a2 2 0 110-3.999 2 2 0 010 4z" fill="#0128D2"/></g><defs><clipPath id="clip0_1_11"><path fill="#fff" d="M0 0h24v24H0z"/></clipPath></defs></symbol><symbol id="i-stud" viewBox="0 0 24 24" fill="none" xmlns="http://www.w3.org/2000/svg"><g clip-path="url(#clip0_1_33)"><path d="M22.057 5.23l-7.374-3.513A5.226 5.226 0 009.4 1.672L1.943 5.23a3.691 3.691 0 000 6.5L4 12.71v4.9a5.007 5.007 0 003.519 4.778c1.456.421 2.965.627 4.48.612a15.56 15.56 0 004.482-.607A5.007 5.007 0 0020 17.615v-4.907l2-.956V20a1 1 0 102 0V8c.006-1.174-.92-2.26-1.943-2.77zM18 17.615a3 3 0 01-2.1 2.863A13.589 13.589 0 0112 21a13.59 13.59 0 01-3.9-.522A3 3 0 016 17.615v-3.952l3.317 1.58a5.272 5.272 0 002.705.739 5 5 0 002.577-.694l3.4-1.625v3.952zm3.2-7.69l-7.542 3.6a3.294 3.294 0 01-3.39-.045l-7.38-3.51a1.692 1.692 0 01-.036-2.958l7.495-3.58a3.3 3.3 0 013.39.045L21.11 6.99c.542.301.881.87.889 1.49a1.7 1.7 0 01-.8 1.445z" fill="#0128D2"/></g><defs><clipPath id="clip0_1_33"><path fill="#fff" d="M0 0h24v24H0z"/></clipPath></defs></symbol><symbol id="i-univer" viewBox="0 0 24 24" fill="none" xmlns="http://www.w3.org/2000/svg"><g clip-path="url(#clip0_0_3)"><path d="M7 14a1 1 0 01-1 1H5a1 1 0 010-2h1a1 1 0 011 1zm4-1h-1a1 1 0 000 2h1a1 1 0 000-2zm-5 4H5a1 1 0 000 2h1a1 1 0 000-2zm5 0h-1a1 1 0 000 2h1a1 1 0 000-2zM6 5H5a1 1 0 000 2h1a1 1 0 000-2zm5 0h-1a1 1 0 000 2h1a1 1 0 100-2zM6 9H5a1 1 0 000 2h1a1 1 0 000-2zm5 0h-1a1 1 0 000 2h1a1 1 0 000-2zm13 1v9a5.006 5.006 0 01-5 5H5a5.006 5.006 0 01-5-5V5a5.006 5.006 0 015-5h6a5.006 5.006 0 015 5h3a5.006 5.006 0 015 5zM5 22h9V5a3 3 0 00-3-3H5a3 3 0 00-3 3v14a3 3 0 003 3zm17-12a3 3 0 00-3-3h-3v15h3a3 3 0 003-3v-9zm-3 3a1 1 0 100 2 1 1 0 000-2zm0 4a1 1 0 100 2 1 1 0 000-2zm0-8a1 1 0 100 2 1 1 0 000-2z" fill="#0128D2"/></g><defs><clipPath id="clip0_0_3"><path fill="#fff" d="M0 0h24v24H0z"/></clipPath></defs></symbol><symbol id="i-enroll" viewBox="0 0 16 17" fill="none" xmlns="http://www.w3.org/2000/svg"><path d="M7.333 3.167H2.667A1.333 1.333 0 001.333 4.5v9.333a1.333 1.333 0 001.334 1.334H12a1.334 1.334 0 001.333-1.334V9.167" stroke="#fff" stroke-linecap="round" stroke-linejoin="round"/><path d="M12.333 2.167a1.414 1.414 0 112 2L8 10.5l-2.667.667L6 8.5l6.333-6.333z" stroke="#fff" stroke-linecap="round" stroke-linejoin="round"/></symbol><symbol id="i-arrow" viewBox="0 0 24 24" fill="none" xmlns="http://www.w3.org/2000/svg"><path d="M6 9l6 6 6-6" stroke="#8e95a2" stroke-width="1.5" stroke-linecap="round" stroke-linejoin="round"/></symbol><symbol id="i-faq" viewBox="0 0 24 24" fill="none" xmlns="http://www.w3.org/2000/svg"><g clip-path="url(#clip0_1_19)" fill="#19191D"><path d="M12 0a12 12 0 1012 12A12.013 12.013 0 0012 0zm0 22a10 10 0 1110-10 10.011 10.011 0 01-10 10z"/><path d="M12 10h-1a1 1 0 000 2h1v6a1 1 0 002 0v-6a2 2 0 00-2-2zm0-2a1.5 1.5 0 100-3 1.5 1.5 0 000 3z"/></g><defs><clipPath id="clip0_1_19"><path fill="#fff" d="M0 0h24v24H0z"/></clipPath></defs></symbol><symbol id="i-geo" viewBox="0 0 24 24" fill="none" xmlns="http://www.w3.org/2000/svg"><path d="M12.56 20.82a.964.964 0 01-1.12 0C6.611 17.378 1.486 10.298 6.667 5.182A7.592 7.592 0 0112 3c2 0 3.919.785 5.333 2.181 5.181 5.116.056 12.196-4.773 15.64z" stroke="#4b505e" stroke-width="1.5" stroke-linecap="round" stroke-linejoin="round"/><path d="M12 12a2 2 0 100-4 2 2 0 000 4z" stroke="#4b505e" stroke-width="1.5" stroke-linecap="round" stroke-linejoin="round"/></symbol><symbol id="i-blind" viewBox="0 0 32 32" fill="none" xmlns="http://www.w3.org/2000/svg"><rect width="32" height="32" rx="8" fill="#FFFAED"/><path d="M8.44 17.224c-.218-.298-.326-.447-.401-.736a1.968 1.968 0 010-.776c.075-.289.183-.438.4-.736C9.632 13.34 12.243 10.5 16 10.5s6.369 2.84 7.56 4.476c.218.298.327.447.401.736a1.95 1.95 0 010 .776c-.074.289-.183.438-.4.736C22.368 18.86 19.757 21.7 16 21.7s-6.369-2.84-7.56-4.476z" stroke="#F4BB27" stroke-width="1.5" stroke-linecap="round" stroke-linejoin="round"/><path d="M16 17.5a1.5 1.5 0 100-3 1.5 1.5 0 000 3z" stroke="#F4BB27" stroke-width="1.5" stroke-linecap="round" stroke-linejoin="round"/></symbol><symbol id="i-logo" viewBox="0 0 71 48"><path fill-rule="evenodd" clip-rule="evenodd" d="M24.818 47.997c1.828.003 3.638-.802 4.712-1.823l-1.196-1.9c-.572.765-1.718 1.607-3.346 1.686-2.565.124-4.606-1.674-4.606-3.872 0-3.785 5.403-5.248 7.855-2.31L29.42 37.9c-1.052-.975-2.72-1.726-4.52-1.72-3.775.01-6.8 2.544-6.8 5.908 0 3.365 2.994 5.901 6.718 5.91z"/><path d="M39.985 47.667h2.644l-3.879-6.045 3.517-5.437h-2.671l-3.136 4.887-2.297-.016-.018-4.871h-2.51l.018 11.482h2.51v-4.63l2.847-.006 2.975 4.636z"/><path d="M44.479 41.99c0-2.33 1.576-3.589 4.666-3.814v7.63c-2.975-.244-4.666-1.504-4.666-3.815zm6.972 3.815v-7.629c3.033.206 4.685 1.485 4.685 3.796 0 2.31-1.612 3.608-4.685 3.833zm7.085-3.814c0-3.457-2.555-5.524-7.085-5.75h-2.306c-4.532.226-7.106 2.274-7.106 5.75 0 3.457 2.574 5.505 7.106 5.73h2.306c4.533-.187 7.085-2.273 7.085-5.73zm9.908-5.752c-1.262 2.105-2.345 4.004-3.76 6.164l-3.745-6.164h-2.558l4.992 8.223c-.55.755-1.174 1.492-2.285 1.492-.237 0-.48-.03-.739-.08l1.135 1.833c1.478.014 2.78-.5 3.909-2.343l5.603-9.125h-2.552z"/><path fill-rule="evenodd" clip-rule="evenodd" d="M.636 23.291c3.03 3.273 7.194 5.416 11.919 5.977-.15.138-.271.339-.393.463-3.614.277-6.88-.409-9.984-2.1-.639-1.373-1.205-2.836-1.542-4.34z"/><path fill-rule="evenodd" clip-rule="evenodd" d="M13.924 27.951c-.198.16-.52.445-.67.607C7.721 27.526 3.167 24.511.22 20.222c-.22-2.704.06-5.375.867-7.987C2.2 19.119 6.876 24.898 13.925 27.951z"/><path fill-rule="evenodd" clip-rule="evenodd" d="M16.162 26.383c-.45.263-1.125.66-1.575 1.021C7.19 23.262 3.103 16.56 2.507 8.87 4.811 4.86 6.822 2.734 10.564 0 5.536 9.948 9 20.336 16.162 26.383z"/><path fill-rule="evenodd" clip-rule="evenodd" d="M21.885 4.79c5.661 3.221 13.558 12.343 9.868 20.558-2.944 6.554-8.947 8.206-11.015 9.371-2.069 1.165-6.118 4.438-4.618 9.499-4.332-1.65-5.795-5.62-4.375-9.217 3.158-8 10.286-6.825 12.312-17.537.912-4.83-1.022-10.699-2.172-12.674zM3.09 29.433c2.705 1.314 5.552 1.69 8.54 1.014-.089.122-.283.46-.378.58-2.096.942-4.295.97-6.616.622-.609-.772-.965-1.379-1.546-2.216zm2.462 3.373c1.728.25 3.65-.14 5.199-.92l-.256.612c-.973.988-2.552 1.349-3.857 1.403-.472-.333-.742-.748-1.086-1.095z"/></symbol><symbol id="i-lang" viewBox="0 0 24 24" fill="none" xmlns="http://www.w3.org/2000/svg"><path d="M12 21a9 9 0 100-18m0 18a9 9 0 110-18m0 18c2.761 0 3.941-5.163 3.941-9 0-3.837-1.18-9-3.941-9m0 18c-2.761 0-3.941-5.163-3.941-9 0-3.837 1.18-9 3.941-9M3.5 9h17m-17 6h17" stroke="#4b505e" stroke-width="1.5" stroke-linecap="round" stroke-linejoin="round"/></symbol><symbol id="i-search" viewBox="0 0 24 24" fill="none" xmlns="http://www.w3.org/2000/svg"><path d="M16.893 16.92l3.08 3.08m-.889-8.419c0 4.187-3.383 7.581-7.556 7.581-4.172 0-7.555-3.394-7.555-7.58C3.973 7.393 7.356 4 11.528 4c4.173 0 7.556 3.394 7.556 7.581z" stroke="#4b505e" stroke-width="1.5" stroke-linecap="round" stroke-linejoin="round"/></symbol><symbol id="i-logo-small" viewBox="0 0 35 35"><path d="M17.5 0C27.2 0 35 7.8 35 17.5S27.2 35 17.5 35 0 27.2 0 17.5 7.8 0 17.5 0z" fill="#0128d2"/><clipPath id="b"><path id="a" d="M4 5h26v27H4z" overflow="visible"/></clipPath><g clip-path="url(#b)" fill="#fff"><path d="M14.5 23.5c-2.8.6-5.4.3-7.9-.9.5.7.9 1.2 1.4 1.9 2.2.3 4.2.3 6.1-.5.1-.1.3-.4.4-.5zm.8-1c-4.4-.5-8.2-2.3-11.1-5 .3 1.3.8 2.5 1.4 3.6 2.9 1.4 5.9 2 9.3 1.8.2-.1.3-.3.4-.4zm7.1-15.6c.8 1.3 2.2 5 1.5 8.1-1.4 6.8-6.4 6.1-8.6 11.1-1 2.3 0 4.8 3.1 5.9-1.1-3.2 1.8-5.3 3.2-6 1.5-.7 5.7-1.8 7.7-6 2.6-5.2-2.9-11-6.9-13.1zM8.8 25.5c.3.3.6.6 1 .9 1.2 0 2.7-.3 3.6-1.2l.2-.5c-1.4.7-3.2 1-4.8.8z"/><path d="M6.7 9c1.4 4.9 5 9.1 10.5 11.9.4-.3 1-.6 1.5-.9-4.8-3.7-7.8-9.2-7.4-15.1C9.5 6 7.9 7.4 6.7 9zm-2-.8z"/><path d="M16 21.9c.1-.1.4-.4.6-.5-5.5-2.2-9.4-5.9-11.2-10.5-.7 1.3-1.2 2.7-1.5 4.1 2.8 3.6 7 6.1 12.1 6.9z"/></g></symbol><symbol id="i-arrow" viewBox="0 0 18 18" xmlns="http://www.w3.org/2000/svg"><path d="M5.584 4.315L9.997 9l-4.412 4.684a1.24 1.24 0 00-.335.855c0 .324.119.628.335.858.445.47 1.168.47 1.613 0l5.22-5.542a1.266 1.266 0 00-.002-1.712l-5.22-5.54a1.101 1.101 0 00-.805-.353 1.11 1.11 0 00-.807.353 1.239 1.239 0 00-.334.856c0 .324.119.628.334.856z"/></symbol><symbol id="icon-odnoklassniki" viewBox="0 0 32 32"><path d="M19.34 23.253a15.473 15.473 0 004.8-1.987 2.422 2.422 0 00-2.58-4.097 10.487 10.487 0 01-11.12 0 2.419 2.419 0 00-3.333.753c0 .003 0 .005-.003.007a2.417 2.417 0 00.756 3.333l.003.003c1.473.927 3.096 1.6 4.795 1.984l-4.62 4.62a2.394 2.394 0 00-.037 3.383l.04.04c.459.472 1.08.707 1.699.707.62 0 1.24-.235 1.7-.707l4.561-4.539 4.539 4.541a2.42 2.42 0 003.421-.06 2.42 2.42 0 000-3.36zM16 16.517a8.269 8.269 0 008.26-8.257C24.26 3.707 20.553 0 16 0S7.74 3.707 7.74 8.263A8.265 8.265 0 0016 16.518zm0-11.676a3.424 3.424 0 013.419 3.42A3.422 3.422 0 0116 11.681a3.425 3.425 0 01-3.42-3.419A3.425 3.425 0 0116 4.841z"/></symbol><symbol id="icon-tiktok" viewBox="0 0 32 32"><path d="M16.707.027C18.454 0 20.187.014 21.92 0c.107 2.04.84 4.12 2.333 5.56 1.493 1.48 3.6 2.16 5.653 2.387v5.373c-1.92-.067-3.853-.467-5.6-1.293-.76-.347-1.467-.787-2.16-1.24-.013 3.893.013 7.787-.027 11.667-.107 1.867-.72 3.72-1.8 5.253-1.747 2.56-4.773 4.227-7.88 4.28-1.907.107-3.813-.413-5.44-1.373-2.693-1.587-4.587-4.493-4.867-7.613a24.42 24.42 0 01-.013-1.987 10.004 10.004 0 013.44-6.613c2.213-1.92 5.307-2.84 8.2-2.293.027 1.973-.053 3.947-.053 5.92-1.32-.427-2.867-.307-4.027.493a4.631 4.631 0 00-1.813 2.333c-.28.68-.2 1.427-.187 2.147.32 2.187 2.427 4.027 4.667 3.827 1.493-.013 2.92-.88 3.693-2.147.253-.44.533-.893.547-1.413.133-2.387.08-4.76.093-7.147.013-5.373-.013-10.733.027-16.093z"/></symbol><symbol id="icon-twitter" viewBox="0 0 32 32"><path d="M32 7.075a12.941 12.941 0 01-3.769 1.031 6.601 6.601 0 002.887-3.631 13.21 13.21 0 01-4.169 1.594A6.565 6.565 0 0022.155 4a6.563 6.563 0 00-6.563 6.563c0 .512.056 1.012.169 1.494A18.635 18.635 0 012.23 5.195a6.56 6.56 0 00-.887 3.3 6.557 6.557 0 002.919 5.463 6.565 6.565 0 01-2.975-.819v.081a6.565 6.565 0 005.269 6.437 6.574 6.574 0 01-2.968.112 6.588 6.588 0 006.131 4.563 13.17 13.17 0 01-9.725 2.719 18.568 18.568 0 0010.069 2.95c12.075 0 18.681-10.006 18.681-18.681 0-.287-.006-.569-.019-.85A13.216 13.216 0 0032 7.076z"/></symbol><symbol id="icon-pencil2" viewBox="0 0 32 32"><path d="M12 20l4-2L30 4l-2-2-14 14-2 4zm-2.959 7.097c-.989-2.085-2.052-3.149-4.137-4.137l3.097-8.525 4-2.435 12-12h-6l-12 12-6 20 20-6 12-12V8l-12 12-2.435 4z"/></symbol><symbol id="icon-light-bulb" viewBox="0 0 20 20"><path d="M7.186 19.172c.789.51 1.701.855 2.814.828 1.111.027 2.025-.318 2.814-.828L12.797 17H7.203l-.017 2.172zM12.697 16c0-4.357 4.63-5.848 4.283-10.188-.218-2.738-2.073-5.81-6.98-5.81S3.238 3.074 3.019 5.813C2.672 10.152 7.303 11.643 7.303 16h5.394zM5 6c.207-2.598 2.113-4 5-4s4.654 1.371 4.861 3.969c.113 1.424-.705 2.373-1.809 3.926C12.238 11.041 11.449 12.238 11 14H9c-.449-1.762-1.238-2.959-2.053-4.106C5.844 8.342 4.886 7.424 5 6z"/></symbol><symbol id="icon-document-file-pdf" viewBox="0 0 32 32"><path d="M21 13v-3l-6-7H4.003A2.005 2.005 0 002 5.007v22.985a2 2 0 001.997 2.007h15.005a1.998 1.998 0 001.997-1.991v-2.009h7.993A3.002 3.002 0 0031.999 23v-7.002a2.997 2.997 0 00-3.007-2.999h-7.993zm-1 13v2.007A.997.997 0 0119 29H4c-.545 0-1-.446-1-.995V4.996c0-.54.446-.995.996-.995H14v4.994c0 1.119.895 2.006 1.998 2.006H20v2h-7.993A3.002 3.002 0 009 16v7.002a2.997 2.997 0 003.007 2.999H20zM15 4.5l4.7 5.5h-3.703C15.451 10 15 9.548 15 8.991V4.5zM11.995 14h17.011a2 2 0 011.995 1.992v7.016A1.999 1.999 0 0129.006 25H11.995A2 2 0 0110 23.008v-7.016C10 14.9 10.893 14 11.995 14zM25 19v-2h4v-1h-5v7h1v-3h3v-1h-3zm-13-1v-2h2.995a2 2 0 110 4H13v3h-1v-5zm1-1v2h2.001A.997.997 0 0016 18c0-.552-.443-1-.999-1H13zm5-1h2.995c1.111 0 2.005.898 2.005 2.006v2.988A1.999 1.999 0 0120.995 23H18v-7zm1 1v5h2.001A.997.997 0 0022 21v-3c0-.552-.443-1-.999-1H19z"/></symbol><symbol id="icon-double_arrow" viewBox="0 0 24 24"><path d="M8.484 5.016L13.5 12l-5.016 6.984h-4.5L9 12 3.984 5.016h4.5zm7.032 0L20.485 12l-4.969 6.984h-4.5L15.985 12l-4.969-6.984h4.5z"/></symbol><symbol id="icon-library" viewBox="0 0 34 32"><path d="M32 30v-2h-2V16h2v-2h-6v2h2v12h-6V16h2v-2h-6v2h2v12h-6V16h2v-2h-6v2h2v12H6V16h2v-2H2v2h2v12H2v2H0v2h34v-2h-2zM16 0h2l16 10v2H0v-2L16 0z"/></symbol><symbol id="icon-file-zip" viewBox="0 0 32 32"><path d="M28.681 7.159c-.694-.947-1.662-2.053-2.724-3.116s-2.169-2.03-3.116-2.724C21.229.137 20.448 0 20 0H4.5A2.503 2.503 0 002 2.5v27C2 30.878 3.121 32 4.5 32h23c1.378 0 2.5-1.122 2.5-2.5V10c0-.448-.137-1.23-1.319-2.841zm-4.138-1.702A27.334 27.334 0 0126.811 8H22V3.189a27.334 27.334 0 012.543 2.268zM28 29.5c0 .271-.229.5-.5.5h-23a.507.507 0 01-.5-.5v-27c0-.271.229-.5.5-.5H20v7a1 1 0 001 1h7v19.5z"/><path d="M8 2h4v2H8V2zm4 2h4v2h-4V4zM8 6h4v2H8V6zm4 2h4v2h-4V8zm-4 2h4v2H8v-2zm4 2h4v2h-4v-2zm-4 2h4v2H8v-2zm4 2h4v2h-4v-2zM8 26.5c0 .825.675 1.5 1.5 1.5h5c.825 0 1.5-.675 1.5-1.5v-5c0-.825-.675-1.5-1.5-1.5H12v-2H8v8.5zm6-2.5v2h-4v-2h4z"/></symbol><symbol id="icon-envelop" viewBox="0 0 32 32"><path d="M29 4H3C1.35 4 0 5.35 0 7v20c0 1.65 1.35 3 3 3h26c1.65 0 3-1.35 3-3V7c0-1.65-1.35-3-3-3zM12.461 17.199L4 23.789V8.113l8.461 9.086zM5.512 8h20.976L16 15.875 5.512 8zm7.278 9.553L16 21l3.21-3.447L25.79 26H6.211l6.58-8.447zm6.749-.354L28 8.113v15.676l-8.461-6.59z"/></symbol><symbol id="icon-mobile" viewBox="0 0 32 32"><path d="M23 0H9C7.35 0 6 1.35 6 3v26c0 1.65 1.35 3 3 3h14c1.65 0 3-1.35 3-3V3c0-1.65-1.35-3-3-3zM12 1.5h8v1h-8v-1zM16 30a2 2 0 11-.001-3.999A2 2 0 0116 30zm8-6H8V4h16v20z"/></symbol><symbol id="icon-change" viewBox="0 0 32 32"><path d="M32 12H20l4.485-4.485C22.218 5.249 19.205 4 16 4S9.781 5.248 7.515 7.515C5.249 9.782 4 12.795 4 16s1.248 6.219 3.515 8.485C9.782 26.751 12.795 28 16 28s6.219-1.248 8.485-3.515c.189-.189.371-.384.546-.583l3.01 2.634A15.96 15.96 0 0116 32C7.163 32 0 24.837 0 16S7.163 0 16 0c4.418 0 8.418 1.791 11.313 4.687L32 0v12z"/></symbol><symbol id="icon-search" viewBox="0 0 32 32"><path d="M31.008 27.231l-7.58-6.447c-.784-.705-1.622-1.029-2.299-.998a11.954 11.954 0 002.87-7.787c0-6.627-5.373-12-12-12s-12 5.373-12 12 5.373 12 12 12c2.972 0 5.691-1.081 7.787-2.87-.031.677.293 1.515.998 2.299l6.447 7.58c1.104 1.226 2.907 1.33 4.007.23s.997-2.903-.23-4.007zM12 20a8 8 0 110-16 8 8 0 010 16z"/></symbol><symbol id="icon-tree" viewBox="0 0 32 32"><path d="M30.5 24H30v-6.5c0-1.93-1.57-3.5-3.5-3.5H18v-4h.5c.825 0 1.5-.675 1.5-1.5v-5c0-.825-.675-1.5-1.5-1.5h-5c-.825 0-1.5.675-1.5 1.5v5c0 .825.675 1.5 1.5 1.5h.5v4H5.5C3.57 14 2 15.57 2 17.5V24h-.5c-.825 0-1.5.675-1.5 1.5v5c0 .825.675 1.5 1.5 1.5h5c.825 0 1.5-.675 1.5-1.5v-5c0-.825-.675-1.5-1.5-1.5H6v-6h8v6h-.5c-.825 0-1.5.675-1.5 1.5v5c0 .825.675 1.5 1.5 1.5h5c.825 0 1.5-.675 1.5-1.5v-5c0-.825-.675-1.5-1.5-1.5H18v-6h8v6h-.5c-.825 0-1.5.675-1.5 1.5v5c0 .825.675 1.5 1.5 1.5h5c.825 0 1.5-.675 1.5-1.5v-5c0-.825-.675-1.5-1.5-1.5zM6 30H2v-4h4v4zm12 0h-4v-4h4v4zM14 8V4h4v4h-4zm16 22h-4v-4h4v4z"/></symbol><symbol id="icon-menu" viewBox="0 0 32 32"><path d="M2 6h28v6H2zm0 8h28v6H2zm0 8h28v6H2z"/></symbol><symbol id="icon-eye" viewBox="0 0 32 32"><path d="M16 6C9.021 6 2.972 10.064 0 16c2.972 5.936 9.021 10 16 10s13.027-4.064 16-10c-2.972-5.936-9.021-10-16-10zm7.889 5.303A15.212 15.212 0 0128.559 16a15.223 15.223 0 01-4.67 4.697C21.527 22.204 18.799 23 16 23s-5.527-.796-7.889-2.303A15.212 15.212 0 013.441 16a15.223 15.223 0 015.041-4.925 8 8 0 1015.036 0c.124.074.248.15.371.228zM16 13a3 3 0 11-6 0 3 3 0 016 0z"/></symbol><symbol id="icon-warning" viewBox="0 0 32 32"><path d="M16 2.899l13.409 26.726H2.59L15.999 2.899zM16 0c-.69 0-1.379.465-1.903 1.395L.438 28.617C-.608 30.477.282 32 2.416 32h27.166c2.134 0 3.025-1.522 1.978-3.383L17.901 1.395C17.378.465 16.688 0 15.998 0z"/><path d="M18 26a2 2 0 11-3.999.001A2 2 0 0118 26zm-2-4a2 2 0 01-2-2v-6a2 2 0 114 0v6a2 2 0 01-2 2z"/></symbol><symbol id="icon-play3" viewBox="0 0 32 32"><path d="M6 4l20 12L6 28z"/></symbol><symbol id="icon-circle-right" viewBox="0 0 32 32"><path d="M16 0C7.163 0 0 7.163 0 16s7.163 16 16 16 16-7.163 16-16S24.837 0 16 0zm0 29C8.82 29 3 23.18 3 16S8.82 3 16 3s13 5.82 13 13-5.82 13-13 13z"/><path d="M11.086 22.086l2.829 2.829 8.914-8.914-8.914-8.914-2.828 2.828 6.086 6.086z"/></symbol><symbol id="icon-facebook2" viewBox="0 0 32 32"><path d="M29 0H3C1.35 0 0 1.35 0 3v26c0 1.65 1.35 3 3 3h13V18h-4v-4h4v-2c0-3.306 2.694-6 6-6h4v4h-4c-1.1 0-2 .9-2 2v2h6l-1 4h-5v14h9c1.65 0 3-1.35 3-3V3c0-1.65-1.35-3-3-3z"/></symbol><symbol id="icon-instagram" viewBox="0 0 32 32"><path d="M16 2.881c4.275 0 4.781.019 6.462.094 1.563.069 2.406.331 2.969.55a4.952 4.952 0 011.837 1.194 5.015 5.015 0 011.2 1.838c.219.563.481 1.412.55 2.969.075 1.688.094 2.194.094 6.463s-.019 4.781-.094 6.463c-.069 1.563-.331 2.406-.55 2.969a4.94 4.94 0 01-1.194 1.837 5.02 5.02 0 01-1.837 1.2c-.563.219-1.413.481-2.969.55-1.688.075-2.194.094-6.463.094s-4.781-.019-6.463-.094c-1.563-.069-2.406-.331-2.969-.55a4.952 4.952 0 01-1.838-1.194 5.02 5.02 0 01-1.2-1.837c-.219-.563-.481-1.413-.55-2.969-.075-1.688-.094-2.194-.094-6.463s.019-4.781.094-6.463c.069-1.563.331-2.406.55-2.969a4.964 4.964 0 011.194-1.838 5.015 5.015 0 011.838-1.2c.563-.219 1.412-.481 2.969-.55 1.681-.075 2.188-.094 6.463-.094zM16 0c-4.344 0-4.887.019-6.594.094-1.7.075-2.869.35-3.881.744-1.056.412-1.95.956-2.837 1.85a7.833 7.833 0 00-1.85 2.831C.444 6.538.169 7.7.094 9.4.019 11.113 0 11.656 0 16s.019 4.887.094 6.594c.075 1.7.35 2.869.744 3.881.413 1.056.956 1.95 1.85 2.837a7.82 7.82 0 002.831 1.844c1.019.394 2.181.669 3.881.744 1.706.075 2.25.094 6.594.094s4.888-.019 6.594-.094c1.7-.075 2.869-.35 3.881-.744 1.05-.406 1.944-.956 2.831-1.844s1.438-1.781 1.844-2.831c.394-1.019.669-2.181.744-3.881.075-1.706.094-2.25.094-6.594s-.019-4.887-.094-6.594c-.075-1.7-.35-2.869-.744-3.881a7.506 7.506 0 00-1.831-2.844A7.82 7.82 0 0026.482.843C25.463.449 24.301.174 22.601.099c-1.712-.081-2.256-.1-6.6-.1z"/><path d="M16 7.781c-4.537 0-8.219 3.681-8.219 8.219s3.681 8.219 8.219 8.219 8.219-3.681 8.219-8.219A8.221 8.221 0 0016 7.781zm0 13.55a5.331 5.331 0 110-10.663 5.331 5.331 0 010 10.663zM26.462 7.456a1.919 1.919 0 11-3.838 0 1.919 1.919 0 013.838 0z"/></symbol><symbol id="icon-vk" viewBox="0 0 32 32"><path d="M29 0H3C1.35 0 0 1.35 0 3v26c0 1.65 1.35 3 3 3h26c1.65 0 3-1.35 3-3V3c0-1.65-1.35-3-3-3zm-3.081 22.4l-2.925.044s-.631.125-1.456-.444c-1.094-.75-2.125-2.706-2.931-2.45-.813.256-.788 2.012-.788 2.012s.006.375-.181.575c-.2.219-.6.262-.6.262h-1.306s-2.888.175-5.431-2.475c-2.775-2.887-5.225-8.619-5.225-8.619s-.144-.375.013-.556c.175-.206.644-.219.644-.219l3.131-.019s.294.05.506.206c.175.125.269.369.269.369s.506 1.281 1.175 2.438c1.306 2.256 1.919 2.75 2.362 2.513.644-.35.45-3.194.45-3.194s.012-1.031-.325-1.488c-.262-.356-.756-.463-.969-.488-.175-.025.113-.431.488-.619.563-.275 1.556-.294 2.731-.281.913.006 1.181.069 1.538.15 1.081.262.712 1.269.712 3.681 0 .775-.137 1.863.419 2.219.238.156.825.025 2.294-2.469.694-1.181 1.219-2.569 1.219-2.569s.113-.25.288-.356c.181-.106.425-.075.425-.075l3.294-.019s.988-.119 1.15.331c.169.469-.369 1.563-1.712 3.356-2.206 2.944-2.456 2.669-.619 4.369 1.75 1.625 2.113 2.419 2.175 2.519.712 1.2-.813 1.294-.813 1.294z"/></symbol><symbol id="icon-youtube" viewBox="0 0 32 32"><path d="M31.681 9.6s-.313-2.206-1.275-3.175C29.187 5.15 27.825 5.144 27.2 5.069c-4.475-.325-11.194-.325-11.194-.325h-.012s-6.719 0-11.194.325c-.625.075-1.987.081-3.206 1.356C.631 7.394.325 9.6.325 9.6s-.319 2.588-.319 5.181v2.425c0 2.587.319 5.181.319 5.181s.313 2.206 1.269 3.175c1.219 1.275 2.819 1.231 3.531 1.369 2.563.244 10.881.319 10.881.319s6.725-.012 11.2-.331c.625-.075 1.988-.081 3.206-1.356.962-.969 1.275-3.175 1.275-3.175s.319-2.587.319-5.181v-2.425c-.006-2.588-.325-5.181-.325-5.181zM12.694 20.15v-8.994l8.644 4.513-8.644 4.481z"/></symbol><symbol id="icon-file-word" viewBox="0 0 32 32"><path d="M19.993 14.872h1.382l-1.594 7.068-2.073-9.938h-3.33l-2.41 9.938-1.807-9.938H6.68l3.534 15.996h3.401l2.384-9.46 2.133 9.46h3.136l4.051-15.996h-5.326v2.87z"/><path d="M28.681 7.159c-.694-.947-1.662-2.053-2.724-3.116s-2.169-2.03-3.116-2.724C21.229.137 20.448 0 20 0H4.5A2.503 2.503 0 002 2.5v27C2 30.878 3.121 32 4.5 32h23c1.378 0 2.5-1.122 2.5-2.5V10c0-.448-.137-1.23-1.319-2.841zm-4.138-1.702A27.334 27.334 0 0126.811 8H22V3.189a27.334 27.334 0 012.543 2.268zM28 29.5c0 .271-.229.5-.5.5h-23a.507.507 0 01-.5-.5v-27c0-.271.229-.5.5-.5H20v7a1 1 0 001 1h7v19.5z"/></symbol><symbol id="icon-viber" viewBox="0 0 32 32"><path fill="var(--color1, #665cac)" d="M15.197.003C12.63.038 7.108.459 4.018 3.29 1.725 5.57.923 8.931.83 13.094.75 17.241.657 25.027 8.163 27.149v3.227s-.051 1.293.803 1.56c1.053.333 1.653-.665 2.653-1.732l1.867-2.107c5.133.427 9.067-.559 9.52-.705 1.04-.333 6.908-1.081 7.868-8.869.987-8.041-.48-13.108-3.12-15.401l-.013-.003c-.8-.733-4-3.067-11.16-3.093 0 0-.528-.033-1.384-.021zm.09 2.262c.727-.004 1.173.027 1.173.027 6.053.013 8.948 1.84 9.628 2.453 2.227 1.905 3.371 6.475 2.533 13.189-.8 6.507-5.56 6.92-6.44 7.2-.373.12-3.84.973-8.203.693 0 0-3.252 3.921-4.265 4.935-.16.173-.347.227-.467.2-.173-.04-.227-.253-.213-.547l.027-5.359c-6.361-1.76-5.988-8.403-5.921-11.869.08-3.467.733-6.309 2.667-8.229 2.609-2.36 7.3-2.68 9.481-2.693zm.48 3.467h-.001a.4.4 0 00.001.799l.143-.001c2.034 0 3.88.809 5.232 2.123l-.002-.002c1.453 1.413 2.161 3.307 2.188 5.787a.4.4 0 00.4.4v-.012a.4.4 0 00.4-.4 8.575 8.575 0 00-2.415-6.349l.002.002c-1.587-1.547-3.589-2.347-5.948-2.347zm-5.272.92a1.263 1.263 0 00-.826.163l.006-.003h-.016c-.547.32-1.051.72-1.531 1.253-.36.427-.561.852-.615 1.265a1.634 1.634 0 00.07.733l-.003-.012.027.013a18.197 18.197 0 001.646 3.549l-.046-.082a20.684 20.684 0 003.101 4.237l-.008-.009.04.053.053.04.08.08a20.864 20.864 0 004.136 3.053l.104.054c1.76.96 2.829 1.413 3.469 1.6v.013c.187.053.357.08.531.08a2.447 2.447 0 001.471-.631l-.002.002a6.03 6.03 0 001.24-1.531v-.013c.307-.573.2-1.121-.24-1.495a18.139 18.139 0 00-2.781-2.007l-.085-.046c-.68-.373-1.373-.147-1.653.227l-.6.759c-.307.373-.867.32-.867.32l-.016.013c-4.16-1.067-5.267-5.279-5.267-5.279s-.053-.573.333-.867l.747-.6c.36-.293.613-.987.227-1.667a18.073 18.073 0 00-2.071-2.887l.017.02a1.127 1.127 0 00-.665-.399l-.007-.001zm5.964 1.187a.401.401 0 00.001.8h.001a5.027 5.027 0 013.532 1.532l.001.001a4.646 4.646 0 011.199 3.44l.001-.014c.001.22.18.399.4.399l.013.016a.4.4 0 00.4-.4v-.001c.04-1.587-.453-2.92-1.427-3.987s-2.333-1.667-4.067-1.787l-.028-.001-.029.001h.001zm.653 2.158H17.1a.407.407 0 00-.012.815h.001c1.32.067 1.96.733 2.04 2.107a.4.4 0 00.4.387h.013a.4.4 0 00.388-.4l-.001-.028v.001c-.093-1.787-1.067-2.788-2.8-2.881h-.016z"/></symbol><symbol id="icon-whatsapp" viewBox="0 0 32 32"><path d="M27.281 4.65C24.287 1.65 20.306 0 16.062 0 7.324 0 .212 7.112.212 15.856c0 2.794.731 5.525 2.119 7.925L.081 32l8.406-2.206a15.858 15.858 0 007.575 1.931h.006c8.738 0 15.856-7.113 15.856-15.856 0-4.238-1.65-8.219-4.644-11.219zm-11.212 24.4a13.17 13.17 0 01-6.713-1.837l-.481-.288-4.987 1.306 1.331-4.863-.313-.5a13.086 13.086 0 01-2.019-7.012c0-7.269 5.912-13.181 13.188-13.181 3.519 0 6.831 1.375 9.319 3.862a13.108 13.108 0 013.856 9.325c-.006 7.275-5.919 13.188-13.181 13.188zm7.225-9.875c-.394-.2-2.344-1.156-2.706-1.288s-.625-.2-.894.2c-.262.394-1.025 1.288-1.256 1.556-.231.262-.462.3-.856.1s-1.675-.619-3.188-1.969c-1.175-1.05-1.975-2.35-2.206-2.744s-.025-.613.175-.806c.181-.175.394-.463.594-.694s.262-.394.394-.662c.131-.262.069-.494-.031-.694s-.894-2.15-1.219-2.944c-.319-.775-.65-.669-.894-.681-.231-.012-.494-.012-.756-.012s-.694.1-1.056.494c-.363.394-1.387 1.356-1.387 3.306s1.419 3.831 1.619 4.1c.2.262 2.794 4.269 6.769 5.981.944.406 1.681.65 2.256.837.95.3 1.813.256 2.494.156.762-.113 2.344-.956 2.675-1.881s.331-1.719.231-1.881c-.094-.175-.356-.275-.756-.475z"/></symbol><symbol id="icon-telegram" viewBox="0 0 32 32"><path d="M16 0C7.162 0 0 7.162 0 16s7.162 16 16 16 16-7.163 16-16S24.837 0 16 0zm7.863 10.969l-2.625 12.369c-.181.881-.712 1.087-1.45.681l-4-2.956-1.919 1.869c-.225.219-.4.4-.8.4-.519 0-.431-.194-.606-.688L11.1 18.169l-3.956-1.231c-.856-.262-.862-.85.194-1.269l15.412-5.95c.7-.319 1.381.169 1.113 1.25z"/></symbol><symbol id="icon-imo" viewBox="0 0 128 128"><path d="M65.05 1.05a63 63 0 00-54.38 94.68c.23.4 2.16 4-1.68 7.84a107.63 107.63 0 01-8.22 7.19 2.06 2.06 0 00-.77 1.46 2 2 0 00.59 1.53c.63.63 3.42 2.69 13 2.69a50.3 50.3 0 0011.38-1.32 14.59 14.59 0 012.76-.44A63 63 0 1065.05 1.05zm0 121.9A58.54 58.54 0 0130 111.4a3.79 3.79 0 00-2.38-.72 17.73 17.73 0 00-3.51.53 46.27 46.27 0 01-10.54 1.23 35.84 35.84 0 01-7.67-.68c1.72-1.44 4-3.42 5.93-5.36 4.84-4.85 3.73-10.26 2.3-12.69A59 59 0 1165.05 123z"/><path d="M32 54a2 2 0 00-2 2v22a2 2 0 004 0V56a2 2 0 00-2-2zm36 0a10.53 10.53 0 00-8 3.24A9.19 9.19 0 0053 54a11.59 11.59 0 00-6 1.6 2 2 0 00-4 .4v22a2 2 0 004 0V63c0-4.51 4.2-5 6-5a4.82 4.82 0 015 5v15a2 2 0 004 0V63c0-4.51 4.2-5 6-5a4.82 4.82 0 015 5v15a2 2 0 004 0V63a8.81 8.81 0 00-9-9zm25.5 0C86.73 54 82 59.35 82 67s4.73 13 11.5 13S105 74.78 105 67s-4.73-13-11.5-13zm0 22c-4.56 0-7.5-3.53-7.5-9s2.94-9 7.5-9 7.5 3.53 7.5 9-2.87 9-7.5 9z"/><circle cx="32" cy="49" r="2"/></symbol><symbol id="icon-rutube" viewBox="0 0 526 526" fill="none"><path d="M410.375 7H115.623C55.633 7 7 55.632 7 115.623v294.752c0 59.991 48.632 108.623 108.623 108.623h294.752c59.991 0 108.623-48.632 108.623-108.623V115.623C518.998 55.633 470.366 7 410.375 7z" fill="#163E73"/><path d="M426.52 149.348c17.865 0 32.348-14.483 32.348-32.348s-14.483-32.348-32.348-32.348S394.172 99.135 394.172 117s14.483 32.348 32.348 32.348z" fill="#F41240"/><path d="M330.396 145.772H103.054V398.5h63.277v-82.222H287.58L342.9 398.5h70.855l-61.004-82.601c18.945-3.031 32.586-10.23 40.922-21.597 8.336-11.367 12.504-29.555 12.504-53.804v-18.946c0-14.398-1.516-25.765-4.168-34.48-2.653-8.714-7.2-16.293-13.641-23.113-6.82-6.441-14.398-10.988-23.492-14.019-9.094-2.653-20.461-4.168-34.48-4.168zm-10.23 114.807H166.331v-59.108h153.835c8.714 0 14.777 1.515 17.808 4.168 3.031 2.652 4.926 7.578 4.926 14.777v21.218c0 7.578-1.895 12.504-4.926 15.156-3.031 2.653-9.094 3.789-17.808 3.789z" fill="#fff"/><path d="M410.375 7H115.623C55.633 7 7 55.632 7 115.623v294.752c0 59.991 48.632 108.623 108.623 108.623h294.752c59.991 0 108.623-48.632 108.623-108.623V115.623C518.998 55.633 470.366 7 410.375 7z" stroke="#fff" stroke-width="13.934"/><path d="M426.52 149.348c17.865 0 32.348-14.483 32.348-32.348s-14.483-32.348-32.348-32.348S394.172 99.135 394.172 117s14.483 32.348 32.348 32.348zm-96.124-3.576H103.054V398.5h63.277v-82.222H287.58L342.9 398.5h70.855l-61.004-82.601c18.945-3.031 32.586-10.23 40.922-21.597 8.336-11.367 12.504-29.555 12.504-53.804v-18.946c0-14.398-1.516-25.765-4.168-34.48-2.653-8.714-7.2-16.293-13.641-23.113-6.82-6.441-14.398-10.988-23.492-14.019-9.094-2.653-20.461-4.168-34.48-4.168zm-10.23 114.807H166.331v-59.108h153.835c8.714 0 14.777 1.515 17.808 4.168 3.031 2.652 4.926 7.578 4.926 14.777v21.218c0 7.578-1.895 12.504-4.926 15.156-3.031 2.653-9.094 3.789-17.808 3.789z" stroke="#fff" stroke-width="13.934"/><path d="M407.995 19.945H117.768c-53.522 0-96.91 43.387-96.91 96.908V408.38c0 53.521 43.388 96.909 96.91 96.909h290.227c53.521 0 96.909-43.388 96.909-96.909V116.853c0-53.52-43.388-96.908-96.909-96.908z" stroke="#fff" stroke-width="13.934"/><path d="M410.375 13.967H115.623c-56.143 0-101.656 45.513-101.656 101.656v294.752c0 56.143 45.513 101.656 101.656 101.656h294.752c56.143 0 101.656-45.513 101.656-101.656V115.623c0-56.143-45.513-101.656-101.656-101.656z" stroke="#fff" stroke-width="13.934"/></symbol><symbol id="icon-dzen" viewBox="0 0 50 50" xml:space="preserve"><path d="M46.894 23.986h.011a.998.998 0 00.996-1.091C46.897 11.852 38.154 3.106 27.11 2.1a1 1 0 00-1.091 1.008c.174 14.676 2.11 20.673 20.875 20.878zm0 2.028c-18.765.205-20.7 6.202-20.874 20.878a1 1 0 001.091 1.008c11.044-1.006 19.787-9.751 20.79-20.795a.999.999 0 00-.262-.769 1.055 1.055 0 00-.745-.322zM22.823 2.105C11.814 3.14 3.099 11.884 2.1 22.897a.999.999 0 00.996 1.09h.012c18.703-.215 20.634-6.209 20.81-20.875a1.003 1.003 0 00-1.095-1.007zM3.107 26.013c-.311-.035-.555.113-.746.321a1.003 1.003 0 00-.262.769c.999 11.013 9.715 19.757 20.724 20.792a1.002 1.002 0 001.094-1.008c-.176-14.665-2.106-20.659-20.81-20.874z"/></symbol></defs>
</svg>