<svg aria-hidden="true" style="position:absolute;width:0;height:0"
  xmlns="http://www.w3.org/2000/svg" overflow="hidden">
  <defs>

  <symbol id="i-prioritet" viewBox="0 0 33 33" fill="none" xmlns="http://www.w3.org/2000/svg">
<rect x="0.5" y="0.5" width="32" height="32" rx="8" fill="#FFECED"/>
<path d="M22.5 24.5V14.5" stroke="#F42736" stroke-width="1.5" stroke-linecap="round" stroke-linejoin="round"/>
<path d="M16.5 24.5V8.5" stroke="#F42736" stroke-width="1.5" stroke-linecap="round" stroke-linejoin="round"/>
<path d="M10.5 24.5V18.5" stroke="#F42736" stroke-width="1.5" stroke-linecap="round" stroke-linejoin="round"/>
</symbol>


  <symbol id="i-invite" viewBox="0 0 32 32" fill="none" xmlns="http://www.w3.org/2000/svg">
<rect width="32" height="32" rx="8" fill="#ECF0FF"/>
<path d="M20 8H22C22.5304 8 23.0391 8.21071 23.4142 8.58579C23.7893 8.96086 24 9.46957 24 10V24C24 24.5304 23.7893 25.0391 23.4142 25.4142C23.0391 25.7893 22.5304 26 22 26H10C9.46957 26 8.96086 25.7893 8.58579 25.4142C8.21071 25.0391 8 24.5304 8 24V10C8 9.46957 8.21071 8.96086 8.58579 8.58579C8.96086 8.21071 9.46957 8 10 8H12" stroke="#0128D2" stroke-width="1.5" stroke-linecap="round" stroke-linejoin="round"/>
<path d="M19 6H13C12.4477 6 12 6.44772 12 7V9C12 9.55228 12.4477 10 13 10H19C19.5523 10 20 9.55228 20 9V7C20 6.44772 19.5523 6 19 6Z" stroke="#0128D2" stroke-width="1.5" stroke-linecap="round" stroke-linejoin="round"/>
</symbol>


  <symbol id="i-tel" viewBox="0 0 32 32" fill="none" xmlns="http://www.w3.org/2000/svg">
<rect width="32" height="32" rx="8" fill="#F0FFEC"/>
<path d="M26 20.92V23.92C26.0011 24.1985 25.9441 24.4742 25.8325 24.7294C25.7209 24.9845 25.5573 25.2136 25.3521 25.4019C25.1468 25.5901 24.9046 25.7335 24.6407 25.8227C24.3769 25.9119 24.0974 25.9451 23.82 25.92C20.7428 25.5856 17.787 24.5342 15.19 22.85C12.7738 21.3147 10.7253 19.2662 9.18999 16.85C7.49997 14.2412 6.44824 11.271 6.11999 8.18001C6.095 7.90347 6.12787 7.62477 6.21649 7.36163C6.30512 7.09849 6.44756 6.85669 6.63476 6.65163C6.82196 6.44656 7.0498 6.28271 7.30379 6.17053C7.55777 6.05834 7.83233 6.00027 8.10999 6.00001H11.11C11.5953 5.99523 12.0658 6.16708 12.4338 6.48354C12.8017 6.79999 13.0421 7.23945 13.11 7.72001C13.2366 8.68007 13.4714 9.62273 13.81 10.53C13.9445 10.8879 13.9737 11.2769 13.8939 11.6509C13.8141 12.0249 13.6289 12.3681 13.36 12.64L12.09 13.91C13.5135 16.4136 15.5864 18.4865 18.09 19.91L19.36 18.64C19.6319 18.3711 19.9751 18.1859 20.3491 18.1061C20.7231 18.0263 21.1121 18.0555 21.47 18.19C22.3773 18.5286 23.3199 18.7634 24.28 18.89C24.7658 18.9585 25.2094 19.2032 25.5265 19.5775C25.8437 19.9518 26.0122 20.4296 26 20.92Z" stroke="#6ED14F" stroke-width="1.5" stroke-linecap="round" stroke-linejoin="round"/>
</symbol>

  <symbol id="i-info" viewBox="0 0 24 24" fill="none" xmlns="http://www.w3.org/2000/svg">
<path d="M12 22C17.5228 22 22 17.5228 22 12C22 6.47715 17.5228 2 12 2C6.47715 2 2 6.47715 2 12C2 17.5228 6.47715 22 12 22Z" stroke="#A4A6AC" stroke-opacity="0.7" stroke-width="2" stroke-linecap="round" stroke-linejoin="round"/>
<path d="M12 16V12" stroke="#A4A6AC" stroke-opacity="0.7" stroke-width="2" stroke-linecap="round" stroke-linejoin="round"/>
<path d="M12 8H12.01" stroke="#A4A6AC" stroke-opacity="0.7" stroke-width="2" stroke-linecap="round" stroke-linejoin="round"/>
</symbol>

  <symbol id="i-arrow-r" viewBox="0 0 20 20" fill="none" xmlns="http://www.w3.org/2000/svg">
<g clip-path="url(#clip0_148_649)">
<path d="M10 18.3333C14.6024 18.3333 18.3334 14.6023 18.3334 9.99996C18.3334 5.39759 14.6024 1.66663 10 1.66663C5.39765 1.66663 1.66669 5.39759 1.66669 9.99996C1.66669 14.6023 5.39765 18.3333 10 18.3333Z" stroke="white" stroke-width="1.5" stroke-linecap="round" stroke-linejoin="round"/>
<path d="M10 13.3333L13.3333 9.99996L10 6.66663" stroke="white" stroke-width="1.5" stroke-linecap="round" stroke-linejoin="round"/>
<path d="M6.66669 10H13.3334" stroke="white" stroke-width="1.5" stroke-linecap="round" stroke-linejoin="round"/>
</g>
<defs>
<clipPath id="clip0_148_649">
<rect width="20" height="20" fill="white"/>
</clipPath>
</defs>
</symbol>

  <symbol id="i-innov" viewBox="0 0 24 24" fill="none" xmlns="http://www.w3.org/2000/svg">
<g clip-path="url(#clip0_1_56)">
<path d="M22.5629 1.43732C20.1889 -0.936679 16.6439 -0.35768 11.9999 3.13732C7.35694 -0.35768 3.81294 -0.937679 1.43694 1.43732C-0.939058 3.81231 -0.358058 7.35631 3.13694 12.0003C-0.358058 16.6433 -0.938058 20.1883 1.43694 22.5633C1.88224 23.025 2.41734 23.3907 3.00929 23.6379C3.60124 23.885 4.23752 24.0083 4.87894 24.0003C6.84994 24.0003 9.22994 22.9483 11.9999 20.8643C14.7689 22.9483 17.1489 24.0003 19.1209 24.0003C19.7624 24.0083 20.3986 23.885 20.9906 23.6379C21.5825 23.3907 22.1176 23.025 22.5629 22.5633C24.9379 20.1883 24.3629 16.6443 20.8629 12.0003C24.3579 7.35631 24.9379 3.81231 22.5629 1.43732V1.43732ZM19.0849 2.02832C19.4671 2.01681 19.8476 2.08352 20.203 2.22436C20.5585 2.3652 20.8814 2.57718 21.1519 2.84732C22.8979 4.59431 21.6079 7.56031 19.5639 10.3863C18.7259 9.39831 17.7819 8.37131 16.7059 7.29431C15.6299 6.21731 14.5999 5.27331 13.6119 4.43431C15.5099 3.06132 17.4719 2.02832 19.0849 2.02832V2.02832ZM18.3109 12.0003C17.2999 13.2203 16.2289 14.3613 15.2949 15.3003C14.3609 16.2393 13.2199 17.3003 11.9999 18.3113C10.7799 17.3003 9.63894 16.2293 8.70494 15.3003C7.77094 14.3713 6.69994 13.2203 5.68894 12.0003C6.69994 10.7803 7.77094 9.63831 8.70494 8.70531C9.63894 7.77231 10.7799 6.70031 11.9999 5.68831C13.2199 6.69831 14.3609 7.77131 15.2999 8.70531C16.2389 9.63931 17.2999 10.7803 18.3109 12.0003ZM2.84794 2.84832C3.11821 2.57772 3.44105 2.36535 3.79655 2.22432C4.15205 2.08329 4.53267 2.01659 4.91494 2.02832C6.52794 2.02832 8.48994 3.06132 10.3879 4.43431C9.39994 5.27331 8.37194 6.21731 7.29394 7.29431C6.21594 8.37131 5.27394 9.39431 4.43494 10.3863C2.39194 7.56031 1.09994 4.59431 2.84794 2.84832V2.84832ZM2.84794 21.1483C1.10194 19.4023 2.39194 16.4353 4.43494 13.6103C5.27394 14.5983 6.21794 15.6253 7.29394 16.7023C8.36994 17.7793 9.39394 18.7253 10.3829 19.5633C7.55794 21.6093 4.59194 22.9003 2.84794 21.1523V21.1483ZM21.1479 21.1483C19.4029 22.8923 16.4379 21.6053 13.6129 19.5633C14.5989 18.7253 15.6269 17.7763 16.7019 16.7023C17.7769 15.6283 18.7219 14.6023 19.5599 13.6103C21.6079 16.4403 22.8999 19.4063 21.1519 21.1523L21.1479 21.1483Z" fill="#0128D2"/>
<path d="M11.9998 14.0003C13.1044 14.0003 13.9998 13.1049 13.9998 12.0003C13.9998 10.8957 13.1044 10.0003 11.9998 10.0003C10.8953 10.0003 9.99984 10.8957 9.99984 12.0003C9.99984 13.1049 10.8953 14.0003 11.9998 14.0003Z" fill="#0128D2"/>
</g>
<defs>
<clipPath id="clip0_1_56">
<rect width="24" height="24" fill="white"/>
</clipPath>
</defs>
</symbol>

  <symbol id="i-international" viewBox="0 0 24 24" fill="none" xmlns="http://www.w3.org/2000/svg">
<g clip-path="url(#clip0_1_37)">
<path d="M21.7359 16.4C21.4001 15.4099 20.7629 14.5497 19.9136 13.94C19.0642 13.3303 18.0454 13.0016 16.9999 13H12.9999V11.916C14.4833 11.6653 15.8184 10.8664 16.7406 9.67773C17.6628 8.48906 18.1047 6.99733 17.9789 5.49816C17.8531 3.99899 17.1687 2.60179 16.0613 1.58344C14.9539 0.565095 13.5044 -8.01086e-05 11.9999 -8.01086e-05C10.4955 -8.01086e-05 9.04595 0.565095 7.93856 1.58344C6.83118 2.60179 6.14676 3.99899 6.02095 5.49816C5.89514 6.99733 6.33712 8.48906 7.25929 9.67773C8.18146 10.8664 9.51654 11.6653 10.9999 11.916V13H6.99993C5.95443 13.0016 4.93562 13.3303 4.08631 13.94C3.23701 14.5497 2.59977 15.4099 2.26393 16.4C1.40603 16.8139 0.723974 17.5203 0.340481 18.3922C-0.043013 19.2642 -0.102773 20.2443 0.171952 21.1563C0.446677 22.0684 1.03785 22.8525 1.83912 23.3675C2.64039 23.8825 3.59916 24.0947 4.54293 23.9659C5.4867 23.8371 6.35353 23.3757 6.98746 22.6648C7.62139 21.9538 7.98081 21.04 8.00107 20.0877C8.02132 19.1354 7.70107 18.2071 7.09794 17.4699C6.4948 16.7326 5.64838 16.2348 4.71093 16.066C4.99207 15.7326 5.3425 15.4646 5.73782 15.2804C6.13314 15.0963 6.56385 15.0006 6.99993 15H10.9999V16.127C10.0573 16.3704 9.23574 16.9492 8.68933 17.755C8.14292 18.5608 7.90914 19.5382 8.03182 20.504C8.15449 21.4698 8.6252 22.3577 9.3557 23.0013C10.0862 23.6449 11.0264 24 11.9999 24C12.9735 24 13.9137 23.6449 14.6442 23.0013C15.3747 22.3577 15.8454 21.4698 15.9681 20.504C16.0907 19.5382 15.8569 18.5608 15.3105 17.755C14.7641 16.9492 13.9426 16.3704 12.9999 16.127V15H16.9999C17.4358 15.0003 17.8663 15.0955 18.2617 15.2791C18.657 15.4627 19.0075 15.7302 19.2889 16.063C18.3515 16.2318 17.5051 16.7296 16.9019 17.4669C16.2988 18.2041 15.9785 19.1324 15.9988 20.0847C16.0191 21.037 16.3785 21.9508 17.0124 22.6618C17.6463 23.3727 18.5132 23.8341 19.4569 23.9629C20.4007 24.0917 21.3595 23.8795 22.1607 23.3645C22.962 22.8495 23.5532 22.0654 23.8279 21.1533C24.1026 20.2413 24.0429 19.2611 23.6594 18.3892C23.2759 17.5173 22.5938 16.8109 21.7359 16.397V16.4ZM7.99993 6C7.99993 5.20887 8.23453 4.43552 8.67406 3.77772C9.11358 3.11992 9.7383 2.60723 10.4692 2.30448C11.2001 2.00173 12.0044 1.92252 12.7803 2.07686C13.5562 2.2312 14.269 2.61216 14.8284 3.17157C15.3878 3.73098 15.7687 4.44371 15.9231 5.21964C16.0774 5.99556 15.9982 6.79983 15.6955 7.53073C15.3927 8.26164 14.88 8.88635 14.2222 9.32588C13.5644 9.7654 12.7911 10 11.9999 10C10.9391 10 9.92165 9.57857 9.17151 8.82843C8.42136 8.07828 7.99993 7.06087 7.99993 6V6ZM5.99993 20C5.99993 20.3956 5.88264 20.7822 5.66287 21.1111C5.44311 21.44 5.13075 21.6964 4.7653 21.8478C4.39985 21.9991 3.99772 22.0387 3.60975 21.9616C3.22179 21.8844 2.86543 21.6939 2.58572 21.4142C2.30602 21.1345 2.11553 20.7781 2.03836 20.3902C1.96119 20.0022 2.0008 19.6001 2.15217 19.2346C2.30355 18.8692 2.5599 18.5568 2.88879 18.3371C3.21769 18.1173 3.60437 18 3.99993 18C4.53037 18 5.03908 18.2107 5.41415 18.5858C5.78922 18.9609 5.99993 19.4696 5.99993 20ZM13.9999 20C13.9999 20.3956 13.8826 20.7822 13.6629 21.1111C13.4431 21.44 13.1308 21.6964 12.7653 21.8478C12.3998 21.9991 11.9977 22.0387 11.6098 21.9616C11.2218 21.8844 10.8654 21.6939 10.5857 21.4142C10.306 21.1345 10.1155 20.7781 10.0384 20.3902C9.96119 20.0022 10.0008 19.6001 10.1522 19.2346C10.3036 18.8692 10.5599 18.5568 10.8888 18.3371C11.2177 18.1173 11.6044 18 11.9999 18C12.5304 18 13.0391 18.2107 13.4141 18.5858C13.7892 18.9609 13.9999 19.4696 13.9999 20ZM19.9999 22C19.6044 22 19.2177 21.8827 18.8888 21.6629C18.5599 21.4432 18.3035 21.1308 18.1522 20.7654C18.0008 20.3999 17.9612 19.9978 18.0384 19.6098C18.1155 19.2219 18.306 18.8655 18.5857 18.5858C18.8654 18.3061 19.2218 18.1156 19.6098 18.0384C19.9977 17.9613 20.3998 18.0009 20.7653 18.1522C21.1308 18.3036 21.4431 18.56 21.6629 18.8889C21.8826 19.2178 21.9999 19.6044 21.9999 20C21.9999 20.5304 21.7892 21.0391 21.4141 21.4142C21.0391 21.7893 20.5304 22 19.9999 22Z" fill="#0128D2"/>
</g>
<defs>
<clipPath id="clip0_1_37">
<rect width="24" height="24" fill="white"/>
</clipPath>
</defs>
</symbol>

  <symbol id="i-work" viewBox="0 0 24 24" fill="none" xmlns="http://www.w3.org/2000/svg">
<g clip-path="url(#clip0_1_41)">
<path d="M19 4H17.9C17.6679 2.87141 17.0538 1.85735 16.1613 1.12872C15.2687 0.40009 14.1522 0.00145452 13 0L11 0C9.8478 0.00145452 8.73132 0.40009 7.83875 1.12872C6.94618 1.85735 6.3321 2.87141 6.1 4H5C3.6744 4.00159 2.40356 4.52888 1.46622 5.46622C0.528882 6.40356 0.00158786 7.6744 0 9L0 19C0.00158786 20.3256 0.528882 21.5964 1.46622 22.5338C2.40356 23.4711 3.6744 23.9984 5 24H19C20.3256 23.9984 21.5964 23.4711 22.5338 22.5338C23.4711 21.5964 23.9984 20.3256 24 19V9C23.9984 7.6744 23.4711 6.40356 22.5338 5.46622C21.5964 4.52888 20.3256 4.00159 19 4V4ZM11 2H13C13.6183 2.00256 14.2206 2.19608 14.7247 2.55409C15.2288 2.91209 15.6099 3.41709 15.816 4H8.184C8.39008 3.41709 8.77123 2.91209 9.2753 2.55409C9.77937 2.19608 10.3817 2.00256 11 2V2ZM5 6H19C19.7956 6 20.5587 6.31607 21.1213 6.87868C21.6839 7.44129 22 8.20435 22 9V12H2V9C2 8.20435 2.31607 7.44129 2.87868 6.87868C3.44129 6.31607 4.20435 6 5 6V6ZM19 22H5C4.20435 22 3.44129 21.6839 2.87868 21.1213C2.31607 20.5587 2 19.7956 2 19V14H11V15C11 15.2652 11.1054 15.5196 11.2929 15.7071C11.4804 15.8946 11.7348 16 12 16C12.2652 16 12.5196 15.8946 12.7071 15.7071C12.8946 15.5196 13 15.2652 13 15V14H22V19C22 19.7956 21.6839 20.5587 21.1213 21.1213C20.5587 21.6839 19.7956 22 19 22Z" fill="#0128D2"/>
</g>
<defs>
<clipPath id="clip0_1_41">
<rect width="24" height="24" fill="white"/>
</clipPath>
</defs>
</symbol>

  <symbol id="i-school" viewBox="0 0 24 24" fill="none" xmlns="http://www.w3.org/2000/svg">
<g clip-path="url(#clip0_1_27)">
<path d="M12 11.9999C13.1867 11.9999 14.3467 11.648 15.3334 10.9888C16.3201 10.3295 17.0892 9.3924 17.5433 8.29604C17.9974 7.19968 18.1162 5.99328 17.8847 4.8294C17.6532 3.66551 17.0818 2.59641 16.2426 1.7573C15.4035 0.918182 14.3344 0.346737 13.1705 0.115226C12.0067 -0.116285 10.8003 0.00253487 9.7039 0.456661C8.60754 0.910786 7.67047 1.67982 7.01118 2.66652C6.35189 3.65321 6 4.81325 6 5.99994C6.00159 7.59075 6.63424 9.11595 7.75911 10.2408C8.88399 11.3657 10.4092 11.9983 12 11.9999ZM12 1.99994C12.7911 1.99994 13.5645 2.23453 14.2223 2.67406C14.8801 3.11359 15.3928 3.7383 15.6955 4.4692C15.9983 5.20011 16.0775 6.00438 15.9231 6.7803C15.7688 7.55622 15.3878 8.26896 14.8284 8.82837C14.269 9.38778 13.5563 9.76874 12.7804 9.92308C12.0044 10.0774 11.2002 9.99821 10.4693 9.69546C9.73836 9.39271 9.11365 8.88002 8.67412 8.22222C8.2346 7.56442 8 6.79106 8 5.99994C8 4.93907 8.42143 3.92166 9.17157 3.17151C9.92172 2.42137 10.9391 1.99994 12 1.99994V1.99994Z" fill="#0128D2"/>
<path d="M12 14.0006C9.61386 14.0033 7.32621 14.9523 5.63895 16.6396C3.9517 18.3268 3.00264 20.6145 2.99999 23.0006C2.99999 23.2658 3.10535 23.5202 3.29289 23.7077C3.48042 23.8953 3.73478 24.0006 3.99999 24.0006C4.26521 24.0006 4.51956 23.8953 4.7071 23.7077C4.89464 23.5202 4.99999 23.2658 4.99999 23.0006C4.99999 21.1441 5.73749 19.3636 7.05024 18.0509C8.363 16.7381 10.1435 16.0006 12 16.0006C13.8565 16.0006 15.637 16.7381 16.9497 18.0509C18.2625 19.3636 19 21.1441 19 23.0006C19 23.2658 19.1053 23.5202 19.2929 23.7077C19.4804 23.8953 19.7348 24.0006 20 24.0006C20.2652 24.0006 20.5196 23.8953 20.7071 23.7077C20.8946 23.5202 21 23.2658 21 23.0006C20.9973 20.6145 20.0483 18.3268 18.361 16.6396C16.6738 14.9523 14.3861 14.0033 12 14.0006V14.0006Z" fill="#0128D2"/>
</g>
<defs>
<clipPath id="clip0_1_27">
<rect width="24" height="24" fill="white"/>
</clipPath>
</defs>
</symbol>

  <symbol id="i-education" viewBox="0 0 24 24" fill="none" xmlns="http://www.w3.org/2000/svg">
<g clip-path="url(#clip0_1_15)">
<path d="M11 12C11.2652 12 11.5196 12.1053 11.7071 12.2929C11.8946 12.4804 12 12.7348 12 13C12 13.2652 11.8946 13.5196 11.7071 13.7071C11.5196 13.8946 11.2652 14 11 14H7.99999C7.73478 14 7.48042 13.8946 7.29289 13.7071C7.10535 13.5196 6.99999 13.2652 6.99999 13C6.99999 12.7348 7.10535 12.4804 7.29289 12.2929C7.48042 12.1053 7.73478 12 7.99999 12H11ZM17 8.99999C17 8.73478 16.8946 8.48042 16.7071 8.29289C16.5196 8.10535 16.2652 7.99999 16 7.99999H7.99999C7.73478 7.99999 7.48042 8.10535 7.29289 8.29289C7.10535 8.48042 6.99999 8.73478 6.99999 8.99999C6.99999 9.26521 7.10535 9.51956 7.29289 9.7071C7.48042 9.89464 7.73478 9.99999 7.99999 9.99999H16C16.2652 9.99999 16.5196 9.89464 16.7071 9.7071C16.8946 9.51956 17 9.26521 17 8.99999ZM7.99999 5.99999H16C16.2652 5.99999 16.5196 5.89464 16.7071 5.7071C16.8946 5.51956 17 5.26521 17 4.99999C17 4.73478 16.8946 4.48042 16.7071 4.29289C16.5196 4.10535 16.2652 3.99999 16 3.99999H7.99999C7.73478 3.99999 7.48042 4.10535 7.29289 4.29289C7.10535 4.48042 6.99999 4.73478 6.99999 4.99999C6.99999 5.26521 7.10535 5.51956 7.29289 5.7071C7.48042 5.89464 7.73478 5.99999 7.99999 5.99999ZM20 19.444V23.277C20.0001 23.4196 19.9578 23.5591 19.8786 23.6777C19.7994 23.7964 19.6867 23.8888 19.555 23.9434C19.4232 23.998 19.2781 24.0123 19.1382 23.9845C18.9983 23.9566 18.8698 23.8879 18.769 23.787L18 23.019L17.231 23.787C17.1302 23.8879 17.0017 23.9566 16.8617 23.9845C16.7218 24.0123 16.5768 23.998 16.445 23.9434C16.3132 23.8888 16.2006 23.7964 16.1214 23.6777C16.0422 23.5591 15.9999 23.4196 16 23.277V19.444C15.2373 19.0058 14.641 18.3277 14.3038 17.5154C13.9666 16.703 13.9076 15.8019 14.1358 14.9525C14.364 14.103 14.8667 13.3529 15.5656 12.8189C16.2645 12.2849 17.1204 11.997 18 12C18.338 12.0042 18.6741 12.0519 19 12.142V4.99999C19 4.20434 18.6839 3.44128 18.1213 2.87867C17.5587 2.31606 16.7956 1.99999 16 1.99999H7.99999C7.20434 1.99999 6.44128 2.31606 5.87867 2.87867C5.31606 3.44128 4.99999 4.20434 4.99999 4.99999V17C4.99999 17.7956 5.31606 18.5587 5.87867 19.1213C6.44128 19.6839 7.20434 20 7.99999 20H13C13.2652 20 13.5196 20.1053 13.7071 20.2929C13.8946 20.4804 14 20.7348 14 21C14 21.2652 13.8946 21.5196 13.7071 21.7071C13.5196 21.8946 13.2652 22 13 22H7.99999C6.6744 21.9984 5.40355 21.4711 4.46621 20.5338C3.52887 19.5964 3.00158 18.3256 2.99999 17V4.99999C3.00158 3.6744 3.52887 2.40355 4.46621 1.46621C5.40355 0.528874 6.6744 0.00158023 7.99999 -7.62939e-06L16 -7.62939e-06C17.3256 0.00158023 18.5964 0.528874 19.5338 1.46621C20.4711 2.40355 20.9984 3.6744 21 4.99999V13.382C21.3917 13.8219 21.6801 14.3438 21.844 14.9096C22.0079 15.4753 22.0433 16.0706 21.9474 16.6518C21.8515 17.2329 21.6269 17.7853 21.2899 18.2684C20.953 18.7516 20.5122 19.1532 20 19.444V19.444ZM20 16C20 15.6044 19.8827 15.2178 19.6629 14.8889C19.4432 14.56 19.1308 14.3036 18.7654 14.1522C18.3999 14.0009 17.9978 13.9613 17.6098 14.0384C17.2218 14.1156 16.8655 14.3061 16.5858 14.5858C16.3061 14.8655 16.1156 15.2218 16.0384 15.6098C15.9613 15.9978 16.0009 16.3999 16.1522 16.7654C16.3036 17.1308 16.56 17.4432 16.8889 17.6629C17.2177 17.8827 17.6044 18 18 18C18.5304 18 19.0391 17.7893 19.4142 17.4142C19.7893 17.0391 20 16.5304 20 16Z" fill="#0128D2"/>
</g>
<defs>
<clipPath id="clip0_1_15">
<rect width="24" height="24" fill="white"/>
</clipPath>
</defs>
</symbol>

  <symbol id="i-science" viewBox="0 0 24 24" fill="none" xmlns="http://www.w3.org/2000/svg">
<g clip-path="url(#clip0_1_11)">
<path d="M20.0001 12.0001C19.3866 12 18.7814 12.1412 18.2313 12.4127C17.6812 12.6843 17.201 13.079 16.8281 13.5661L16.7581 13.5361C17.0331 12.6841 17.0743 11.7739 16.8775 10.9005C16.6806 10.0272 16.2528 9.2227 15.6388 8.57113C15.0249 7.91955 14.2472 7.44478 13.3871 7.19639C12.527 6.94801 11.6159 6.93512 10.7491 7.15907L10.6581 6.98707C11.3845 6.3408 11.8502 5.45181 11.9681 4.48671C12.086 3.52162 11.8478 2.54667 11.2983 1.74458C10.7489 0.942482 9.92572 0.368302 8.9832 0.129644C8.04069 -0.109014 7.04348 0.00423214 6.17848 0.448159C5.31348 0.892085 4.64006 1.63622 4.28442 2.5411C3.92878 3.44599 3.91534 4.44951 4.24661 5.3636C4.57788 6.27768 5.23112 7.03959 6.08392 7.50653C6.93672 7.97347 7.93053 8.11339 8.8791 7.90007L8.9521 8.03707C7.95215 8.8044 7.27949 9.92159 7.06915 11.1643C6.85881 12.4071 7.12636 13.6834 7.8181 14.7371L5.9331 16.5001C5.08107 16.0293 4.08661 15.8854 3.13609 16.0954C2.18557 16.3053 1.34422 16.8546 0.769695 17.6404C0.195175 18.4262 -0.0730806 19.3946 0.0151964 20.364C0.103473 21.3334 0.542224 22.2374 1.24923 22.9065C1.95624 23.5756 2.88298 23.9639 3.85578 23.9987C4.82859 24.0335 5.78069 23.7123 6.53368 23.0954C7.28667 22.4785 7.78886 21.6082 7.94615 20.6476C8.10344 19.6869 7.90503 18.7019 7.3881 17.8771L9.2261 16.1591C10.2356 16.8338 11.4563 17.1176 12.6599 16.9572C13.8635 16.7969 14.9674 16.2035 15.7651 15.2881L16.0441 15.4071C15.9231 16.2145 16.052 17.0397 16.4136 17.7717C16.7753 18.5037 17.3522 19.1076 18.0671 19.5021C18.7819 19.8966 19.6004 20.063 20.4125 19.9787C21.2246 19.8945 21.9915 19.5638 22.6102 19.031C23.2289 18.4982 23.6697 17.7888 23.8734 16.9981C24.0771 16.2075 24.034 15.3734 23.7498 14.608C23.4657 13.8425 22.9541 13.1824 22.2838 12.7162C21.6135 12.25 20.8166 12.0001 20.0001 12.0001V12.0001ZM6.0001 4.00007C6.0001 3.60451 6.1174 3.21783 6.33716 2.88893C6.55692 2.56003 6.86928 2.30369 7.23473 2.15231C7.60018 2.00094 8.00232 1.96133 8.39028 2.0385C8.77824 2.11567 9.13461 2.30615 9.41431 2.58586C9.69402 2.86556 9.8845 3.22193 9.96167 3.60989C10.0388 3.99785 9.99923 4.39999 9.84786 4.76544C9.69648 5.13089 9.44014 5.44325 9.11124 5.66301C8.78234 5.88277 8.39566 6.00007 8.0001 6.00007C7.46967 6.00007 6.96096 5.78936 6.58588 5.41429C6.21081 5.03921 6.0001 4.53051 6.0001 4.00007ZM4.0001 22.0001C3.60454 22.0001 3.21786 21.8828 2.88896 21.663C2.56006 21.4432 2.30371 21.1309 2.15234 20.7654C2.00096 20.4 1.96136 19.9979 2.03853 19.6099C2.1157 19.2219 2.30618 18.8656 2.58588 18.5859C2.86559 18.3062 3.22196 18.1157 3.60992 18.0385C3.99788 17.9613 4.40001 18.0009 4.76547 18.1523C5.13092 18.3037 5.44327 18.56 5.66304 18.8889C5.8828 19.2178 6.0001 19.6045 6.0001 20.0001C6.0001 20.5305 5.78938 21.0392 5.41431 21.4143C5.03924 21.7894 4.53053 22.0001 4.0001 22.0001ZM12.0001 15.0001C11.3508 14.9988 10.7194 14.7869 10.2008 14.3962C9.6822 14.0055 9.30435 13.4571 9.124 12.8333C8.94366 12.2096 8.97056 11.5441 9.20066 10.9369C9.43076 10.3298 9.85165 9.81364 10.4001 9.46607L10.8071 9.24907C11.2161 9.07118 11.6595 8.9867 12.1053 9.00179C12.551 9.01688 12.9877 9.13115 13.3837 9.33629C13.7797 9.54143 14.125 9.83228 14.3944 10.1877C14.6638 10.5431 14.8506 10.954 14.9412 11.3907C15.0318 11.8274 15.0239 12.2788 14.9181 12.712C14.8122 13.1452 14.6111 13.5494 14.3294 13.8952C14.0477 14.2409 13.6924 14.5195 13.2895 14.7106C12.8866 14.9017 12.4461 15.0006 12.0001 15.0001V15.0001ZM20.0001 18.0001C19.6045 18.0001 19.2179 17.8828 18.889 17.663C18.5601 17.4432 18.3037 17.1309 18.1523 16.7654C18.001 16.4 17.9614 15.9979 18.0385 15.6099C18.1157 15.2219 18.3062 14.8656 18.5859 14.5859C18.8656 14.3062 19.222 14.1157 19.6099 14.0385C19.9979 13.9613 20.4 14.0009 20.7655 14.1523C21.1309 14.3037 21.4433 14.56 21.663 14.8889C21.8828 15.2178 22.0001 15.6045 22.0001 16.0001C22.0001 16.5305 21.7894 17.0392 21.4143 17.4143C21.0392 17.7894 20.5305 18.0001 20.0001 18.0001Z" fill="#0128D2"/>
</g>
<defs>
<clipPath id="clip0_1_11">
<rect width="24" height="24" fill="white"/>
</clipPath>
</defs>
</symbol>

  <symbol id="i-stud" viewBox="0 0 24 24" fill="none" xmlns="http://www.w3.org/2000/svg">
<g clip-path="url(#clip0_1_33)">
<path d="M22.0568 5.22983L14.6828 1.71683C13.0596 0.747264 11.0393 0.730061 9.39982 1.67183L1.94285 5.22983C1.91486 5.24384 1.88585 5.25884 1.85885 5.27483C0.0892236 6.28667 -0.52512 8.5415 0.486724 10.3111C0.829708 10.911 1.33422 11.4026 1.94285 11.7298L3.99986 12.7099V17.6098C4.00108 19.8009 5.42679 21.7367 7.51886 22.3879C8.97476 22.809 10.4844 23.0152 11.9999 22.9999C13.5152 23.0168 15.0248 22.8124 16.4809 22.3929C18.573 21.7417 19.9987 19.8059 19.9999 17.6149V12.7078L21.9999 11.7518V19.9998C21.9999 20.5521 22.4476 20.9998 22.9999 20.9998C23.5522 20.9998 23.9999 20.5521 23.9999 19.9998V7.99981C24.0065 6.82555 23.0793 5.74076 22.0568 5.22983ZM17.9998 17.6149C18.0003 18.9254 17.15 20.0847 15.8998 20.4778C14.6321 20.8401 13.3183 21.0159 11.9998 20.9998C10.6814 21.0159 9.36761 20.8401 8.09983 20.4778C6.84963 20.0847 5.99932 18.9254 5.99983 17.6149V13.6629L9.31685 15.2429C10.1353 15.7289 11.07 15.9843 12.0219 15.9819C12.9279 15.9883 13.8186 15.7484 14.5989 15.2879L17.9998 13.6628V17.6149ZM21.1998 9.92483L13.6578 13.5248C12.6063 14.1372 11.3028 14.1198 10.2678 13.4798L2.88883 9.96983C2.06632 9.52629 1.7591 8.49997 2.20263 7.6775C2.35263 7.39934 2.57754 7.16876 2.85185 7.01183L10.3468 3.43184C11.3988 2.82087 12.7015 2.83817 13.7368 3.47684L21.1108 6.98984C21.6531 7.29097 21.9924 7.85961 21.9998 8.47986C22.0008 9.06739 21.6983 9.61376 21.1998 9.92483Z" fill="#0128D2"/>
</g>
<defs>
<clipPath id="clip0_1_33">
<rect width="24" height="24" fill="white"/>
</clipPath>
</defs>
</symbol>

  <symbol id="i-univer" viewBox="0 0 24 24" fill="none" xmlns="http://www.w3.org/2000/svg">
<g clip-path="url(#clip0_0_3)">
<path d="M7 14C7 14.2652 6.89464 14.5196 6.70711 14.7071C6.51957 14.8946 6.26522 15 6 15H5C4.73478 15 4.48043 14.8946 4.29289 14.7071C4.10536 14.5196 4 14.2652 4 14C4 13.7348 4.10536 13.4804 4.29289 13.2929C4.48043 13.1054 4.73478 13 5 13H6C6.26522 13 6.51957 13.1054 6.70711 13.2929C6.89464 13.4804 7 13.7348 7 14ZM11 13H10C9.73478 13 9.48043 13.1054 9.29289 13.2929C9.10536 13.4804 9 13.7348 9 14C9 14.2652 9.10536 14.5196 9.29289 14.7071C9.48043 14.8946 9.73478 15 10 15H11C11.2652 15 11.5196 14.8946 11.7071 14.7071C11.8946 14.5196 12 14.2652 12 14C12 13.7348 11.8946 13.4804 11.7071 13.2929C11.5196 13.1054 11.2652 13 11 13ZM6 17H5C4.73478 17 4.48043 17.1054 4.29289 17.2929C4.10536 17.4804 4 17.7348 4 18C4 18.2652 4.10536 18.5196 4.29289 18.7071C4.48043 18.8946 4.73478 19 5 19H6C6.26522 19 6.51957 18.8946 6.70711 18.7071C6.89464 18.5196 7 18.2652 7 18C7 17.7348 6.89464 17.4804 6.70711 17.2929C6.51957 17.1054 6.26522 17 6 17ZM11 17H10C9.73478 17 9.48043 17.1054 9.29289 17.2929C9.10536 17.4804 9 17.7348 9 18C9 18.2652 9.10536 18.5196 9.29289 18.7071C9.48043 18.8946 9.73478 19 10 19H11C11.2652 19 11.5196 18.8946 11.7071 18.7071C11.8946 18.5196 12 18.2652 12 18C12 17.7348 11.8946 17.4804 11.7071 17.2929C11.5196 17.1054 11.2652 17 11 17ZM6 5H5C4.73478 5 4.48043 5.10536 4.29289 5.29289C4.10536 5.48043 4 5.73478 4 6C4 6.26522 4.10536 6.51957 4.29289 6.70711C4.48043 6.89464 4.73478 7 5 7H6C6.26522 7 6.51957 6.89464 6.70711 6.70711C6.89464 6.51957 7 6.26522 7 6C7 5.73478 6.89464 5.48043 6.70711 5.29289C6.51957 5.10536 6.26522 5 6 5ZM11 5H10C9.73478 5 9.48043 5.10536 9.29289 5.29289C9.10536 5.48043 9 5.73478 9 6C9 6.26522 9.10536 6.51957 9.29289 6.70711C9.48043 6.89464 9.73478 7 10 7H11C11.2652 7 11.5196 6.89464 11.7071 6.70711C11.8946 6.51957 12 6.26522 12 6C12 5.73478 11.8946 5.48043 11.7071 5.29289C11.5196 5.10536 11.2652 5 11 5ZM6 9H5C4.73478 9 4.48043 9.10536 4.29289 9.29289C4.10536 9.48043 4 9.73478 4 10C4 10.2652 4.10536 10.5196 4.29289 10.7071C4.48043 10.8946 4.73478 11 5 11H6C6.26522 11 6.51957 10.8946 6.70711 10.7071C6.89464 10.5196 7 10.2652 7 10C7 9.73478 6.89464 9.48043 6.70711 9.29289C6.51957 9.10536 6.26522 9 6 9ZM11 9H10C9.73478 9 9.48043 9.10536 9.29289 9.29289C9.10536 9.48043 9 9.73478 9 10C9 10.2652 9.10536 10.5196 9.29289 10.7071C9.48043 10.8946 9.73478 11 10 11H11C11.2652 11 11.5196 10.8946 11.7071 10.7071C11.8946 10.5196 12 10.2652 12 10C12 9.73478 11.8946 9.48043 11.7071 9.29289C11.5196 9.10536 11.2652 9 11 9ZM24 10V19C23.9984 20.3256 23.4711 21.5964 22.5338 22.5338C21.5964 23.4711 20.3256 23.9984 19 24H5C3.6744 23.9984 2.40356 23.4711 1.46622 22.5338C0.528882 21.5964 0.00158786 20.3256 0 19L0 5C0.00158786 3.6744 0.528882 2.40356 1.46622 1.46622C2.40356 0.528882 3.6744 0.00158786 5 0L11 0C12.3256 0.00158786 13.5964 0.528882 14.5338 1.46622C15.4711 2.40356 15.9984 3.6744 16 5H19C20.3256 5.00159 21.5964 5.52888 22.5338 6.46622C23.4711 7.40356 23.9984 8.6744 24 10V10ZM5 22H14V5C14 4.20435 13.6839 3.44129 13.1213 2.87868C12.5587 2.31607 11.7956 2 11 2H5C4.20435 2 3.44129 2.31607 2.87868 2.87868C2.31607 3.44129 2 4.20435 2 5V19C2 19.7956 2.31607 20.5587 2.87868 21.1213C3.44129 21.6839 4.20435 22 5 22ZM22 10C22 9.20435 21.6839 8.44129 21.1213 7.87868C20.5587 7.31607 19.7956 7 19 7H16V22H19C19.7956 22 20.5587 21.6839 21.1213 21.1213C21.6839 20.5587 22 19.7956 22 19V10ZM19 13C18.8022 13 18.6089 13.0586 18.4444 13.1685C18.28 13.2784 18.1518 13.4346 18.0761 13.6173C18.0004 13.8 17.9806 14.0011 18.0192 14.1951C18.0578 14.3891 18.153 14.5673 18.2929 14.7071C18.4327 14.847 18.6109 14.9422 18.8049 14.9808C18.9989 15.0194 19.2 14.9996 19.3827 14.9239C19.5654 14.8482 19.7216 14.72 19.8315 14.5556C19.9414 14.3911 20 14.1978 20 14C20 13.7348 19.8946 13.4804 19.7071 13.2929C19.5196 13.1054 19.2652 13 19 13ZM19 17C18.8022 17 18.6089 17.0586 18.4444 17.1685C18.28 17.2784 18.1518 17.4346 18.0761 17.6173C18.0004 17.8 17.9806 18.0011 18.0192 18.1951C18.0578 18.3891 18.153 18.5673 18.2929 18.7071C18.4327 18.847 18.6109 18.9422 18.8049 18.9808C18.9989 19.0194 19.2 18.9996 19.3827 18.9239C19.5654 18.8482 19.7216 18.72 19.8315 18.5556C19.9414 18.3911 20 18.1978 20 18C20 17.7348 19.8946 17.4804 19.7071 17.2929C19.5196 17.1054 19.2652 17 19 17ZM19 9C18.8022 9 18.6089 9.05865 18.4444 9.16853C18.28 9.27841 18.1518 9.43459 18.0761 9.61732C18.0004 9.80004 17.9806 10.0011 18.0192 10.1951C18.0578 10.3891 18.153 10.5673 18.2929 10.7071C18.4327 10.847 18.6109 10.9422 18.8049 10.9808C18.9989 11.0194 19.2 10.9996 19.3827 10.9239C19.5654 10.8482 19.7216 10.72 19.8315 10.5556C19.9414 10.3911 20 10.1978 20 10C20 9.73478 19.8946 9.48043 19.7071 9.29289C19.5196 9.10536 19.2652 9 19 9Z" fill="#0128D2"/>
</g>
<defs>
<clipPath id="clip0_0_3">
<rect width="24" height="24" fill="white"/>
</clipPath>
</defs>
</symbol>


  
  <symbol id="i-enroll" viewBox="0 0 16 17" fill="none" xmlns="http://www.w3.org/2000/svg">
    <path 
      d="M7.33331 3.16669H2.66665C2.31302 3.16669 1.97389 3.30716 1.72384 3.55721C1.47379 3.80726 1.33331 4.1464 1.33331 4.50002V13.8334C1.33331 14.187 1.47379 14.5261 1.72384 14.7762C1.97389 15.0262 2.31302 15.1667 2.66665 15.1667H12C12.3536 15.1667 12.6927 15.0262 12.9428 14.7762C13.1928 14.5261 13.3333 14.187 13.3333 13.8334V9.16669" stroke="white" stroke-linecap="round" stroke-linejoin="round"/>
    <path 
      d="M12.3333 2.16665C12.5985 1.90144 12.9582 1.75244 13.3333 1.75244C13.7084 1.75244 14.0681 1.90144 14.3333 2.16665C14.5985 2.43187 14.7475 2.79158 14.7475 3.16665C14.7475 3.54173 14.5985 3.90144 14.3333 4.16665L7.99998 10.5L5.33331 11.1667L5.99998 8.49999L12.3333 2.16665Z" stroke="white" stroke-linecap="round" stroke-linejoin="round"/>
  </symbol>

  <symbol id="i-arrow" viewBox="0 0 24 24" fill="none" xmlns="http://www.w3.org/2000/svg">
    <path 
      d="M6 9L12 15L18 9" stroke="#8e95a2" stroke-width="1.5" stroke-linecap="round" stroke-linejoin="round"/>
  </symbol>


  <symbol id="i-faq" viewBox="0 0 24 24" fill="none" xmlns="http://www.w3.org/2000/svg">
<g clip-path="url(#clip0_1_19)">
<path d="M12 0C9.62663 0 7.30655 0.703788 5.33316 2.02236C3.35977 3.34094 1.8217 5.21509 0.913447 7.4078C0.00519562 9.60051 -0.232444 12.0133 0.230578 14.3411C0.693601 16.6689 1.83649 18.8071 3.51472 20.4853C5.19295 22.1635 7.33115 23.3064 9.65892 23.7694C11.9867 24.2324 14.3995 23.9948 16.5922 23.0866C18.7849 22.1783 20.6591 20.6402 21.9776 18.6668C23.2962 16.6935 24 14.3734 24 12C23.9966 8.81846 22.7312 5.76821 20.4815 3.51852C18.2318 1.26883 15.1815 0.00344108 12 0V0ZM12 22C10.0222 22 8.08879 21.4135 6.4443 20.3147C4.79981 19.2159 3.51808 17.6541 2.76121 15.8268C2.00433 13.9996 1.8063 11.9889 2.19215 10.0491C2.578 8.10929 3.53041 6.32746 4.92893 4.92893C6.32746 3.53041 8.10929 2.578 10.0491 2.19215C11.9889 1.8063 13.9996 2.00433 15.8268 2.7612C17.6541 3.51808 19.2159 4.79981 20.3147 6.4443C21.4135 8.08879 22 10.0222 22 12C21.9971 14.6513 20.9426 17.1931 19.0679 19.0679C17.1931 20.9426 14.6513 21.9971 12 22Z" fill="#19191D"/>
<path d="M11.9998 10.0003H10.9998C10.7346 10.0003 10.4803 10.1057 10.2927 10.2932C10.1052 10.4807 9.99984 10.7351 9.99984 11.0003C9.99984 11.2655 10.1052 11.5199 10.2927 11.7074C10.4803 11.8949 10.7346 12.0003 10.9998 12.0003H11.9998V18.0003C11.9998 18.2655 12.1052 18.5199 12.2927 18.7074C12.4803 18.8949 12.7346 19.0003 12.9998 19.0003C13.2651 19.0003 13.5194 18.8949 13.7069 18.7074C13.8945 18.5199 13.9998 18.2655 13.9998 18.0003V12.0003C13.9998 11.4699 13.7891 10.9612 13.414 10.5861C13.039 10.211 12.5303 10.0003 11.9998 10.0003Z" fill="#19191D"/>
<path d="M12 7.99969C12.8284 7.99969 13.5 7.32811 13.5 6.49969C13.5 5.67126 12.8284 4.99969 12 4.99969C11.1716 4.99969 10.5 5.67126 10.5 6.49969C10.5 7.32811 11.1716 7.99969 12 7.99969Z" fill="#19191D"/>
</g>
<defs>
<clipPath id="clip0_1_19">
<rect width="24" height="24" fill="white"/>
</clipPath>
</defs>
</symbol>

  
  <symbol id="i-geo" viewBox="0 0 24 24" fill="none" xmlns="http://www.w3.org/2000/svg">
    <path 
      d="M12.5599 20.8207C12.2247 21.0598 11.7753 21.0598 11.4401 20.8207C6.61138 17.3773 1.48557 10.2971 6.6667 5.18128C8.08118 3.78463 9.99963 3 12 3C14.0004 3 15.9188 3.78463 17.3333 5.18128C22.5144 10.2971 17.3886 17.3773 12.5599 20.8207Z" stroke="#4b505e" stroke-width="1.5" stroke-linecap="round" stroke-linejoin="round"/>
    <path 
      d="M12 12C13.1045 12 14 11.1046 14 10C14 8.89543 13.1045 8 12 8C10.8954 8 9.99997 8.89543 9.99997 10C9.99997 11.1046 10.8954 12 12 12Z" stroke="#4b505e" stroke-width="1.5" stroke-linecap="round" stroke-linejoin="round"/>
  </symbol>

  <symbol id="i-blind" viewBox="0 0 24 24" fill="none" xmlns="http://www.w3.org/2000/svg">
    <path 
      d="M2.54962 13.4056C2.27782 13.0326 2.14191 12.8462 2.04837 12.4854C1.9839 12.2367 1.9839 11.7633 2.04837 11.5146C2.14191 11.1538 2.27782 10.9674 2.54962 10.5944C4.03904 8.55068 7.30263 5 12 5C16.6974 5 19.961 8.55068 21.4504 10.5944C21.7222 10.9674 21.8581 11.1538 21.9517 11.5146C22.0161 11.7633 22.0161 12.2367 21.9517 12.4854C21.8581 12.8462 21.7222 13.0326 21.4504 13.4056C19.961 15.4493 16.6974 19 12 19C7.30263 19 4.03904 15.4493 2.54962 13.4056Z" stroke="#19191d" stroke-width="1.5" stroke-linecap="round" stroke-linejoin="round"/>
    <path 
      d="M12 14C13.1046 14 14 13.1046 14 12C14 10.8954 13.1046 10 12 10C10.8954 10 10 10.8954 10 12C10 13.1046 10.8954 14 12 14Z" stroke="#4b505e" stroke-width="1.5" stroke-linecap="round" stroke-linejoin="round"/>
  </symbol>

  <symbol id="i-logo" viewBox="0 0 71 48">
  <path fill-rule="evenodd" clip-rule="evenodd" 
    d="M24.818 47.997c1.828.003 3.638-.802 4.712-1.823l-1.196-1.9c-.572.765-1.718 1.607-3.346 1.686-2.565.124-4.606-1.674-4.606-3.872 0-3.785 5.403-5.248 7.855-2.31L29.42 37.9c-1.052-.975-2.72-1.726-4.52-1.72-3.775.01-6.8 2.544-6.8 5.908 0 3.365 2.994 5.901 6.718 5.91z" />
  <path 
    d="M39.985 47.667h2.644l-3.879-6.045 3.517-5.437h-2.671l-3.136 4.887-2.297-.016-.018-4.871h-2.51l.018 11.482h2.51v-4.63l2.847-.006 2.975 4.636z" />
  <path 
    d="M44.479 41.99c0-2.33 1.576-3.589 4.666-3.814v7.63c-2.975-.244-4.666-1.504-4.666-3.815zm6.972 3.815v-7.629c3.033.206 4.685 1.485 4.685 3.796 0 2.31-1.612 3.608-4.685 3.833zm7.085-3.814c0-3.457-2.555-5.524-7.085-5.75h-2.306c-4.532.226-7.106 2.274-7.106 5.75 0 3.457 2.574 5.505 7.106 5.73h2.306c4.533-.187 7.085-2.273 7.085-5.73zm9.908-5.752c-1.262 2.105-2.345 4.004-3.76 6.164l-3.745-6.164h-2.558l4.992 8.223c-.55.755-1.174 1.492-2.285 1.492-.237 0-.48-.03-.739-.08l1.135 1.833c1.478.014 2.78-.5 3.909-2.343l5.603-9.125h-2.552z" />
  <path fill-rule="evenodd" clip-rule="evenodd" 
    d="M.636 23.291c3.03 3.273 7.194 5.416 11.919 5.977-.15.138-.271.339-.393.463-3.614.277-6.88-.409-9.984-2.1-.639-1.373-1.205-2.836-1.542-4.34z" />
  <path fill-rule="evenodd" clip-rule="evenodd" 
    d="M13.924 27.951c-.198.16-.52.445-.67.607C7.721 27.526 3.167 24.511.22 20.222c-.22-2.704.06-5.375.867-7.987C2.2 19.119 6.876 24.898 13.925 27.951z" />
  <path fill-rule="evenodd" clip-rule="evenodd" 
    d="M16.162 26.383c-.45.263-1.125.66-1.575 1.021C7.19 23.262 3.103 16.56 2.507 8.87 4.811 4.86 6.822 2.734 10.564 0 5.536 9.948 9 20.336 16.162 26.383z" />
  <path fill-rule="evenodd" clip-rule="evenodd" 
    d="M21.885 4.79c5.661 3.221 13.558 12.343 9.868 20.558-2.944 6.554-8.947 8.206-11.015 9.371-2.069 1.165-6.118 4.438-4.618 9.499-4.332-1.65-5.795-5.62-4.375-9.217 3.158-8 10.286-6.825 12.312-17.537.912-4.83-1.022-10.699-2.172-12.674zM3.09 29.433c2.705 1.314 5.552 1.69 8.54 1.014-.089.122-.283.46-.378.58-2.096.942-4.295.97-6.616.622-.609-.772-.965-1.379-1.546-2.216zm2.462 3.373c1.728.25 3.65-.14 5.199-.92l-.256.612c-.973.988-2.552 1.349-3.857 1.403-.472-.333-.742-.748-1.086-1.095z" />
</symbol>

<symbol id="i-lang" viewBox="0 0 24 24" fill="none" xmlns="http://www.w3.org/2000/svg">
  <path 
    d="M12 21C16.9706 21 21 16.9706 21 12C21 7.02944 16.9706 3 12 3M12 21C7.02944 21 3 16.9706 3 12C3 7.02944 7.02944 3 12 3M12 21C14.7614 21 15.9413 15.837 15.9413 12C15.9413 8.16303 14.7614 3 12 3M12 21C9.23858 21 8.05895 15.8369 8.05895 12C8.05895 8.16307 9.23858 3 12 3M3.49988 8.99998C10.1388 8.99998 13.861 8.99998 20.4999 8.99998M3.49988 15C10.1388 15 13.861 15 20.4999 15" stroke="#4b505e" stroke-width="1.5" stroke-linecap="round" stroke-linejoin="round"/>
</symbol>

<symbol id="i-search" viewBox="0 0 24 24" fill="none" xmlns="http://www.w3.org/2000/svg">
  <path 
    d="M16.8928 16.9199L19.973 20M19.0841 11.5811C19.0841 15.768 15.7013 19.1622 11.5285 19.1622C7.3557 19.1622 3.97296 15.768 3.97296 11.5811C3.97296 7.39418 7.3557 4 11.5285 4C15.7013 4 19.0841 7.39418 19.0841 11.5811Z" stroke="#4b505e" stroke-width="1.5" stroke-linecap="round" stroke-linejoin="round"/>
</symbol>
    
    <symbol id="i-logo-small" viewBox="0 0 35 35">
      <path d="M17.5 0C27.2 0 35 7.8 35 17.5S27.2 35 17.5 35 0 27.2 0 17.5 7.8 0 17.5 0z"
        fill="#0128d2" />
      <clipPath id="b">
        <path id="a" d="M4 5h26v27H4z" overflow="visible" />
      </clipPath>
      <g clip-path="url(#b)" fill="#fff">
        <path
          d="M14.5 23.5c-2.8.6-5.4.3-7.9-.9.5.7.9 1.2 1.4 1.9 2.2.3 4.2.3 6.1-.5.1-.1.3-.4.4-.5zm.8-1c-4.4-.5-8.2-2.3-11.1-5 .3 1.3.8 2.5 1.4 3.6 2.9 1.4 5.9 2 9.3 1.8.2-.1.3-.3.4-.4zm7.1-15.6c.8 1.3 2.2 5 1.5 8.1-1.4 6.8-6.4 6.1-8.6 11.1-1 2.3 0 4.8 3.1 5.9-1.1-3.2 1.8-5.3 3.2-6 1.5-.7 5.7-1.8 7.7-6 2.6-5.2-2.9-11-6.9-13.1zM8.8 25.5c.3.3.6.6 1 .9 1.2 0 2.7-.3 3.6-1.2l.2-.5c-1.4.7-3.2 1-4.8.8z" />
        <path
          d="M6.7 9c1.4 4.9 5 9.1 10.5 11.9.4-.3 1-.6 1.5-.9-4.8-3.7-7.8-9.2-7.4-15.1C9.5 6 7.9 7.4 6.7 9zm-2-.8z" />
        <path
          d="M16 21.9c.1-.1.4-.4.6-.5-5.5-2.2-9.4-5.9-11.2-10.5-.7 1.3-1.2 2.7-1.5 4.1 2.8 3.6 7 6.1 12.1 6.9z" />
      </g>
    </symbol>
    <symbol id="i-arrow" viewBox="0 0 18 18" xmlns="http://www.w3.org/2000/svg">
      <path
        d="M5.584 4.315L9.997 9l-4.412 4.684a1.24 1.24 0 00-.335.855c0 .324.119.628.335.858.445.47 1.168.47 1.613 0l5.22-5.542a1.266 1.266 0 00-.002-1.712l-5.22-5.54a1.101 1.101 0 00-.805-.353 1.11 1.11 0 00-.807.353 1.239 1.239 0 00-.334.856c0 .324.119.628.334.856z" />
    </symbol>
    <symbol id="icon-odnoklassniki" viewBox="0 0 32 32">
      <path
        d="M19.34 23.253a15.473 15.473 0 004.8-1.987 2.422 2.422 0 00-2.58-4.097 10.487 10.487 0 01-11.12 0 2.419 2.419 0 00-3.333.753c0 .003 0 .005-.003.007a2.417 2.417 0 00.756 3.333l.003.003c1.473.927 3.096 1.6 4.795 1.984l-4.62 4.62a2.394 2.394 0 00-.037 3.383l.04.04c.459.472 1.08.707 1.699.707.62 0 1.24-.235 1.7-.707l4.561-4.539 4.539 4.541a2.42 2.42 0 003.421-.06 2.42 2.42 0 000-3.36zM16 16.517a8.269 8.269 0 008.26-8.257C24.26 3.707 20.553 0 16 0S7.74 3.707 7.74 8.263A8.265 8.265 0 0016 16.518zm0-11.676a3.424 3.424 0 013.419 3.42A3.422 3.422 0 0116 11.681a3.425 3.425 0 01-3.42-3.419A3.425 3.425 0 0116 4.841z" />
    </symbol>
    <symbol id="icon-tiktok" viewBox="0 0 32 32">
      <path
        d="M16.707.027C18.454 0 20.187.014 21.92 0c.107 2.04.84 4.12 2.333 5.56 1.493 1.48 3.6 2.16 5.653 2.387v5.373c-1.92-.067-3.853-.467-5.6-1.293-.76-.347-1.467-.787-2.16-1.24-.013 3.893.013 7.787-.027 11.667-.107 1.867-.72 3.72-1.8 5.253-1.747 2.56-4.773 4.227-7.88 4.28-1.907.107-3.813-.413-5.44-1.373-2.693-1.587-4.587-4.493-4.867-7.613a24.42 24.42 0 01-.013-1.987 10.004 10.004 0 013.44-6.613c2.213-1.92 5.307-2.84 8.2-2.293.027 1.973-.053 3.947-.053 5.92-1.32-.427-2.867-.307-4.027.493a4.631 4.631 0 00-1.813 2.333c-.28.68-.2 1.427-.187 2.147.32 2.187 2.427 4.027 4.667 3.827 1.493-.013 2.92-.88 3.693-2.147.253-.44.533-.893.547-1.413.133-2.387.08-4.76.093-7.147.013-5.373-.013-10.733.027-16.093z" />
    </symbol>
    <symbol id="icon-twitter" viewBox="0 0 32 32">
      <path
        d="M32 7.075a12.941 12.941 0 01-3.769 1.031 6.601 6.601 0 002.887-3.631 13.21 13.21 0 01-4.169 1.594A6.565 6.565 0 0022.155 4a6.563 6.563 0 00-6.563 6.563c0 .512.056 1.012.169 1.494A18.635 18.635 0 012.23 5.195a6.56 6.56 0 00-.887 3.3 6.557 6.557 0 002.919 5.463 6.565 6.565 0 01-2.975-.819v.081a6.565 6.565 0 005.269 6.437 6.574 6.574 0 01-2.968.112 6.588 6.588 0 006.131 4.563 13.17 13.17 0 01-9.725 2.719 18.568 18.568 0 0010.069 2.95c12.075 0 18.681-10.006 18.681-18.681 0-.287-.006-.569-.019-.85A13.216 13.216 0 0032 7.076z" />
    </symbol>
    <symbol id="icon-pencil2" viewBox="0 0 32 32">
      <path
        d="M12 20l4-2L30 4l-2-2-14 14-2 4zm-2.959 7.097c-.989-2.085-2.052-3.149-4.137-4.137l3.097-8.525 4-2.435 12-12h-6l-12 12-6 20 20-6 12-12V8l-12 12-2.435 4z" />
    </symbol>
    <symbol id="icon-light-bulb" viewBox="0 0 20 20">
      <path
        d="M7.186 19.172c.789.51 1.701.855 2.814.828 1.111.027 2.025-.318 2.814-.828L12.797 17H7.203l-.017 2.172zM12.697 16c0-4.357 4.63-5.848 4.283-10.188-.218-2.738-2.073-5.81-6.98-5.81S3.238 3.074 3.019 5.813C2.672 10.152 7.303 11.643 7.303 16h5.394zM5 6c.207-2.598 2.113-4 5-4s4.654 1.371 4.861 3.969c.113 1.424-.705 2.373-1.809 3.926C12.238 11.041 11.449 12.238 11 14H9c-.449-1.762-1.238-2.959-2.053-4.106C5.844 8.342 4.886 7.424 5 6z" />
    </symbol>
    <symbol id="icon-document-file-pdf" viewBox="0 0 32 32">
      <path
        d="M21 13v-3l-6-7H4.003A2.005 2.005 0 002 5.007v22.985a2 2 0 001.997 2.007h15.005a1.998 1.998 0 001.997-1.991v-2.009h7.993A3.002 3.002 0 0031.999 23v-7.002a2.997 2.997 0 00-3.007-2.999h-7.993zm-1 13v2.007A.997.997 0 0119 29H4c-.545 0-1-.446-1-.995V4.996c0-.54.446-.995.996-.995H14v4.994c0 1.119.895 2.006 1.998 2.006H20v2h-7.993A3.002 3.002 0 009 16v7.002a2.997 2.997 0 003.007 2.999H20zM15 4.5l4.7 5.5h-3.703C15.451 10 15 9.548 15 8.991V4.5zM11.995 14h17.011a2 2 0 011.995 1.992v7.016A1.999 1.999 0 0129.006 25H11.995A2 2 0 0110 23.008v-7.016C10 14.9 10.893 14 11.995 14zM25 19v-2h4v-1h-5v7h1v-3h3v-1h-3zm-13-1v-2h2.995a2 2 0 110 4H13v3h-1v-5zm1-1v2h2.001A.997.997 0 0016 18c0-.552-.443-1-.999-1H13zm5-1h2.995c1.111 0 2.005.898 2.005 2.006v2.988A1.999 1.999 0 0120.995 23H18v-7zm1 1v5h2.001A.997.997 0 0022 21v-3c0-.552-.443-1-.999-1H19z" />
    </symbol>
    <symbol id="icon-double_arrow" viewBox="0 0 24 24">
      <path
        d="M8.484 5.016L13.5 12l-5.016 6.984h-4.5L9 12 3.984 5.016h4.5zm7.032 0L20.485 12l-4.969 6.984h-4.5L15.985 12l-4.969-6.984h4.5z" />
    </symbol>
    <symbol id="icon-library" viewBox="0 0 34 32">
      <path
        d="M32 30v-2h-2V16h2v-2h-6v2h2v12h-6V16h2v-2h-6v2h2v12h-6V16h2v-2h-6v2h2v12H6V16h2v-2H2v2h2v12H2v2H0v2h34v-2h-2zM16 0h2l16 10v2H0v-2L16 0z" />
    </symbol>
    <symbol id="icon-file-zip" viewBox="0 0 32 32">
      <path
        d="M28.681 7.159c-.694-.947-1.662-2.053-2.724-3.116s-2.169-2.03-3.116-2.724C21.229.137 20.448 0 20 0H4.5A2.503 2.503 0 002 2.5v27C2 30.878 3.121 32 4.5 32h23c1.378 0 2.5-1.122 2.5-2.5V10c0-.448-.137-1.23-1.319-2.841zm-4.138-1.702A27.334 27.334 0 0126.811 8H22V3.189a27.334 27.334 0 012.543 2.268zM28 29.5c0 .271-.229.5-.5.5h-23a.507.507 0 01-.5-.5v-27c0-.271.229-.5.5-.5H20v7a1 1 0 001 1h7v19.5z" />
      <path
        d="M8 2h4v2H8V2zm4 2h4v2h-4V4zM8 6h4v2H8V6zm4 2h4v2h-4V8zm-4 2h4v2H8v-2zm4 2h4v2h-4v-2zm-4 2h4v2H8v-2zm4 2h4v2h-4v-2zM8 26.5c0 .825.675 1.5 1.5 1.5h5c.825 0 1.5-.675 1.5-1.5v-5c0-.825-.675-1.5-1.5-1.5H12v-2H8v8.5zm6-2.5v2h-4v-2h4z" />
    </symbol>
    <symbol id="icon-envelop" viewBox="0 0 32 32">
      <path
        d="M29 4H3C1.35 4 0 5.35 0 7v20c0 1.65 1.35 3 3 3h26c1.65 0 3-1.35 3-3V7c0-1.65-1.35-3-3-3zM12.461 17.199L4 23.789V8.113l8.461 9.086zM5.512 8h20.976L16 15.875 5.512 8zm7.278 9.553L16 21l3.21-3.447L25.79 26H6.211l6.58-8.447zm6.749-.354L28 8.113v15.676l-8.461-6.59z" />
    </symbol>
    <symbol id="icon-mobile" viewBox="0 0 32 32">
      <path
        d="M23 0H9C7.35 0 6 1.35 6 3v26c0 1.65 1.35 3 3 3h14c1.65 0 3-1.35 3-3V3c0-1.65-1.35-3-3-3zM12 1.5h8v1h-8v-1zM16 30a2 2 0 11-.001-3.999A2 2 0 0116 30zm8-6H8V4h16v20z" />
    </symbol>
    <symbol id="icon-change" viewBox="0 0 32 32">
      <path
        d="M32 12H20l4.485-4.485C22.218 5.249 19.205 4 16 4S9.781 5.248 7.515 7.515C5.249 9.782 4 12.795 4 16s1.248 6.219 3.515 8.485C9.782 26.751 12.795 28 16 28s6.219-1.248 8.485-3.515c.189-.189.371-.384.546-.583l3.01 2.634A15.96 15.96 0 0116 32C7.163 32 0 24.837 0 16S7.163 0 16 0c4.418 0 8.418 1.791 11.313 4.687L32 0v12z" />
    </symbol>
    <symbol id="icon-search" viewBox="0 0 32 32">
      <path
        d="M31.008 27.231l-7.58-6.447c-.784-.705-1.622-1.029-2.299-.998a11.954 11.954 0 002.87-7.787c0-6.627-5.373-12-12-12s-12 5.373-12 12 5.373 12 12 12c2.972 0 5.691-1.081 7.787-2.87-.031.677.293 1.515.998 2.299l6.447 7.58c1.104 1.226 2.907 1.33 4.007.23s.997-2.903-.23-4.007zM12 20a8 8 0 110-16 8 8 0 010 16z" />
    </symbol>
    <symbol id="icon-tree" viewBox="0 0 32 32">
      <path
        d="M30.5 24H30v-6.5c0-1.93-1.57-3.5-3.5-3.5H18v-4h.5c.825 0 1.5-.675 1.5-1.5v-5c0-.825-.675-1.5-1.5-1.5h-5c-.825 0-1.5.675-1.5 1.5v5c0 .825.675 1.5 1.5 1.5h.5v4H5.5C3.57 14 2 15.57 2 17.5V24h-.5c-.825 0-1.5.675-1.5 1.5v5c0 .825.675 1.5 1.5 1.5h5c.825 0 1.5-.675 1.5-1.5v-5c0-.825-.675-1.5-1.5-1.5H6v-6h8v6h-.5c-.825 0-1.5.675-1.5 1.5v5c0 .825.675 1.5 1.5 1.5h5c.825 0 1.5-.675 1.5-1.5v-5c0-.825-.675-1.5-1.5-1.5H18v-6h8v6h-.5c-.825 0-1.5.675-1.5 1.5v5c0 .825.675 1.5 1.5 1.5h5c.825 0 1.5-.675 1.5-1.5v-5c0-.825-.675-1.5-1.5-1.5zM6 30H2v-4h4v4zm12 0h-4v-4h4v4zM14 8V4h4v4h-4zm16 22h-4v-4h4v4z" />
    </symbol>
    <symbol id="icon-menu" viewBox="0 0 32 32">
      <path d="M2 6h28v6H2zm0 8h28v6H2zm0 8h28v6H2z" />
    </symbol>
    <symbol id="icon-eye" viewBox="0 0 32 32">
      <path
        d="M16 6C9.021 6 2.972 10.064 0 16c2.972 5.936 9.021 10 16 10s13.027-4.064 16-10c-2.972-5.936-9.021-10-16-10zm7.889 5.303A15.212 15.212 0 0128.559 16a15.223 15.223 0 01-4.67 4.697C21.527 22.204 18.799 23 16 23s-5.527-.796-7.889-2.303A15.212 15.212 0 013.441 16a15.223 15.223 0 015.041-4.925 8 8 0 1015.036 0c.124.074.248.15.371.228zM16 13a3 3 0 11-6 0 3 3 0 016 0z" />
    </symbol>
    <symbol id="icon-warning" viewBox="0 0 32 32">
      <path
        d="M16 2.899l13.409 26.726H2.59L15.999 2.899zM16 0c-.69 0-1.379.465-1.903 1.395L.438 28.617C-.608 30.477.282 32 2.416 32h27.166c2.134 0 3.025-1.522 1.978-3.383L17.901 1.395C17.378.465 16.688 0 15.998 0z" />
      <path
        d="M18 26a2 2 0 11-3.999.001A2 2 0 0118 26zm-2-4a2 2 0 01-2-2v-6a2 2 0 114 0v6a2 2 0 01-2 2z" />
    </symbol>
    <symbol id="icon-play3" viewBox="0 0 32 32">
      <path d="M6 4l20 12L6 28z" />
    </symbol>
    <symbol id="icon-circle-right" viewBox="0 0 32 32">
      <path
        d="M16 0C7.163 0 0 7.163 0 16s7.163 16 16 16 16-7.163 16-16S24.837 0 16 0zm0 29C8.82 29 3 23.18 3 16S8.82 3 16 3s13 5.82 13 13-5.82 13-13 13z" />
      <path d="M11.086 22.086l2.829 2.829 8.914-8.914-8.914-8.914-2.828 2.828 6.086 6.086z" />
    </symbol>
    <symbol id="icon-facebook2" viewBox="0 0 32 32">
      <path
        d="M29 0H3C1.35 0 0 1.35 0 3v26c0 1.65 1.35 3 3 3h13V18h-4v-4h4v-2c0-3.306 2.694-6 6-6h4v4h-4c-1.1 0-2 .9-2 2v2h6l-1 4h-5v14h9c1.65 0 3-1.35 3-3V3c0-1.65-1.35-3-3-3z" />
    </symbol>
    <symbol id="icon-instagram" viewBox="0 0 32 32">
      <path
        d="M16 2.881c4.275 0 4.781.019 6.462.094 1.563.069 2.406.331 2.969.55a4.952 4.952 0 011.837 1.194 5.015 5.015 0 011.2 1.838c.219.563.481 1.412.55 2.969.075 1.688.094 2.194.094 6.463s-.019 4.781-.094 6.463c-.069 1.563-.331 2.406-.55 2.969a4.94 4.94 0 01-1.194 1.837 5.02 5.02 0 01-1.837 1.2c-.563.219-1.413.481-2.969.55-1.688.075-2.194.094-6.463.094s-4.781-.019-6.463-.094c-1.563-.069-2.406-.331-2.969-.55a4.952 4.952 0 01-1.838-1.194 5.02 5.02 0 01-1.2-1.837c-.219-.563-.481-1.413-.55-2.969-.075-1.688-.094-2.194-.094-6.463s.019-4.781.094-6.463c.069-1.563.331-2.406.55-2.969a4.964 4.964 0 011.194-1.838 5.015 5.015 0 011.838-1.2c.563-.219 1.412-.481 2.969-.55 1.681-.075 2.188-.094 6.463-.094zM16 0c-4.344 0-4.887.019-6.594.094-1.7.075-2.869.35-3.881.744-1.056.412-1.95.956-2.837 1.85a7.833 7.833 0 00-1.85 2.831C.444 6.538.169 7.7.094 9.4.019 11.113 0 11.656 0 16s.019 4.887.094 6.594c.075 1.7.35 2.869.744 3.881.413 1.056.956 1.95 1.85 2.837a7.82 7.82 0 002.831 1.844c1.019.394 2.181.669 3.881.744 1.706.075 2.25.094 6.594.094s4.888-.019 6.594-.094c1.7-.075 2.869-.35 3.881-.744 1.05-.406 1.944-.956 2.831-1.844s1.438-1.781 1.844-2.831c.394-1.019.669-2.181.744-3.881.075-1.706.094-2.25.094-6.594s-.019-4.887-.094-6.594c-.075-1.7-.35-2.869-.744-3.881a7.506 7.506 0 00-1.831-2.844A7.82 7.82 0 0026.482.843C25.463.449 24.301.174 22.601.099c-1.712-.081-2.256-.1-6.6-.1z" />
      <path
        d="M16 7.781c-4.537 0-8.219 3.681-8.219 8.219s3.681 8.219 8.219 8.219 8.219-3.681 8.219-8.219A8.221 8.221 0 0016 7.781zm0 13.55a5.331 5.331 0 110-10.663 5.331 5.331 0 010 10.663zM26.462 7.456a1.919 1.919 0 11-3.838 0 1.919 1.919 0 013.838 0z" />
    </symbol>
    <symbol id="icon-vk" viewBox="0 0 32 32">
      <path
        d="M29 0H3C1.35 0 0 1.35 0 3v26c0 1.65 1.35 3 3 3h26c1.65 0 3-1.35 3-3V3c0-1.65-1.35-3-3-3zm-3.081 22.4l-2.925.044s-.631.125-1.456-.444c-1.094-.75-2.125-2.706-2.931-2.45-.813.256-.788 2.012-.788 2.012s.006.375-.181.575c-.2.219-.6.262-.6.262h-1.306s-2.888.175-5.431-2.475c-2.775-2.887-5.225-8.619-5.225-8.619s-.144-.375.013-.556c.175-.206.644-.219.644-.219l3.131-.019s.294.05.506.206c.175.125.269.369.269.369s.506 1.281 1.175 2.438c1.306 2.256 1.919 2.75 2.362 2.513.644-.35.45-3.194.45-3.194s.012-1.031-.325-1.488c-.262-.356-.756-.463-.969-.488-.175-.025.113-.431.488-.619.563-.275 1.556-.294 2.731-.281.913.006 1.181.069 1.538.15 1.081.262.712 1.269.712 3.681 0 .775-.137 1.863.419 2.219.238.156.825.025 2.294-2.469.694-1.181 1.219-2.569 1.219-2.569s.113-.25.288-.356c.181-.106.425-.075.425-.075l3.294-.019s.988-.119 1.15.331c.169.469-.369 1.563-1.712 3.356-2.206 2.944-2.456 2.669-.619 4.369 1.75 1.625 2.113 2.419 2.175 2.519.712 1.2-.813 1.294-.813 1.294z" />
    </symbol>
    <symbol id="icon-youtube" viewBox="0 0 32 32">
      <path
        d="M31.681 9.6s-.313-2.206-1.275-3.175C29.187 5.15 27.825 5.144 27.2 5.069c-4.475-.325-11.194-.325-11.194-.325h-.012s-6.719 0-11.194.325c-.625.075-1.987.081-3.206 1.356C.631 7.394.325 9.6.325 9.6s-.319 2.588-.319 5.181v2.425c0 2.587.319 5.181.319 5.181s.313 2.206 1.269 3.175c1.219 1.275 2.819 1.231 3.531 1.369 2.563.244 10.881.319 10.881.319s6.725-.012 11.2-.331c.625-.075 1.988-.081 3.206-1.356.962-.969 1.275-3.175 1.275-3.175s.319-2.587.319-5.181v-2.425c-.006-2.588-.325-5.181-.325-5.181zM12.694 20.15v-8.994l8.644 4.513-8.644 4.481z" />
    </symbol>
    <symbol id="icon-file-word" viewBox="0 0 32 32">
      <path
        d="M19.993 14.872h1.382l-1.594 7.068-2.073-9.938h-3.33l-2.41 9.938-1.807-9.938H6.68l3.534 15.996h3.401l2.384-9.46 2.133 9.46h3.136l4.051-15.996h-5.326v2.87z" />
      <path
        d="M28.681 7.159c-.694-.947-1.662-2.053-2.724-3.116s-2.169-2.03-3.116-2.724C21.229.137 20.448 0 20 0H4.5A2.503 2.503 0 002 2.5v27C2 30.878 3.121 32 4.5 32h23c1.378 0 2.5-1.122 2.5-2.5V10c0-.448-.137-1.23-1.319-2.841zm-4.138-1.702A27.334 27.334 0 0126.811 8H22V3.189a27.334 27.334 0 012.543 2.268zM28 29.5c0 .271-.229.5-.5.5h-23a.507.507 0 01-.5-.5v-27c0-.271.229-.5.5-.5H20v7a1 1 0 001 1h7v19.5z" />
    </symbol>
    <symbol id="icon-viber" viewBox="0 0 32 32">
      <path fill="var(--color1, #665cac)"
        d="M15.197.003C12.63.038 7.108.459 4.018 3.29 1.725 5.57.923 8.931.83 13.094.75 17.241.657 25.027 8.163 27.149v3.227s-.051 1.293.803 1.56c1.053.333 1.653-.665 2.653-1.732l1.867-2.107c5.133.427 9.067-.559 9.52-.705 1.04-.333 6.908-1.081 7.868-8.869.987-8.041-.48-13.108-3.12-15.401l-.013-.003c-.8-.733-4-3.067-11.16-3.093 0 0-.528-.033-1.384-.021zm.09 2.262c.727-.004 1.173.027 1.173.027 6.053.013 8.948 1.84 9.628 2.453 2.227 1.905 3.371 6.475 2.533 13.189-.8 6.507-5.56 6.92-6.44 7.2-.373.12-3.84.973-8.203.693 0 0-3.252 3.921-4.265 4.935-.16.173-.347.227-.467.2-.173-.04-.227-.253-.213-.547l.027-5.359c-6.361-1.76-5.988-8.403-5.921-11.869.08-3.467.733-6.309 2.667-8.229 2.609-2.36 7.3-2.68 9.481-2.693zm.48 3.467h-.001a.4.4 0 00.001.799l.143-.001c2.034 0 3.88.809 5.232 2.123l-.002-.002c1.453 1.413 2.161 3.307 2.188 5.787a.4.4 0 00.4.4v-.012a.4.4 0 00.4-.4 8.575 8.575 0 00-2.415-6.349l.002.002c-1.587-1.547-3.589-2.347-5.948-2.347zm-5.272.92a1.263 1.263 0 00-.826.163l.006-.003h-.016c-.547.32-1.051.72-1.531 1.253-.36.427-.561.852-.615 1.265a1.634 1.634 0 00.07.733l-.003-.012.027.013a18.197 18.197 0 001.646 3.549l-.046-.082a20.684 20.684 0 003.101 4.237l-.008-.009.04.053.053.04.08.08a20.864 20.864 0 004.136 3.053l.104.054c1.76.96 2.829 1.413 3.469 1.6v.013c.187.053.357.08.531.08a2.447 2.447 0 001.471-.631l-.002.002a6.03 6.03 0 001.24-1.531v-.013c.307-.573.2-1.121-.24-1.495a18.139 18.139 0 00-2.781-2.007l-.085-.046c-.68-.373-1.373-.147-1.653.227l-.6.759c-.307.373-.867.32-.867.32l-.016.013c-4.16-1.067-5.267-5.279-5.267-5.279s-.053-.573.333-.867l.747-.6c.36-.293.613-.987.227-1.667a18.073 18.073 0 00-2.071-2.887l.017.02a1.127 1.127 0 00-.665-.399l-.007-.001zm5.964 1.187a.401.401 0 00.001.8h.001a5.027 5.027 0 013.532 1.532l.001.001a4.646 4.646 0 011.199 3.44l.001-.014c.001.22.18.399.4.399l.013.016a.4.4 0 00.4-.4v-.001c.04-1.587-.453-2.92-1.427-3.987s-2.333-1.667-4.067-1.787l-.028-.001-.029.001h.001zm.653 2.158H17.1a.407.407 0 00-.012.815h.001c1.32.067 1.96.733 2.04 2.107a.4.4 0 00.4.387h.013a.4.4 0 00.388-.4l-.001-.028v.001c-.093-1.787-1.067-2.788-2.8-2.881h-.016z" />
    </symbol>
    <symbol id="icon-whatsapp" viewBox="0 0 32 32">
      <path
        d="M27.281 4.65C24.287 1.65 20.306 0 16.062 0 7.324 0 .212 7.112.212 15.856c0 2.794.731 5.525 2.119 7.925L.081 32l8.406-2.206a15.858 15.858 0 007.575 1.931h.006c8.738 0 15.856-7.113 15.856-15.856 0-4.238-1.65-8.219-4.644-11.219zm-11.212 24.4a13.17 13.17 0 01-6.713-1.837l-.481-.288-4.987 1.306 1.331-4.863-.313-.5a13.086 13.086 0 01-2.019-7.012c0-7.269 5.912-13.181 13.188-13.181 3.519 0 6.831 1.375 9.319 3.862a13.108 13.108 0 013.856 9.325c-.006 7.275-5.919 13.188-13.181 13.188zm7.225-9.875c-.394-.2-2.344-1.156-2.706-1.288s-.625-.2-.894.2c-.262.394-1.025 1.288-1.256 1.556-.231.262-.462.3-.856.1s-1.675-.619-3.188-1.969c-1.175-1.05-1.975-2.35-2.206-2.744s-.025-.613.175-.806c.181-.175.394-.463.594-.694s.262-.394.394-.662c.131-.262.069-.494-.031-.694s-.894-2.15-1.219-2.944c-.319-.775-.65-.669-.894-.681-.231-.012-.494-.012-.756-.012s-.694.1-1.056.494c-.363.394-1.387 1.356-1.387 3.306s1.419 3.831 1.619 4.1c.2.262 2.794 4.269 6.769 5.981.944.406 1.681.65 2.256.837.95.3 1.813.256 2.494.156.762-.113 2.344-.956 2.675-1.881s.331-1.719.231-1.881c-.094-.175-.356-.275-.756-.475z" />
    </symbol>
    <symbol id="icon-telegram" viewBox="0 0 32 32">
      <path
        d="M16 0C7.162 0 0 7.162 0 16s7.162 16 16 16 16-7.163 16-16S24.837 0 16 0zm7.863 10.969l-2.625 12.369c-.181.881-.712 1.087-1.45.681l-4-2.956-1.919 1.869c-.225.219-.4.4-.8.4-.519 0-.431-.194-.606-.688L11.1 18.169l-3.956-1.231c-.856-.262-.862-.85.194-1.269l15.412-5.95c.7-.319 1.381.169 1.113 1.25z" />
    </symbol>
    <symbol id="icon-imo" viewBox="0 0 128 128">
      <path
        d="M65.05 1.05a63 63 0 00-54.38 94.68c.23.4 2.16 4-1.68 7.84a107.63 107.63 0 01-8.22 7.19 2.06 2.06 0 00-.77 1.46 2 2 0 00.59 1.53c.63.63 3.42 2.69 13 2.69a50.3 50.3 0 0011.38-1.32 14.59 14.59 0 012.76-.44A63 63 0 1065.05 1.05zm0 121.9A58.54 58.54 0 0130 111.4a3.79 3.79 0 00-2.38-.72 17.73 17.73 0 00-3.51.53 46.27 46.27 0 01-10.54 1.23 35.84 35.84 0 01-7.67-.68c1.72-1.44 4-3.42 5.93-5.36 4.84-4.85 3.73-10.26 2.3-12.69A59 59 0 1165.05 123z" />
      <path
        d="M32 54a2 2 0 00-2 2v22a2 2 0 004 0V56a2 2 0 00-2-2zm36 0a10.53 10.53 0 00-8 3.24A9.19 9.19 0 0053 54a11.59 11.59 0 00-6 1.6 2 2 0 00-4 .4v22a2 2 0 004 0V63c0-4.51 4.2-5 6-5a4.82 4.82 0 015 5v15a2 2 0 004 0V63c0-4.51 4.2-5 6-5a4.82 4.82 0 015 5v15a2 2 0 004 0V63a8.81 8.81 0 00-9-9zm25.5 0C86.73 54 82 59.35 82 67s4.73 13 11.5 13S105 74.78 105 67s-4.73-13-11.5-13zm0 22c-4.56 0-7.5-3.53-7.5-9s2.94-9 7.5-9 7.5 3.53 7.5 9-2.87 9-7.5 9z" />
      <circle cx="32" cy="49" r="2" />
    </symbol>
    <symbol id="icon-rutube" viewBox="0 0 526 526" fill="none">
      <path
        d="M410.375 7H115.623C55.633 7 7 55.632 7 115.623v294.752c0 59.991 48.632 108.623 108.623 108.623h294.752c59.991 0 108.623-48.632 108.623-108.623V115.623C518.998 55.633 470.366 7 410.375 7z"
        fill="#163E73" />
      <path
        d="M426.52 149.348c17.865 0 32.348-14.483 32.348-32.348s-14.483-32.348-32.348-32.348S394.172 99.135 394.172 117s14.483 32.348 32.348 32.348z"
        fill="#F41240" />
      <path
        d="M330.396 145.772H103.054V398.5h63.277v-82.222H287.58L342.9 398.5h70.855l-61.004-82.601c18.945-3.031 32.586-10.23 40.922-21.597 8.336-11.367 12.504-29.555 12.504-53.804v-18.946c0-14.398-1.516-25.765-4.168-34.48-2.653-8.714-7.2-16.293-13.641-23.113-6.82-6.441-14.398-10.988-23.492-14.019-9.094-2.653-20.461-4.168-34.48-4.168zm-10.23 114.807H166.331v-59.108h153.835c8.714 0 14.777 1.515 17.808 4.168 3.031 2.652 4.926 7.578 4.926 14.777v21.218c0 7.578-1.895 12.504-4.926 15.156-3.031 2.653-9.094 3.789-17.808 3.789z"
        fill="#fff" />
      <path
        d="M410.375 7H115.623C55.633 7 7 55.632 7 115.623v294.752c0 59.991 48.632 108.623 108.623 108.623h294.752c59.991 0 108.623-48.632 108.623-108.623V115.623C518.998 55.633 470.366 7 410.375 7z"
        stroke="#fff" stroke-width="13.934" />
      <path
        d="M426.52 149.348c17.865 0 32.348-14.483 32.348-32.348s-14.483-32.348-32.348-32.348S394.172 99.135 394.172 117s14.483 32.348 32.348 32.348zm-96.124-3.576H103.054V398.5h63.277v-82.222H287.58L342.9 398.5h70.855l-61.004-82.601c18.945-3.031 32.586-10.23 40.922-21.597 8.336-11.367 12.504-29.555 12.504-53.804v-18.946c0-14.398-1.516-25.765-4.168-34.48-2.653-8.714-7.2-16.293-13.641-23.113-6.82-6.441-14.398-10.988-23.492-14.019-9.094-2.653-20.461-4.168-34.48-4.168zm-10.23 114.807H166.331v-59.108h153.835c8.714 0 14.777 1.515 17.808 4.168 3.031 2.652 4.926 7.578 4.926 14.777v21.218c0 7.578-1.895 12.504-4.926 15.156-3.031 2.653-9.094 3.789-17.808 3.789z"
        stroke="#fff" stroke-width="13.934" />
      <path
        d="M407.995 19.945H117.768c-53.522 0-96.91 43.387-96.91 96.908V408.38c0 53.521 43.388 96.909 96.91 96.909h290.227c53.521 0 96.909-43.388 96.909-96.909V116.853c0-53.52-43.388-96.908-96.909-96.908z"
        stroke="#fff" stroke-width="13.934" />
      <path
        d="M410.375 13.967H115.623c-56.143 0-101.656 45.513-101.656 101.656v294.752c0 56.143 45.513 101.656 101.656 101.656h294.752c56.143 0 101.656-45.513 101.656-101.656V115.623c0-56.143-45.513-101.656-101.656-101.656z"
        stroke="#fff" stroke-width="13.934" />
    </symbol>
    <symbol id="icon-dzen" viewBox="0 0 50 50" xml:space="preserve"><path d="M46.894 23.986h.011a.998.998 0 00.996-1.091C46.897 11.852 38.154 3.106 27.11 2.1a1 1 0 00-1.091 1.008c.174 14.676 2.11 20.673 20.875 20.878zm0 2.028c-18.765.205-20.7 6.202-20.874 20.878a1 1 0 001.091 1.008c11.044-1.006 19.787-9.751 20.79-20.795a.999.999 0 00-.262-.769 1.055 1.055 0 00-.745-.322zM22.823 2.105C11.814 3.14 3.099 11.884 2.1 22.897a.999.999 0 00.996 1.09h.012c18.703-.215 20.634-6.209 20.81-20.875a1.003 1.003 0 00-1.095-1.007zM3.107 26.013c-.311-.035-.555.113-.746.321a1.003 1.003 0 00-.262.769c.999 11.013 9.715 19.757 20.724 20.792a1.002 1.002 0 001.094-1.008c-.176-14.665-2.106-20.659-20.81-20.874z"/></symbol>
  </defs>
</svg>