<svg width="148" height="100" viewBox="0 0 148 100" fill="none" xmlns="http://www.w3.org/2000/svg">
<g clip-path="url(#clip0_15_334)">
<path fill-rule="evenodd" clip-rule="evenodd" d="M51.7041 99.9938C55.5125 100 59.2833 98.3229 61.5208 96.1958L59.0291 92.2375C57.8375 93.8312 55.45 95.5854 52.0583 95.75C46.7146 96.0083 42.4625 92.2625 42.4625 87.6833C42.4625 79.7979 53.7187 76.75 58.8271 82.8708L61.2916 78.9583C59.1 76.9271 55.625 75.3625 51.875 75.375C44.0104 75.3958 37.7083 80.675 37.7083 87.6833C37.7083 94.6938 43.9458 99.975 51.7041 99.9938Z" fill="white"/>
<path d="M83.3021 99.3063H88.8104L80.7292 86.7125L88.0562 75.3854H82.4917L75.9583 85.5667L71.1729 85.5333L71.1354 75.3854H65.9062L65.9437 99.3063H71.1729V89.6604L77.1042 89.6479L83.3021 99.3063Z" fill="white"/>
<path d="M92.6646 87.4792C92.6646 82.625 95.9479 80.0021 102.385 79.5333V95.4292C96.1875 94.9208 92.6646 92.2937 92.6646 87.4792ZM107.19 95.4271V79.5333C113.508 79.9625 116.95 82.6271 116.95 87.4417C116.95 92.2542 113.592 94.9583 107.19 95.4271ZM121.95 87.4812C121.95 80.2792 116.627 75.9729 107.19 75.5021H102.385C92.9437 75.9729 87.5812 80.2396 87.5812 87.4812C87.5812 94.6833 92.9437 98.95 102.385 99.4187H107.19C116.633 99.0292 121.95 94.6833 121.95 87.4812ZM142.592 75.4979C139.962 79.8833 137.706 83.8396 134.758 88.3396L126.956 75.4979H121.627L132.027 92.6292C130.881 94.2021 129.581 95.7375 127.267 95.7375C126.773 95.7375 126.267 95.675 125.727 95.5708L128.092 99.3896C131.171 99.4187 133.883 98.3479 136.235 94.5083L147.908 75.4979H142.592Z" fill="white"/>
<path fill-rule="evenodd" clip-rule="evenodd" d="M1.32501 48.5229C7.63751 55.3417 16.3125 59.8063 26.1563 60.975C25.8438 61.2625 25.5917 61.6813 25.3375 61.9396C17.8083 62.5167 11.0042 61.0875 4.53751 57.5646C3.20626 54.7042 2.0271 51.6563 1.32501 48.5229Z" fill="white"/>
<path fill-rule="evenodd" clip-rule="evenodd" d="M29.0083 58.2312C28.5958 58.5646 27.925 59.1583 27.6125 59.4958C16.0854 57.3458 6.59792 51.0646 0.458335 42.1292C1.2219e-06 36.4958 0.583335 30.9312 2.26458 25.4896C4.58333 39.8312 14.325 51.8708 29.0104 58.2312H29.0083Z" fill="white"/>
<path fill-rule="evenodd" clip-rule="evenodd" d="M33.6708 54.9646C32.7333 55.5125 31.3271 56.3396 30.3896 57.0917C14.9791 48.4625 6.46457 34.5 5.2229 18.4792C10.0229 10.125 14.2125 5.69583 22.0083 0C11.5333 20.725 18.75 42.3667 33.6708 54.9646Z" fill="white"/>
<path fill-rule="evenodd" clip-rule="evenodd" d="M45.5938 9.97917C57.3875 16.6896 73.8396 35.6938 66.1521 52.8083C60.0188 66.4625 47.5125 69.9042 43.2042 72.3313C38.8938 74.7583 30.4583 81.5771 33.5833 92.1208C24.5583 88.6833 21.5104 80.4125 24.4688 72.9188C31.0479 56.2521 45.8979 58.7 50.1188 36.3833C52.0188 26.3208 47.9896 14.0938 45.5938 9.97917ZM6.4375 61.3188C12.0729 64.0563 18.0042 64.8396 24.2292 63.4313C24.0438 63.6854 23.6396 64.3896 23.4417 64.6396C19.075 66.6021 14.4938 66.6604 9.65833 65.9354C8.38958 64.3271 7.64792 63.0625 6.4375 61.3188ZM11.5667 68.3458C15.1667 68.8667 19.1708 68.0542 22.3979 66.4292L21.8646 67.7042C19.8375 69.7625 16.5479 70.5146 13.8292 70.6271C12.8458 69.9333 12.2833 69.0688 11.5667 68.3458Z" fill="white"/>
</g>
<defs>
<clipPath id="clip0_15_334">
<rect width="147.917" height="100" fill="white"/>
</clipPath>
</defs>
</svg>
