<svg aria-hidden="true" style="position:absolute;width:0;height:0" xmlns="http://www.w3.org/2000/svg" overflow="hidden">
<defs>
  <symbol id="icon-rutube-new" viewBox="0 0 32 32">
   <rect width="32" height="32" rx="16" fill="#2D3140"/>
<mask id="mask0_15_211" style="mask-type:luminance" maskUnits="userSpaceOnUse" x="8" y="8" width="16" height="16">
<path d="M20.6055 8H11.3945C9.51976 8 8 9.51976 8 11.3945V20.6055C8 22.4802 9.51976 23.9999 11.3945 23.9999H20.6055C22.4802 23.9999 23.9999 22.4802 23.9999 20.6055V11.3945C23.9999 9.51976 22.4802 8 20.6055 8Z" fill="white"/>
</mask>
<g mask="url(#mask0_15_211)">
<path d="M21.8323 12.3666C22.5472 12.3666 23.1267 11.787 23.1267 11.0722C23.1267 10.3573 22.5472 9.77777 21.8323 9.77777C21.1174 9.77777 20.5379 10.3573 20.5379 11.0722C20.5379 11.787 21.1174 12.3666 21.8323 12.3666Z" fill="white"/>
<path d="M17.9859 12.2234H8.88889V22.3363H11.4209V19.0462H16.2726L18.4863 22.3363H21.3215L18.8804 19.031C19.6385 18.9097 20.1844 18.6217 20.5179 18.1668C20.8515 17.712 21.0183 16.9842 21.0183 16.0139V15.2558C21.0183 14.6796 20.9576 14.2248 20.8515 13.8761C20.7453 13.5274 20.5634 13.2241 20.3056 12.9512C20.0327 12.6935 19.7295 12.5115 19.3656 12.3902C19.0017 12.2841 18.5469 12.2234 17.9859 12.2234ZM17.5766 16.8174H11.4209V14.4522H17.5766C17.9252 14.4522 18.1679 14.5129 18.2891 14.619C18.4104 14.7251 18.4863 14.9222 18.4863 15.2103V16.0593C18.4863 16.3626 18.4104 16.5597 18.2891 16.6658C18.1679 16.772 17.9252 16.8174 17.5766 16.8174Z" fill="white"/>
</g>
  </symbol>
  <symbol id="icon-youtube-new" viewBox="0 0 32 32">
   <rect width="32" height="32" rx="16" fill="#2D3140"/>
<g clip-path="url(#clip0_15_233)">
<path d="M23.8405 12.8C23.8405 12.8 23.684 11.697 23.203 11.2125C22.5935 10.575 21.9125 10.572 21.6 10.5345C19.3625 10.372 16.003 10.372 16.003 10.372H15.997C15.997 10.372 12.6375 10.372 10.4 10.5345C10.0875 10.572 9.40649 10.575 8.79699 11.2125C8.31549 11.697 8.16249 12.8 8.16249 12.8C8.16249 12.8 8.00299 14.094 8.00299 15.3905V16.603C8.00299 17.8965 8.16249 19.1935 8.16249 19.1935C8.16249 19.1935 8.31899 20.2965 8.79699 20.781C9.40649 21.4185 10.2065 21.3965 10.5625 21.4655C11.844 21.5875 16.003 21.625 16.003 21.625C16.003 21.625 19.3655 21.619 21.603 21.4595C21.9155 21.422 22.597 21.419 23.206 20.7815C23.687 20.297 23.8435 19.194 23.8435 19.194C23.8435 19.194 24.003 17.9005 24.003 16.6035V15.391C24 14.097 23.8405 12.8 23.8405 12.8ZM14.347 18.075V13.578L18.669 15.8345L14.347 18.075Z" fill="white"/>
</g>
<defs>
<clipPath id="clip0_15_233">
<rect width="16" height="16" fill="white" transform="translate(8 8)"/>
</clipPath>
</defs>
  </symbol>
  <symbol id="icon-tg-new" viewBox="0 0 32 32">
   <rect width="32" height="32" rx="16" fill="#2D3140"/>
<path d="M23.5037 10.9256L21.2241 21.4713C21.0669 22.2224 20.6058 22.3981 19.9649 22.0519L16.4911 19.5316L14.8246 21.1251C14.6292 21.3119 14.4772 21.4662 14.1299 21.4662C13.6791 21.4662 13.7556 21.3008 13.6036 20.8796L12.4199 17.0643L8.98439 16.0147C8.24102 15.7913 8.23581 15.29 9.15287 14.9328L22.5372 9.85987C23.1451 9.58789 23.7365 10.004 23.5037 10.9256Z" fill="white"/>
  </symbol>
  <symbol id="icon-dzen-new" viewBox="0 0 32 32">
   <rect width="32" height="32" rx="16" fill="#2D3140"/>
<g clip-path="url(#clip0_15_221)">
<path d="M23.6468 15.6458H23.6506C23.6992 15.6459 23.7473 15.6359 23.7917 15.6163C23.8362 15.5968 23.8761 15.5681 23.9089 15.5323C23.9416 15.4964 23.9665 15.4541 23.9819 15.408C23.9974 15.3619 24.003 15.3131 23.9985 15.2648C23.6478 11.4076 20.5942 8.35283 16.7369 8.00145C16.6882 7.997 16.6391 8.00282 16.5928 8.01855C16.5465 8.03427 16.504 8.05955 16.4681 8.09274C16.4321 8.12593 16.4036 8.16629 16.3843 8.21121C16.3649 8.25614 16.3552 8.30462 16.3558 8.35353C16.4166 13.4796 17.0928 15.5742 23.6468 15.6458ZM23.6468 16.3542C17.0928 16.4258 16.417 18.5204 16.3562 23.6465C16.3556 23.6954 16.3653 23.7439 16.3846 23.7888C16.4039 23.8337 16.4325 23.8741 16.4684 23.9073C16.5043 23.9405 16.5468 23.9657 16.5931 23.9815C16.6394 23.9972 16.6885 24.003 16.7372 23.9985C20.5945 23.6472 23.6482 20.5927 23.9985 16.7352C24.0029 16.6866 23.997 16.6375 23.9813 16.5912C23.9655 16.5449 23.9402 16.5025 23.907 16.4666C23.8732 16.4316 23.8328 16.4037 23.7881 16.3844C23.7435 16.3651 23.6954 16.3548 23.6468 16.3542ZM15.2396 8.0032C11.3945 8.3647 8.35064 11.4188 8.00172 15.2655C7.9973 15.3138 8.00301 15.3625 8.01849 15.4085C8.03397 15.4545 8.05887 15.4968 8.09161 15.5326C8.12435 15.5685 8.1642 15.5971 8.20863 15.6166C8.25305 15.6362 8.30106 15.6462 8.34959 15.6462H8.35378C14.8861 15.5711 15.5606 13.4775 15.622 8.35492C15.6224 8.30597 15.6126 8.25747 15.5931 8.21256C15.5736 8.16765 15.5449 8.12732 15.5089 8.09418C15.4728 8.06104 15.4302 8.03582 15.3839 8.02015C15.3375 8.00448 15.2883 7.99871 15.2396 8.0032ZM8.35343 16.3538C8.24481 16.3416 8.15959 16.3933 8.09288 16.4659C8.05974 16.5019 8.03448 16.5443 8.01872 16.5906C8.00296 16.6368 7.99705 16.6859 8.00137 16.7345C8.35029 20.5812 11.3945 23.6353 15.2396 23.9968C15.2883 24.0013 15.3375 23.9955 15.3839 23.9798C15.4303 23.9641 15.4729 23.9389 15.5089 23.9057C15.5449 23.8725 15.5735 23.8321 15.593 23.7872C15.6124 23.7422 15.6222 23.6937 15.6217 23.6447C15.5602 18.5225 14.8861 16.4289 8.35343 16.3538Z" fill="white"/>
</g>
<defs>
<clipPath id="clip0_15_221">
<rect width="16" height="16" fill="white" transform="translate(8 8)"/>
</clipPath>
</defs>
  </symbol>
  <symbol id="icon-vk-new" viewBox="0 0 32 32">
   <rect width="32" height="32" rx="16" fill="#2D3140"/>
<path d="M22.5398 19.9644L20.6172 19.9925C20.6172 19.9925 20.2024 20.0726 19.6602 19.7082C18.9411 19.2279 18.2634 17.9752 17.7336 18.1391C17.1992 18.3031 17.2156 19.4277 17.2156 19.4277C17.2156 19.4277 17.2196 19.6678 17.0967 19.7959C16.9652 19.9362 16.7023 19.9637 16.7023 19.9637H15.8439C15.8439 19.9637 13.9456 20.0758 12.274 18.3787C10.45 16.5297 8.83963 12.8588 8.83963 12.8588C8.83963 12.8588 8.74498 12.6186 8.84818 12.5027C8.96321 12.3708 9.27148 12.3625 9.27148 12.3625L11.3295 12.3503C11.3295 12.3503 11.5227 12.3823 11.6621 12.4822C11.7771 12.5623 11.8389 12.7185 11.8389 12.7185C11.8389 12.7185 12.1715 13.5389 12.6112 14.2799C13.4697 15.7247 13.8726 16.0411 14.1638 15.8893C14.5871 15.6652 14.4596 13.8438 14.4596 13.8438C14.4596 13.8438 14.4675 13.1835 14.246 12.8908C14.0737 12.6628 13.749 12.5943 13.609 12.5783C13.494 12.5623 13.6833 12.3023 13.9298 12.1819C14.2999 12.0057 14.9526 11.9936 15.7249 12.0019C16.325 12.0057 16.5012 12.0461 16.7358 12.098C17.4464 12.2658 17.2038 12.9107 17.2038 14.4554C17.2038 14.9517 17.1138 15.6485 17.4792 15.8765C17.6357 15.9764 18.0215 15.8925 18.9871 14.2953C19.4433 13.5389 19.7883 12.65 19.7883 12.65C19.7883 12.65 19.8626 12.4899 19.9776 12.422C20.0966 12.3541 20.257 12.374 20.257 12.374L22.4221 12.3618C22.4221 12.3618 23.0716 12.2856 23.178 12.5738C23.2891 12.8742 22.9355 13.5748 22.0527 14.7231C20.6027 16.6085 20.4384 16.4324 21.6459 17.5211C22.7962 18.5618 23.0348 19.0703 23.0755 19.1344C23.5435 19.9029 22.5411 19.9631 22.5411 19.9631L22.5398 19.9644Z" fill="white"/>
  </symbol>
  <symbol id="icon-odnoklassniki-new" viewBox="0 0 32 32">
   <rect width="32" height="32" rx="16" fill="#2D3140"/>
<path d="M17.67 19.6265C18.5203 19.433 19.3317 19.0971 20.07 18.633C20.331 18.4571 20.5132 18.1866 20.5782 17.8787C20.6431 17.5708 20.5857 17.2497 20.418 16.9834C20.2503 16.7172 19.9856 16.5266 19.6798 16.4521C19.3741 16.3777 19.0514 16.4251 18.78 16.5845C17.9464 17.1057 16.9831 17.3821 16 17.3821C15.0169 17.3821 14.0536 17.1057 13.22 16.5845C12.949 16.4138 12.6213 16.3576 12.3089 16.4282C11.9965 16.4988 11.7248 16.6904 11.5535 16.961C11.5535 16.9625 11.5535 16.9635 11.552 16.9645C11.3812 17.2356 11.3251 17.5635 11.3959 17.876C11.4668 18.1885 11.6589 18.4601 11.93 18.631L11.9315 18.6325C12.668 19.096 13.4795 19.4325 14.329 19.6245L12.019 21.9345C11.7925 22.1565 11.6633 22.4593 11.6598 22.7764C11.6563 23.0936 11.7789 23.3991 12.0005 23.626L12.0205 23.646C12.25 23.882 12.5605 23.9995 12.87 23.9995C13.18 23.9995 13.49 23.882 13.72 23.646L16.0005 21.3765L18.27 23.647C18.5009 23.8698 18.8107 23.9918 19.1315 23.9861C19.4522 23.9805 19.7576 23.8477 19.9805 23.617C20.198 23.3915 20.3196 23.0903 20.3196 22.777C20.3196 22.4637 20.198 22.1625 19.9805 21.937L17.67 19.6265ZM16 16.2585C17.0947 16.2573 18.1443 15.822 18.9185 15.0481C19.6927 14.2741 20.1284 13.2247 20.13 12.13C20.13 9.8535 18.2765 8 16 8C13.7235 8 11.87 9.8535 11.87 12.1315C11.8713 13.2262 12.307 14.2757 13.0813 15.0495C13.8556 15.8233 14.9053 16.2578 16 16.2585ZM16 10.4205C16.4533 10.4212 16.8878 10.6016 17.2083 10.9221C17.5287 11.2427 17.709 11.6772 17.7095 12.1305C17.7092 12.5839 17.5291 13.0186 17.2085 13.3392C16.888 13.6598 16.4534 13.8401 16 13.8405C15.5468 13.8398 15.1123 13.6595 14.7918 13.3391C14.4712 13.0187 14.2908 12.5842 14.29 12.131C14.2905 11.6776 14.4709 11.2429 14.7914 10.9223C15.112 10.6016 15.5466 10.4212 16 10.4205Z" fill="white"/>
  </symbol>
  <symbol id="icon-odnoklassniki" viewBox="0 0 32 32">
    <path d="M19.34 23.253a15.473 15.473 0 004.8-1.987 2.422 2.422 0 00-2.58-4.097 10.487 10.487 0 01-11.12 0 2.419 2.419 0 00-3.333.753c0 .003 0 .005-.003.007a2.417 2.417 0 00.756 3.333l.003.003c1.473.927 3.096 1.6 4.795 1.984l-4.62 4.62a2.394 2.394 0 00-.037 3.383l.04.04c.459.472 1.08.707 1.699.707.62 0 1.24-.235 1.7-.707l4.561-4.539 4.539 4.541a2.42 2.42 0 003.421-.06 2.42 2.42 0 000-3.36zM16 16.517a8.269 8.269 0 008.26-8.257C24.26 3.707 20.553 0 16 0S7.74 3.707 7.74 8.263A8.265 8.265 0 0016 16.518zm0-11.676a3.424 3.424 0 013.419 3.42A3.422 3.422 0 0116 11.681a3.425 3.425 0 01-3.42-3.419A3.425 3.425 0 0116 4.841z"/>
  </symbol>
  <symbol id="icon-tiktok" viewBox="0 0 32 32"><path d="M16.707.027C18.454 0 20.187.014 21.92 0c.107 2.04.84 4.12 2.333 5.56 1.493 1.48 3.6 2.16 5.653 2.387v5.373c-1.92-.067-3.853-.467-5.6-1.293-.76-.347-1.467-.787-2.16-1.24-.013 3.893.013 7.787-.027 11.667-.107 1.867-.72 3.72-1.8 5.253-1.747 2.56-4.773 4.227-7.88 4.28-1.907.107-3.813-.413-5.44-1.373-2.693-1.587-4.587-4.493-4.867-7.613a24.42 24.42 0 01-.013-1.987 10.004 10.004 0 013.44-6.613c2.213-1.92 5.307-2.84 8.2-2.293.027 1.973-.053 3.947-.053 5.92-1.32-.427-2.867-.307-4.027.493a4.631 4.631 0 00-1.813 2.333c-.28.68-.2 1.427-.187 2.147.32 2.187 2.427 4.027 4.667 3.827 1.493-.013 2.92-.88 3.693-2.147.253-.44.533-.893.547-1.413.133-2.387.08-4.76.093-7.147.013-5.373-.013-10.733.027-16.093z"/></symbol><symbol id="icon-twitter" viewBox="0 0 32 32"><path d="M32 7.075a12.941 12.941 0 01-3.769 1.031 6.601 6.601 0 002.887-3.631 13.21 13.21 0 01-4.169 1.594A6.565 6.565 0 0022.155 4a6.563 6.563 0 00-6.563 6.563c0 .512.056 1.012.169 1.494A18.635 18.635 0 012.23 5.195a6.56 6.56 0 00-.887 3.3 6.557 6.557 0 002.919 5.463 6.565 6.565 0 01-2.975-.819v.081a6.565 6.565 0 005.269 6.437 6.574 6.574 0 01-2.968.112 6.588 6.588 0 006.131 4.563 13.17 13.17 0 01-9.725 2.719 18.568 18.568 0 0010.069 2.95c12.075 0 18.681-10.006 18.681-18.681 0-.287-.006-.569-.019-.85A13.216 13.216 0 0032 7.076z"/></symbol><symbol id="icon-facebook2" viewBox="0 0 32 32"><path d="M29 0H3C1.35 0 0 1.35 0 3v26c0 1.65 1.35 3 3 3h13V18h-4v-4h4v-2c0-3.306 2.694-6 6-6h4v4h-4c-1.1 0-2 .9-2 2v2h6l-1 4h-5v14h9c1.65 0 3-1.35 3-3V3c0-1.65-1.35-3-3-3z"/></symbol><symbol id="icon-instagram" viewBox="0 0 32 32"><path d="M16 2.881c4.275 0 4.781.019 6.462.094 1.563.069 2.406.331 2.969.55a4.952 4.952 0 011.837 1.194 5.015 5.015 0 011.2 1.838c.219.563.481 1.412.55 2.969.075 1.688.094 2.194.094 6.463s-.019 4.781-.094 6.463c-.069 1.563-.331 2.406-.55 2.969a4.94 4.94 0 01-1.194 1.837 5.02 5.02 0 01-1.837 1.2c-.563.219-1.413.481-2.969.55-1.688.075-2.194.094-6.463.094s-4.781-.019-6.463-.094c-1.563-.069-2.406-.331-2.969-.55a4.952 4.952 0 01-1.838-1.194 5.02 5.02 0 01-1.2-1.837c-.219-.563-.481-1.413-.55-2.969-.075-1.688-.094-2.194-.094-6.463s.019-4.781.094-6.463c.069-1.563.331-2.406.55-2.969a4.964 4.964 0 011.194-1.838 5.015 5.015 0 011.838-1.2c.563-.219 1.412-.481 2.969-.55 1.681-.075 2.188-.094 6.463-.094zM16 0c-4.344 0-4.887.019-6.594.094-1.7.075-2.869.35-3.881.744-1.056.412-1.95.956-2.837 1.85a7.833 7.833 0 00-1.85 2.831C.444 6.538.169 7.7.094 9.4.019 11.113 0 11.656 0 16s.019 4.887.094 6.594c.075 1.7.35 2.869.744 3.881.413 1.056.956 1.95 1.85 2.837a7.82 7.82 0 002.831 1.844c1.019.394 2.181.669 3.881.744 1.706.075 2.25.094 6.594.094s4.888-.019 6.594-.094c1.7-.075 2.869-.35 3.881-.744 1.05-.406 1.944-.956 2.831-1.844s1.438-1.781 1.844-2.831c.394-1.019.669-2.181.744-3.881.075-1.706.094-2.25.094-6.594s-.019-4.887-.094-6.594c-.075-1.7-.35-2.869-.744-3.881a7.506 7.506 0 00-1.831-2.844A7.82 7.82 0 0026.482.843C25.463.449 24.301.174 22.601.099c-1.712-.081-2.256-.1-6.6-.1z"/><path d="M16 7.781c-4.537 0-8.219 3.681-8.219 8.219s3.681 8.219 8.219 8.219 8.219-3.681 8.219-8.219A8.221 8.221 0 0016 7.781zm0 13.55a5.331 5.331 0 110-10.663 5.331 5.331 0 010 10.663zM26.462 7.456a1.919 1.919 0 11-3.838 0 1.919 1.919 0 013.838 0z"/></symbol><symbol id="icon-vk" viewBox="0 0 32 32"><path d="M29 0H3C1.35 0 0 1.35 0 3v26c0 1.65 1.35 3 3 3h26c1.65 0 3-1.35 3-3V3c0-1.65-1.35-3-3-3zm-3.081 22.4l-2.925.044s-.631.125-1.456-.444c-1.094-.75-2.125-2.706-2.931-2.45-.813.256-.788 2.012-.788 2.012s.006.375-.181.575c-.2.219-.6.262-.6.262h-1.306s-2.888.175-5.431-2.475c-2.775-2.887-5.225-8.619-5.225-8.619s-.144-.375.013-.556c.175-.206.644-.219.644-.219l3.131-.019s.294.05.506.206c.175.125.269.369.269.369s.506 1.281 1.175 2.438c1.306 2.256 1.919 2.75 2.362 2.513.644-.35.45-3.194.45-3.194s.012-1.031-.325-1.488c-.262-.356-.756-.463-.969-.488-.175-.025.113-.431.488-.619.563-.275 1.556-.294 2.731-.281.913.006 1.181.069 1.538.15 1.081.262.712 1.269.712 3.681 0 .775-.137 1.863.419 2.219.238.156.825.025 2.294-2.469.694-1.181 1.219-2.569 1.219-2.569s.113-.25.288-.356c.181-.106.425-.075.425-.075l3.294-.019s.988-.119 1.15.331c.169.469-.369 1.563-1.712 3.356-2.206 2.944-2.456 2.669-.619 4.369 1.75 1.625 2.113 2.419 2.175 2.519.712 1.2-.813 1.294-.813 1.294z"/></symbol><symbol id="icon-youtube" viewBox="0 0 32 32"><path d="M31.681 9.6s-.313-2.206-1.275-3.175C29.187 5.15 27.825 5.144 27.2 5.069c-4.475-.325-11.194-.325-11.194-.325h-.012s-6.719 0-11.194.325c-.625.075-1.987.081-3.206 1.356C.631 7.394.325 9.6.325 9.6s-.319 2.588-.319 5.181v2.425c0 2.587.319 5.181.319 5.181s.313 2.206 1.269 3.175c1.219 1.275 2.819 1.231 3.531 1.369 2.563.244 10.881.319 10.881.319s6.725-.012 11.2-.331c.625-.075 1.988-.081 3.206-1.356.962-.969 1.275-3.175 1.275-3.175s.319-2.587.319-5.181v-2.425c-.006-2.588-.325-5.181-.325-5.181zM12.694 20.15v-8.994l8.644 4.513-8.644 4.481z"/></symbol><symbol id="icon-viber" viewBox="0 0 32 32"><path fill="var(--color1, #665cac)" d="M15.197.003C12.63.038 7.108.459 4.018 3.29 1.725 5.57.923 8.931.83 13.094.75 17.241.657 25.027 8.163 27.149v3.227s-.051 1.293.803 1.56c1.053.333 1.653-.665 2.653-1.732l1.867-2.107c5.133.427 9.067-.559 9.52-.705 1.04-.333 6.908-1.081 7.868-8.869.987-8.041-.48-13.108-3.12-15.401l-.013-.003c-.8-.733-4-3.067-11.16-3.093 0 0-.528-.033-1.384-.021zm.09 2.262c.727-.004 1.173.027 1.173.027 6.053.013 8.948 1.84 9.628 2.453 2.227 1.905 3.371 6.475 2.533 13.189-.8 6.507-5.56 6.92-6.44 7.2-.373.12-3.84.973-8.203.693 0 0-3.252 3.921-4.265 4.935-.16.173-.347.227-.467.2-.173-.04-.227-.253-.213-.547l.027-5.359c-6.361-1.76-5.988-8.403-5.921-11.869.08-3.467.733-6.309 2.667-8.229 2.609-2.36 7.3-2.68 9.481-2.693zm.48 3.467h-.001a.4.4 0 00.001.799l.143-.001c2.034 0 3.88.809 5.232 2.123l-.002-.002c1.453 1.413 2.161 3.307 2.188 5.787a.4.4 0 00.4.4v-.012a.4.4 0 00.4-.4 8.575 8.575 0 00-2.415-6.349l.002.002c-1.587-1.547-3.589-2.347-5.948-2.347zm-5.272.92a1.263 1.263 0 00-.826.163l.006-.003h-.016c-.547.32-1.051.72-1.531 1.253-.36.427-.561.852-.615 1.265a1.634 1.634 0 00.07.733l-.003-.012.027.013a18.197 18.197 0 001.646 3.549l-.046-.082a20.684 20.684 0 003.101 4.237l-.008-.009.04.053.053.04.08.08a20.864 20.864 0 004.136 3.053l.104.054c1.76.96 2.829 1.413 3.469 1.6v.013c.187.053.357.08.531.08a2.447 2.447 0 001.471-.631l-.002.002a6.03 6.03 0 001.24-1.531v-.013c.307-.573.2-1.121-.24-1.495a18.139 18.139 0 00-2.781-2.007l-.085-.046c-.68-.373-1.373-.147-1.653.227l-.6.759c-.307.373-.867.32-.867.32l-.016.013c-4.16-1.067-5.267-5.279-5.267-5.279s-.053-.573.333-.867l.747-.6c.36-.293.613-.987.227-1.667a18.073 18.073 0 00-2.071-2.887l.017.02a1.127 1.127 0 00-.665-.399l-.007-.001zm5.964 1.187a.401.401 0 00.001.8h.001a5.027 5.027 0 013.532 1.532l.001.001a4.646 4.646 0 011.199 3.44l.001-.014c.001.22.18.399.4.399l.013.016a.4.4 0 00.4-.4v-.001c.04-1.587-.453-2.92-1.427-3.987s-2.333-1.667-4.067-1.787l-.028-.001-.029.001h.001zm.653 2.158H17.1a.407.407 0 00-.012.815h.001c1.32.067 1.96.733 2.04 2.107a.4.4 0 00.4.387h.013a.4.4 0 00.388-.4l-.001-.028v.001c-.093-1.787-1.067-2.788-2.8-2.881h-.016z"/></symbol><symbol id="icon-whatsapp" viewBox="0 0 32 32"><path d="M27.281 4.65C24.287 1.65 20.306 0 16.062 0 7.324 0 .212 7.112.212 15.856c0 2.794.731 5.525 2.119 7.925L.081 32l8.406-2.206a15.858 15.858 0 007.575 1.931h.006c8.738 0 15.856-7.113 15.856-15.856 0-4.238-1.65-8.219-4.644-11.219zm-11.212 24.4a13.17 13.17 0 01-6.713-1.837l-.481-.288-4.987 1.306 1.331-4.863-.313-.5a13.086 13.086 0 01-2.019-7.012c0-7.269 5.912-13.181 13.188-13.181 3.519 0 6.831 1.375 9.319 3.862a13.108 13.108 0 013.856 9.325c-.006 7.275-5.919 13.188-13.181 13.188zm7.225-9.875c-.394-.2-2.344-1.156-2.706-1.288s-.625-.2-.894.2c-.262.394-1.025 1.288-1.256 1.556-.231.262-.462.3-.856.1s-1.675-.619-3.188-1.969c-1.175-1.05-1.975-2.35-2.206-2.744s-.025-.613.175-.806c.181-.175.394-.463.594-.694s.262-.394.394-.662c.131-.262.069-.494-.031-.694s-.894-2.15-1.219-2.944c-.319-.775-.65-.669-.894-.681-.231-.012-.494-.012-.756-.012s-.694.1-1.056.494c-.363.394-1.387 1.356-1.387 3.306s1.419 3.831 1.619 4.1c.2.262 2.794 4.269 6.769 5.981.944.406 1.681.65 2.256.837.95.3 1.813.256 2.494.156.762-.113 2.344-.956 2.675-1.881s.331-1.719.231-1.881c-.094-.175-.356-.275-.756-.475z"/></symbol><symbol id="icon-telegram" viewBox="0 0 32 32"><path d="M16 0C7.162 0 0 7.162 0 16s7.162 16 16 16 16-7.163 16-16S24.837 0 16 0zm7.863 10.969l-2.625 12.369c-.181.881-.712 1.087-1.45.681l-4-2.956-1.919 1.869c-.225.219-.4.4-.8.4-.519 0-.431-.194-.606-.688L11.1 18.169l-3.956-1.231c-.856-.262-.862-.85.194-1.269l15.412-5.95c.7-.319 1.381.169 1.113 1.25z"/></symbol><symbol id="icon-imo" viewBox="0 0 128 128"><path d="M65.05 1.05a63 63 0 00-54.38 94.68c.23.4 2.16 4-1.68 7.84a107.63 107.63 0 01-8.22 7.19 2.06 2.06 0 00-.77 1.46 2 2 0 00.59 1.53c.63.63 3.42 2.69 13 2.69a50.3 50.3 0 0011.38-1.32 14.59 14.59 0 012.76-.44A63 63 0 1065.05 1.05zm0 121.9A58.54 58.54 0 0130 111.4a3.79 3.79 0 00-2.38-.72 17.73 17.73 0 00-3.51.53 46.27 46.27 0 01-10.54 1.23 35.84 35.84 0 01-7.67-.68c1.72-1.44 4-3.42 5.93-5.36 4.84-4.85 3.73-10.26 2.3-12.69A59 59 0 1165.05 123z"/><path d="M32 54a2 2 0 00-2 2v22a2 2 0 004 0V56a2 2 0 00-2-2zm36 0a10.53 10.53 0 00-8 3.24A9.19 9.19 0 0053 54a11.59 11.59 0 00-6 1.6 2 2 0 00-4 .4v22a2 2 0 004 0V63c0-4.51 4.2-5 6-5a4.82 4.82 0 015 5v15a2 2 0 004 0V63c0-4.51 4.2-5 6-5a4.82 4.82 0 015 5v15a2 2 0 004 0V63a8.81 8.81 0 00-9-9zm25.5 0C86.73 54 82 59.35 82 67s4.73 13 11.5 13S105 74.78 105 67s-4.73-13-11.5-13zm0 22c-4.56 0-7.5-3.53-7.5-9s2.94-9 7.5-9 7.5 3.53 7.5 9-2.87 9-7.5 9z"/><circle cx="32" cy="49" r="2"/></symbol><symbol id="icon-rutube" viewBox="0 0 512 512" fill="none"><g clip-path="url(#clip0_923_32857)"><rect width="511.998" height="511.998" rx="108.623" fill="#163E73"/><g filter="url(#filter0_d_923_32857)"><circle cx="419.52" cy="110" r="32.348" fill="#F41240"/></g><g filter="url(#filter1_d_923_32857)"><path d="M323.396 138.772H96.054V391.5h63.277v-82.222H280.58L335.9 391.5h70.855l-61.004-82.601c18.945-3.031 32.586-10.23 40.922-21.597 8.336-11.367 12.504-29.555 12.504-53.804v-18.946c0-14.398-1.516-25.765-4.168-34.48-2.653-8.714-7.2-16.293-13.641-23.113-6.82-6.441-14.398-10.988-23.492-14.019-9.094-2.653-20.461-4.168-34.48-4.168zm-10.23 114.807H159.331v-59.108h153.835c8.714 0 14.777 1.515 17.808 4.168 3.031 2.652 4.926 7.578 4.926 14.777v21.218c0 7.578-1.895 12.504-4.926 15.156-3.031 2.653-9.094 3.789-17.808 3.789z" fill="#fff"/></g><g filter="url(#filter2_f_923_32857)"><rect x="13.859" y="12.945" width="484.045" height="485.344" rx="96.909" stroke="#000" stroke-opacity=".65" stroke-width="6.39"/></g></g><rect x="6.967" y="6.967" width="498.064" height="498.064" rx="101.656" stroke="#fff" stroke-width="13.934"/><defs><filter id="filter0_d_923_32857" x="378.652" y="77.652" width="81.734" height="81.734" filterUnits="userSpaceOnUse" color-interpolation-filters="sRGB"><feFlood flood-opacity="0" result="BackgroundImageFix"/><feColorMatrix in="SourceAlpha" values="0 0 0 0 0 0 0 0 0 0 0 0 0 0 0 0 0 0 127 0" result="hardAlpha"/><feOffset dy="8.519"/><feGaussianBlur stdDeviation="4.26"/><feComposite in2="hardAlpha" operator="out"/><feColorMatrix values="0 0 0 0 0 0 0 0 0 0 0 0 0 0 0 0 0 0 0.5 0"/><feBlend in2="BackgroundImageFix" result="effect1_dropShadow_923_32857"/><feBlend in="SourceGraphic" in2="effect1_dropShadow_923_32857" result="shape"/></filter><filter id="filter1_d_923_32857" x="87.535" y="138.771" width="327.742" height="269.767" filterUnits="userSpaceOnUse" color-interpolation-filters="sRGB"><feFlood flood-opacity="0" result="BackgroundImageFix"/><feColorMatrix in="SourceAlpha" values="0 0 0 0 0 0 0 0 0 0 0 0 0 0 0 0 0 0 127 0" result="hardAlpha"/><feOffset dy="8.519"/><feGaussianBlur stdDeviation="4.26"/><feComposite in2="hardAlpha" operator="out"/><feColorMatrix values="0 0 0 0 0 0 0 0 0 0 0 0 0 0 0 0 0 0 0.5 0"/><feBlend in2="BackgroundImageFix" result="effect1_dropShadow_923_32857"/><feBlend in="SourceGraphic" in2="effect1_dropShadow_923_32857" result="shape"/></filter><filter id="filter2_f_923_32857" x="-6.375" y="-7.289" width="524.515" height="525.812" filterUnits="userSpaceOnUse" color-interpolation-filters="sRGB"><feFlood flood-opacity="0" result="BackgroundImageFix"/><feBlend in="SourceGraphic" in2="BackgroundImageFix" result="shape"/><feGaussianBlur stdDeviation="8.519" result="effect1_foregroundBlur_923_32857"/></filter><clipPath id="clip0_923_32857"><rect width="511.998" height="511.998" rx="108.623" fill="#fff"/></clipPath></defs></symbol></defs></svg>